<?xml version="1.0" encoding="UTF-8" standalone="no"?>
<svg width="176px" height="275px" viewBox="0 0 176 275" version="1.1" xmlns="http://www.w3.org/2000/svg" xmlns:xlink="http://www.w3.org/1999/xlink">
    <!-- Generator: Sketch 39.1 (31720) - http://www.bohemiancoding.com/sketch -->
    <title>Group 2</title>
    <desc>Created with Sketch.</desc>
    <defs>
        <linearGradient x1="50%" y1="0%" x2="50%" y2="99.3423151%" id="linearGradient-1">
            <stop stop-color="#000000" stop-opacity="0" offset="0%"></stop>
            <stop stop-color="#000000" stop-opacity="0" offset="80%"></stop>
            <stop stop-color="#000000" stop-opacity="0.04" offset="100%"></stop>
        </linearGradient>
        <linearGradient x1="50%" y1="2.18285176%" x2="50%" y2="98.4952966%" id="linearGradient-2">
            <stop stop-color="#FFFFFF" offset="0%"></stop>
            <stop stop-color="#FFFFFF" stop-opacity="0" offset="20%"></stop>
            <stop stop-color="#FFFFFF" stop-opacity="0" offset="100%"></stop>
        </linearGradient>
        <circle id="path-3" cx="154.5" cy="255.5" r="12.5"></circle>
        <mask id="mask-4" maskContentUnits="userSpaceOnUse" maskUnits="objectBoundingBox" x="0" y="0" width="25" height="25" fill="white">
            <use xlink:href="#path-3"></use>
        </mask>
        <mask id="mask-5" maskContentUnits="userSpaceOnUse" maskUnits="objectBoundingBox" x="0" y="0" width="25" height="25" fill="white">
            <use xlink:href="#path-3"></use>
        </mask>
        <path d="M150.5,67.5407611 C142.762589,65.73161 137,58.7887674 137,50.5 C137,40.8350169 144.835017,33 154.5,33 C164.164983,33 172,40.8350169 172,50.5 C172,59.1421138 165.735626,66.3211046 157.5,67.7438495 L157.5,134.25615 C165.735626,135.678895 172,142.857886 172,151.5 C172,160.142114 165.735626,167.321105 157.5,168.74385 L157.5,234.25615 C165.735626,235.678895 172,242.857886 172,251.5 C172,261.164983 164.164983,269 154.5,269 C144.835017,269 137,261.164983 137,251.5 C137,243.211233 142.762589,236.26839 150.5,234.459239 L150.5,168.540761 C142.762589,166.73161 137,159.788767 137,151.5 C137,143.211233 142.762589,136.26839 150.5,134.459239 L150.5,67.5407611 Z" id="path-6"></path>
        <filter x="-50%" y="-50%" width="200%" height="200%" filterUnits="objectBoundingBox" id="filter-7">
            <feOffset dx="0" dy="2" in="SourceAlpha" result="shadowOffsetOuter1"></feOffset>
            <feGaussianBlur stdDeviation="2" in="shadowOffsetOuter1" result="shadowBlurOuter1"></feGaussianBlur>
            <feColorMatrix values="0 0 0 0 0   0 0 0 0 0   0 0 0 0 0  0 0 0 0.5 0" type="matrix" in="shadowBlurOuter1"></feColorMatrix>
        </filter>
        <path d="M154.5,264 C161.403559,264 167,258.403559 167,251.5 C167,244.596441 161.403559,239 154.5,239 C147.596441,239 142,244.596441 142,251.5 C142,258.403559 147.596441,264 154.5,264 Z" id="path-8"></path>
        <filter x="-50%" y="-50%" width="200%" height="200%" filterUnits="objectBoundingBox" id="filter-9">
            <feGaussianBlur stdDeviation="1.5" in="SourceAlpha" result="shadowBlurInner1"></feGaussianBlur>
            <feOffset dx="0" dy="0" in="shadowBlurInner1" result="shadowOffsetInner1"></feOffset>
            <feComposite in="shadowOffsetInner1" in2="SourceAlpha" operator="arithmetic" k2="-1" k3="1" result="shadowInnerInner1"></feComposite>
            <feColorMatrix values="0 0 0 0 0   0 0 0 0 0   0 0 0 0 0  0 0 0 0.246574955 0" type="matrix" in="shadowInnerInner1"></feColorMatrix>
        </filter>
    </defs>
    <g id="Page-1" stroke="none" stroke-width="1" fill="none" fill-rule="evenodd">
        <g id="Parabéns" transform="translate(-25.000000, -468.000000)">
            <g id="Group-2" transform="translate(25.000000, 468.000000)">
                <g id="Oval-6" transform="translate(154.500000, 255.500000) scale(1, -1) rotate(-360.000000) translate(-154.500000, -255.500000) " stroke-width="2">
                    <use stroke="url(#linearGradient-1)" mask="url(#mask-4)" fill="#FAFAFA" fill-rule="evenodd" xlink:href="#path-3"></use>
                    <use stroke="url(#linearGradient-2)" mask="url(#mask-5)" xlink:href="#path-3"></use>
                </g>
                <g id="Combined-Shape">
                    <use fill="black" fill-opacity="1" filter="url(#filter-7)" xlink:href="#path-6"></use>
                    <use fill="#FFFFFF" fill-rule="evenodd" xlink:href="#path-6"></use>
                </g>
                <polygon id="Rectangle-147" fill="#D0011B" transform="translate(154.000000, 101.000000) rotate(-270.000000) translate(-154.000000, -101.000000) " points="115.5 99.5 192.5 99.5 192.5 102.5 115.5 102.5"></polygon>
                <path d="M154.5,164 C161.403559,164 167,158.403559 167,151.5 C167,144.596441 161.403559,139 154.5,139 C147.596441,139 142,144.596441 142,151.5 C142,158.403559 147.596441,164 154.5,164 Z" id="Oval-10" stroke="#D0011B" stroke-width="3" transform="translate(154.500000, 151.500000) rotate(-270.000000) translate(-154.500000, -151.500000) "></path>
                <g id="Oval-10" transform="translate(154.500000, 251.500000) rotate(-270.000000) translate(-154.500000, -251.500000) ">
                    <use fill="#FFFFFF" fill-rule="evenodd" xlink:href="#path-8"></use>
                    <use fill="black" fill-opacity="1" filter="url(#filter-9)" xlink:href="#path-8"></use>
                </g>
                <g id="Group" transform="translate(154.500000, 50.500000) rotate(-270.000000) translate(-154.500000, -50.500000) translate(142.000000, 38.000000)">
                    <circle id="Oval-6" fill="#D0011B" transform="translate(12.500000, 12.500000) scale(1, -1) translate(-12.500000, -12.500000) " cx="12.5" cy="12.5" r="5.5"></circle>
                    <path d="M12.5,25 C19.4035594,25 25,19.4035594 25,12.5 C25,5.59644063 19.4035594,-3.55271368e-15 12.5,-3.55271368e-15 C5.59644063,-3.55271368e-15 0,5.59644063 0,12.5 C0,19.4035594 5.59644063,25 12.5,25 Z" id="Oval-10" stroke="#D0011B" stroke-width="3"></path>
                </g>
                <path d="M85.808,40.16 C85.808,38.224 84.4,36.608 82.048,36.608 L77.632,36.608 L77.632,48 L79.856,48 L79.856,43.712 L82.048,43.712 C84.4,43.712 85.808,42.096 85.808,40.16 L85.808,40.16 Z M83.584,40.16 C83.584,41.088 82.944,41.712 81.936,41.712 L79.856,41.712 L79.856,38.592 L81.936,38.592 C82.944,38.592 83.584,39.232 83.584,40.16 L83.584,40.16 Z M94.208,44.48 L94.208,43.552 C94.208,41.264 92.896,39.568 90.576,39.568 C88.416,39.568 86.944,41.104 86.944,43.824 C86.944,47.2 88.832,48.096 90.8,48.096 C92.304,48.096 93.12,47.632 93.968,46.784 L92.704,45.552 C92.176,46.08 91.728,46.336 90.816,46.336 C89.648,46.336 88.992,45.552 88.992,44.48 L94.208,44.48 Z M92.16,43.056 L88.992,43.056 C89.008,42.688 89.056,42.464 89.184,42.16 C89.408,41.664 89.872,41.296 90.576,41.296 C91.28,41.296 91.744,41.664 91.968,42.16 C92.096,42.464 92.144,42.688 92.16,43.056 L92.16,43.056 Z M102.768,48 L102.768,36.608 L100.688,36.608 L100.688,40.4 C100.144,39.792 99.504,39.568 98.656,39.568 C97.84,39.568 97.088,39.856 96.624,40.32 C95.792,41.152 95.776,42.576 95.776,43.824 C95.776,45.072 95.792,46.512 96.624,47.344 C97.088,47.808 97.856,48.096 98.672,48.096 C99.552,48.096 100.16,47.856 100.736,47.216 L100.736,48 L102.768,48 Z M100.688,43.824 C100.688,45.184 100.512,46.224 99.264,46.224 C98.016,46.224 97.856,45.184 97.856,43.824 C97.856,42.464 98.016,41.44 99.264,41.44 C100.512,41.44 100.688,42.464 100.688,43.824 L100.688,43.824 Z M107.2,38.24 L107.2,36.544 L105.072,36.544 L105.072,38.24 L107.2,38.24 Z M107.184,48 L107.184,39.664 L105.104,39.664 L105.104,48 L107.184,48 Z M116.144,48 L116.144,36.608 L114.064,36.608 L114.064,40.4 C113.52,39.792 112.88,39.568 112.032,39.568 C111.216,39.568 110.464,39.856 110,40.32 C109.168,41.152 109.152,42.576 109.152,43.824 C109.152,45.072 109.168,46.512 110,47.344 C110.464,47.808 111.232,48.096 112.048,48.096 C112.928,48.096 113.536,47.856 114.112,47.216 L114.112,48 L116.144,48 Z M114.064,43.824 C114.064,45.184 113.888,46.224 112.64,46.224 C111.392,46.224 111.232,45.184 111.232,43.824 C111.232,42.464 111.392,41.44 112.64,41.44 C113.888,41.44 114.064,42.464 114.064,43.824 L114.064,43.824 Z M125.184,43.824 C125.184,42.32 124.992,41.376 124.24,40.592 C123.728,40.048 122.88,39.568 121.648,39.568 C120.416,39.568 119.584,40.048 119.072,40.592 C118.32,41.376 118.128,42.32 118.128,43.824 C118.128,45.344 118.32,46.288 119.072,47.072 C119.584,47.616 120.416,48.096 121.648,48.096 C122.88,48.096 123.728,47.616 124.24,47.072 C124.992,46.288 125.184,45.344 125.184,43.824 L125.184,43.824 Z M123.104,43.824 C123.104,44.688 123.056,45.424 122.624,45.856 C122.384,46.096 122.064,46.224 121.648,46.224 C121.232,46.224 120.928,46.096 120.688,45.856 C120.256,45.424 120.208,44.688 120.208,43.824 C120.208,42.96 120.256,42.24 120.688,41.808 C120.928,41.568 121.232,41.44 121.648,41.44 C122.064,41.44 122.384,41.568 122.624,41.808 C123.056,42.24 123.104,42.96 123.104,43.824 L123.104,43.824 Z M64.72,66 L62.176,61.088 C63.28,60.688 64.256,59.696 64.256,58.096 C64.256,56.192 62.88,54.608 60.56,54.608 L56.096,54.608 L56.096,66 L58.32,66 L58.32,61.456 L59.92,61.456 L62.144,66 L64.72,66 Z M62.032,58.096 C62.032,58.976 61.392,59.6 60.416,59.6 L58.32,59.6 L58.32,56.592 L60.416,56.592 C61.392,56.592 62.032,57.216 62.032,58.096 L62.032,58.096 Z M73.248,62.48 L73.248,61.552 C73.248,59.264 71.936,57.568 69.616,57.568 C67.456,57.568 65.984,59.104 65.984,61.824 C65.984,65.2 67.872,66.096 69.84,66.096 C71.344,66.096 72.16,65.632 73.008,64.784 L71.744,63.552 C71.216,64.08 70.768,64.336 69.856,64.336 C68.688,64.336 68.032,63.552 68.032,62.48 L73.248,62.48 Z M71.2,61.056 L68.032,61.056 C68.048,60.688 68.096,60.464 68.224,60.16 C68.448,59.664 68.912,59.296 69.616,59.296 C70.32,59.296 70.784,59.664 71.008,60.16 C71.136,60.464 71.184,60.688 71.2,61.056 L71.2,61.056 Z M81.472,66 L81.472,60.512 C81.472,58.56 80.256,57.568 77.92,57.568 C76.528,57.568 75.728,57.824 74.912,58.72 L76.24,60.016 C76.672,59.52 77.04,59.328 77.84,59.328 C78.944,59.328 79.392,59.728 79.392,60.64 L79.392,61.056 L77.424,61.056 C75.488,61.056 74.576,62.144 74.576,63.472 C74.576,64.208 74.816,64.88 75.264,65.344 C75.76,65.84 76.448,66.08 77.392,66.08 C78.352,66.08 78.88,65.84 79.44,65.28 L79.44,66 L81.472,66 Z M79.392,62.928 C79.392,63.44 79.312,63.776 79.088,63.984 C78.72,64.336 78.352,64.384 77.776,64.384 C76.96,64.384 76.576,64 76.576,63.424 C76.576,62.832 76.992,62.48 77.744,62.48 L79.392,62.48 L79.392,62.928 Z M87.248,66 L87.248,64.24 L86.448,64.24 C85.92,64.24 85.712,63.984 85.712,63.488 L85.712,54.608 L83.632,54.608 L83.632,63.616 C83.632,64.8 84.352,66 86.064,66 L87.248,66 Z M91.008,56.24 L91.008,54.544 L88.88,54.544 L88.88,56.24 L91.008,56.24 Z M90.992,66 L90.992,57.664 L88.912,57.664 L88.912,66 L90.992,66 Z M99.088,66 L99.088,64.128 L95.344,64.128 L99.088,59.248 L99.088,57.664 L92.944,57.664 L92.944,59.536 L96.432,59.536 L92.736,64.416 L92.736,66 L99.088,66 Z M107.264,66 L107.264,60.512 C107.264,58.56 106.048,57.568 103.712,57.568 C102.32,57.568 101.52,57.824 100.704,58.72 L102.032,60.016 C102.464,59.52 102.832,59.328 103.632,59.328 C104.736,59.328 105.184,59.728 105.184,60.64 L105.184,61.056 L103.216,61.056 C101.28,61.056 100.368,62.144 100.368,63.472 C100.368,64.208 100.608,64.88 101.056,65.344 C101.552,65.84 102.24,66.08 103.184,66.08 C104.144,66.08 104.672,65.84 105.232,65.28 L105.232,66 L107.264,66 Z M105.184,62.928 C105.184,63.44 105.104,63.776 104.88,63.984 C104.512,64.336 104.144,64.384 103.568,64.384 C102.752,64.384 102.368,64 102.368,63.424 C102.368,62.832 102.784,62.48 103.536,62.48 L105.184,62.48 L105.184,62.928 Z M116.144,66 L116.144,54.608 L114.064,54.608 L114.064,58.4 C113.52,57.792 112.88,57.568 112.032,57.568 C111.216,57.568 110.464,57.856 110,58.32 C109.168,59.152 109.152,60.576 109.152,61.824 C109.152,63.072 109.168,64.512 110,65.344 C110.464,65.808 111.232,66.096 112.048,66.096 C112.928,66.096 113.536,65.856 114.112,65.216 L114.112,66 L116.144,66 Z M114.064,61.824 C114.064,63.184 113.888,64.224 112.64,64.224 C111.392,64.224 111.232,63.184 111.232,61.824 C111.232,60.464 111.392,59.44 112.64,59.44 C113.888,59.44 114.064,60.464 114.064,61.824 L114.064,61.824 Z M125.184,61.824 C125.184,60.32 124.992,59.376 124.24,58.592 C123.728,58.048 122.88,57.568 121.648,57.568 C120.416,57.568 119.584,58.048 119.072,58.592 C118.32,59.376 118.128,60.32 118.128,61.824 C118.128,63.344 118.32,64.288 119.072,65.072 C119.584,65.616 120.416,66.096 121.648,66.096 C122.88,66.096 123.728,65.616 124.24,65.072 C124.992,64.288 125.184,63.344 125.184,61.824 L125.184,61.824 Z M123.104,61.824 C123.104,62.688 123.056,63.424 122.624,63.856 C122.384,64.096 122.064,64.224 121.648,64.224 C121.232,64.224 120.928,64.096 120.688,63.856 C120.256,63.424 120.208,62.688 120.208,61.824 C120.208,60.96 120.256,60.24 120.688,59.808 C120.928,59.568 121.232,59.44 121.648,59.44 C122.064,59.44 122.384,59.568 122.624,59.808 C123.056,60.24 123.104,60.96 123.104,61.824 L123.104,61.824 Z" id="Pedido-Realizado" fill="#D0011B"></path>
                <path d="M111.875278,0.336493141 C111.426621,-0.11216438 110.699585,-0.11216438 110.250927,0.336493141 L94.4646663,16.122754 L87.7504507,9.40894753 C87.3017932,8.96029001 86.5746551,8.96029001 86.1260998,9.40894753 L82.3364931,13.1984519 C81.8878356,13.6471095 81.8878356,14.3742476 82.3364931,14.8228028 L93.6525419,26.1384426 C93.876615,26.3629247 94.1706406,26.4752169 94.4646663,26.4752169 C94.7586919,26.4752169 95.0527175,26.3629247 95.2767906,26.1384426 L115.664885,5.75034845 C115.880163,5.53507056 116.00125,5.24268126 116.00125,4.93822413 C116.00125,4.633767 115.880163,4.3413777 115.664885,4.12609981 L111.875278,0.336493141 Z" id="Fill-1" fill="#D0011B"></path>
                <path d="M70.672,249 L66.512,237.608 L64.768,237.608 L60.624,249 L62.944,249 L63.632,246.984 L67.68,246.984 L68.352,249 L70.672,249 Z M67.088,245.112 L64.256,245.112 L65.696,240.968 L67.088,245.112 Z M75.664,249 L75.664,247.24 L74.912,247.24 C74.416,247.24 74.192,246.968 74.192,246.488 L74.192,242.488 L75.664,242.488 L75.664,240.904 L74.192,240.904 L74.192,238.44 L72.112,238.44 L72.112,240.904 L71.232,240.904 L71.232,242.488 L72.112,242.488 L72.112,246.616 C72.112,247.8 72.832,249 74.528,249 L75.664,249 Z M79.648,239.24 L79.648,237.544 L77.52,237.544 L77.52,239.24 L79.648,239.24 Z M79.632,249 L79.632,240.664 L77.552,240.664 L77.552,249 L79.632,249 Z M88.608,240.664 L86.416,240.664 L84.736,245.816 L83.04,240.664 L80.848,240.664 L83.92,249 L85.552,249 L88.608,240.664 Z M95.984,249 L95.984,243.512 C95.984,241.56 94.768,240.568 92.432,240.568 C91.04,240.568 90.24,240.824 89.424,241.72 L90.752,243.016 C91.184,242.52 91.552,242.328 92.352,242.328 C93.456,242.328 93.904,242.728 93.904,243.64 L93.904,244.056 L91.936,244.056 C90,244.056 89.088,245.144 89.088,246.472 C89.088,247.208 89.328,247.88 89.776,248.344 C90.272,248.84 90.96,249.08 91.904,249.08 C92.864,249.08 93.392,248.84 93.952,248.28 L93.952,249 L95.984,249 Z M93.904,245.928 C93.904,246.44 93.824,246.776 93.6,246.984 C93.232,247.336 92.864,247.384 92.288,247.384 C91.472,247.384 91.088,247 91.088,246.424 C91.088,245.832 91.504,245.48 92.256,245.48 L93.904,245.48 L93.904,245.928 Z M104.288,247.96 L102.88,246.568 C102.448,247.032 102.08,247.224 101.536,247.224 C101.04,247.224 100.656,247.048 100.352,246.68 C100.032,246.28 99.888,245.704 99.888,244.824 C99.888,243.944 100.032,243.384 100.352,242.984 C100.656,242.616 101.04,242.44 101.536,242.44 C102.08,242.44 102.448,242.632 102.88,243.096 L104.288,241.688 C103.552,240.92 102.688,240.568 101.536,240.568 C99.872,240.568 97.808,241.448 97.808,244.824 C97.808,248.2 99.872,249.096 101.536,249.096 C102.688,249.096 103.552,248.728 104.288,247.96 L104.288,247.96 Z M102.256,249.96 L100.72,249.96 L99.616,252.296 L101.552,252.296 L102.256,249.96 Z M112.24,249 L112.24,243.512 C112.24,241.56 111.024,240.568 108.688,240.568 C107.296,240.568 106.496,240.824 105.68,241.72 L107.008,243.016 C107.44,242.52 107.808,242.328 108.608,242.328 C109.712,242.328 110.16,242.728 110.16,243.64 L110.16,244.056 L108.192,244.056 C106.256,244.056 105.344,245.144 105.344,246.472 C105.344,247.208 105.584,247.88 106.032,248.344 C106.528,248.84 107.216,249.08 108.16,249.08 C109.12,249.08 109.648,248.84 110.208,248.28 L110.208,249 L112.24,249 Z M110.16,245.928 C110.16,246.44 110.08,246.776 109.856,246.984 C109.488,247.336 109.12,247.384 108.544,247.384 C107.728,247.384 107.344,247 107.344,246.424 C107.344,245.832 107.76,245.48 108.512,245.48 L110.16,245.48 L110.16,245.928 Z M111.824,238.216 L110.896,237.304 C110.48,237.72 110.224,237.768 109.952,237.768 C109.632,237.768 109.392,237.672 109.072,237.48 C108.624,237.208 108.32,237.112 107.84,237.112 C107.216,237.112 106.752,237.352 106.048,238.056 L106.944,238.968 C107.36,238.552 107.616,238.504 107.888,238.504 C108.208,238.504 108.48,238.616 108.784,238.792 C109.232,239.048 109.552,239.16 110.016,239.16 C110.624,239.16 111.12,238.92 111.824,238.216 L111.824,238.216 Z M121.184,244.824 C121.184,243.32 120.992,242.376 120.24,241.592 C119.728,241.048 118.88,240.568 117.648,240.568 C116.416,240.568 115.584,241.048 115.072,241.592 C114.32,242.376 114.128,243.32 114.128,244.824 C114.128,246.344 114.32,247.288 115.072,248.072 C115.584,248.616 116.416,249.096 117.648,249.096 C118.88,249.096 119.728,248.616 120.24,248.072 C120.992,247.288 121.184,246.344 121.184,244.824 L121.184,244.824 Z M119.104,244.824 C119.104,245.688 119.056,246.424 118.624,246.856 C118.384,247.096 118.064,247.224 117.648,247.224 C117.232,247.224 116.928,247.096 116.688,246.856 C116.256,246.424 116.208,245.688 116.208,244.824 C116.208,243.96 116.256,243.24 116.688,242.808 C116.928,242.568 117.232,242.44 117.648,242.44 C118.064,242.44 118.384,242.568 118.624,242.808 C119.056,243.24 119.104,243.96 119.104,244.824 L119.104,244.824 Z M68.16,267 L68.16,255.608 L66.08,255.608 L66.08,259.4 C65.536,258.792 64.896,258.568 64.048,258.568 C63.232,258.568 62.48,258.856 62.016,259.32 C61.184,260.152 61.168,261.576 61.168,262.824 C61.168,264.072 61.184,265.512 62.016,266.344 C62.48,266.808 63.248,267.096 64.064,267.096 C64.944,267.096 65.552,266.856 66.128,266.216 L66.128,267 L68.16,267 Z M66.08,262.824 C66.08,264.184 65.904,265.224 64.656,265.224 C63.408,265.224 63.248,264.184 63.248,262.824 C63.248,261.464 63.408,260.44 64.656,260.44 C65.904,260.44 66.08,261.464 66.08,262.824 L66.08,262.824 Z M76.8,267 L76.8,261.512 C76.8,259.56 75.584,258.568 73.248,258.568 C71.856,258.568 71.056,258.824 70.24,259.72 L71.568,261.016 C72,260.52 72.368,260.328 73.168,260.328 C74.272,260.328 74.72,260.728 74.72,261.64 L74.72,262.056 L72.752,262.056 C70.816,262.056 69.904,263.144 69.904,264.472 C69.904,265.208 70.144,265.88 70.592,266.344 C71.088,266.84 71.776,267.08 72.72,267.08 C73.68,267.08 74.208,266.84 74.768,266.28 L74.768,267 L76.8,267 Z M74.72,263.928 C74.72,264.44 74.64,264.776 74.416,264.984 C74.048,265.336 73.68,265.384 73.104,265.384 C72.288,265.384 71.904,265 71.904,264.424 C71.904,263.832 72.32,263.48 73.072,263.48 L74.72,263.48 L74.72,263.928 Z M90.304,267 L90.304,265.016 L85.136,265.016 L85.136,255.608 L82.912,255.608 L82.912,267 L90.304,267 Z M94.048,257.24 L94.048,255.544 L91.92,255.544 L91.92,257.24 L94.048,257.24 Z M94.032,267 L94.032,258.664 L91.952,258.664 L91.952,267 L94.032,267 Z M103.28,267 L103.28,261.672 C103.28,260.76 103.104,259.976 102.432,259.304 C101.968,258.84 101.296,258.568 100.464,258.568 C99.696,258.568 98.928,258.856 98.384,259.432 L98.384,258.664 L96.352,258.664 L96.352,267 L98.432,267 L98.432,261.96 C98.432,260.824 99.168,260.44 99.824,260.44 C100.48,260.44 101.2,260.824 101.2,261.96 L101.2,267 L103.28,267 Z M112.384,267 L112.384,261.608 C112.384,259.848 111.424,258.568 109.6,258.568 C108.864,258.568 108.16,258.856 107.6,259.432 L107.6,255.608 L105.52,255.608 L105.52,267 L107.6,267 L107.6,261.912 C107.6,260.824 108.288,260.44 108.944,260.44 C109.6,260.44 110.304,260.808 110.304,261.912 L110.304,267 L112.384,267 Z M120.928,267 L120.928,261.512 C120.928,259.56 119.712,258.568 117.376,258.568 C115.984,258.568 115.184,258.824 114.368,259.72 L115.696,261.016 C116.128,260.52 116.496,260.328 117.296,260.328 C118.4,260.328 118.848,260.728 118.848,261.64 L118.848,262.056 L116.88,262.056 C114.944,262.056 114.032,263.144 114.032,264.472 C114.032,265.208 114.272,265.88 114.72,266.344 C115.216,266.84 115.904,267.08 116.848,267.08 C117.808,267.08 118.336,266.84 118.896,266.28 L118.896,267 L120.928,267 Z M118.848,263.928 C118.848,264.44 118.768,264.776 118.544,264.984 C118.176,265.336 117.808,265.384 117.232,265.384 C116.416,265.384 116.032,265 116.032,264.424 C116.032,263.832 116.448,263.48 117.2,263.48 L118.848,263.48 L118.848,263.928 Z" id="Ativação" fill="#4A4A4A" transform="translate(91.312000, 252.104000) rotate(-360.000000) translate(-91.312000, -252.104000) "></path>
                <path d="M28.36,151 L24.2,139.608 L22.456,139.608 L18.312,151 L20.632,151 L21.32,148.984 L25.368,148.984 L26.04,151 L28.36,151 Z M24.776,147.112 L21.944,147.112 L23.384,142.968 L24.776,147.112 Z M36.152,150.696 L36.152,142.664 L34.136,142.664 L34.136,143.448 C33.56,142.808 32.984,142.568 32.104,142.568 C31.288,142.568 30.568,142.84 30.104,143.304 C29.32,144.088 29.256,145.144 29.256,146.6 C29.256,148.056 29.32,149.128 30.104,149.912 C30.568,150.376 31.272,150.648 32.088,150.648 C32.904,150.648 33.528,150.424 34.072,149.816 L34.072,150.664 C34.072,151.512 33.64,152.392 32.392,152.392 C31.688,152.392 31.224,152.2 30.76,151.752 L29.464,153.064 C30.328,153.896 31.208,154.152 32.488,154.152 C34.728,154.152 36.152,152.696 36.152,150.696 L36.152,150.696 Z M34.072,146.6 C34.072,147.704 33.928,148.776 32.696,148.776 C31.464,148.776 31.336,147.704 31.336,146.6 C31.336,145.496 31.464,144.44 32.696,144.44 C33.928,144.44 34.072,145.496 34.072,146.6 L34.072,146.6 Z M45.336,147.48 L45.336,146.552 C45.336,144.264 44.024,142.568 41.704,142.568 C39.544,142.568 38.072,144.104 38.072,146.824 C38.072,150.2 39.96,151.096 41.928,151.096 C43.432,151.096 44.248,150.632 45.096,149.784 L43.832,148.552 C43.304,149.08 42.856,149.336 41.944,149.336 C40.776,149.336 40.12,148.552 40.12,147.48 L45.336,147.48 Z M43.288,146.056 L40.12,146.056 C40.136,145.688 40.184,145.464 40.312,145.16 C40.536,144.664 41,144.296 41.704,144.296 C42.408,144.296 42.872,144.664 43.096,145.16 C43.224,145.464 43.272,145.688 43.288,146.056 L43.288,146.056 Z M54.184,151 L54.184,145.672 C54.184,144.76 54.008,143.976 53.336,143.304 C52.872,142.84 52.2,142.568 51.368,142.568 C50.6,142.568 49.832,142.856 49.288,143.432 L49.288,142.664 L47.256,142.664 L47.256,151 L49.336,151 L49.336,145.96 C49.336,144.824 50.072,144.44 50.728,144.44 C51.384,144.44 52.104,144.824 52.104,145.96 L52.104,151 L54.184,151 Z M63.064,151 L63.064,139.608 L60.984,139.608 L60.984,143.4 C60.44,142.792 59.8,142.568 58.952,142.568 C58.136,142.568 57.384,142.856 56.92,143.32 C56.088,144.152 56.072,145.576 56.072,146.824 C56.072,148.072 56.088,149.512 56.92,150.344 C57.384,150.808 58.152,151.096 58.968,151.096 C59.848,151.096 60.456,150.856 61.032,150.216 L61.032,151 L63.064,151 Z M60.984,146.824 C60.984,148.184 60.808,149.224 59.56,149.224 C58.312,149.224 58.152,148.184 58.152,146.824 C58.152,145.464 58.312,144.44 59.56,144.44 C60.808,144.44 60.984,145.464 60.984,146.824 L60.984,146.824 Z M71.704,151 L71.704,145.512 C71.704,143.56 70.488,142.568 68.152,142.568 C66.76,142.568 65.96,142.824 65.144,143.72 L66.472,145.016 C66.904,144.52 67.272,144.328 68.072,144.328 C69.176,144.328 69.624,144.728 69.624,145.64 L69.624,146.056 L67.656,146.056 C65.72,146.056 64.808,147.144 64.808,148.472 C64.808,149.208 65.048,149.88 65.496,150.344 C65.992,150.84 66.68,151.08 67.624,151.08 C68.584,151.08 69.112,150.84 69.672,150.28 L69.672,151 L71.704,151 Z M69.624,147.928 C69.624,148.44 69.544,148.776 69.32,148.984 C68.952,149.336 68.584,149.384 68.008,149.384 C67.192,149.384 66.808,149 66.808,148.424 C66.808,147.832 67.224,147.48 67.976,147.48 L69.624,147.48 L69.624,147.928 Z M85.72,151 L85.72,145.672 C85.72,144.76 85.48,143.976 84.808,143.304 C84.344,142.84 83.592,142.568 82.76,142.568 C81.72,142.568 80.968,142.888 80.264,143.624 C79.736,142.904 78.984,142.568 78.056,142.568 C77.288,142.568 76.52,142.872 75.976,143.432 L75.976,142.664 L73.944,142.664 L73.944,151 L76.024,151 L76.024,145.96 C76.024,144.824 76.76,144.44 77.416,144.44 C78.072,144.44 78.792,144.824 78.792,145.96 L78.792,151 L80.872,151 L80.872,145.912 C80.872,144.824 81.624,144.44 82.264,144.44 C82.92,144.44 83.64,144.824 83.64,145.96 L83.64,151 L85.72,151 Z M94.808,147.48 L94.808,146.552 C94.808,144.264 93.496,142.568 91.176,142.568 C89.016,142.568 87.544,144.104 87.544,146.824 C87.544,150.2 89.432,151.096 91.4,151.096 C92.904,151.096 93.72,150.632 94.568,149.784 L93.304,148.552 C92.776,149.08 92.328,149.336 91.416,149.336 C90.248,149.336 89.592,148.552 89.592,147.48 L94.808,147.48 Z M92.76,146.056 L89.592,146.056 C89.608,145.688 89.656,145.464 89.784,145.16 C90.008,144.664 90.472,144.296 91.176,144.296 C91.88,144.296 92.344,144.664 92.568,145.16 C92.696,145.464 92.744,145.688 92.76,146.056 L92.76,146.056 Z M103.656,151 L103.656,145.672 C103.656,144.76 103.48,143.976 102.808,143.304 C102.344,142.84 101.672,142.568 100.84,142.568 C100.072,142.568 99.304,142.856 98.76,143.432 L98.76,142.664 L96.728,142.664 L96.728,151 L98.808,151 L98.808,145.96 C98.808,144.824 99.544,144.44 100.2,144.44 C100.856,144.44 101.576,144.824 101.576,145.96 L101.576,151 L103.656,151 Z M109.64,151 L109.64,149.24 L108.888,149.24 C108.392,149.24 108.168,148.968 108.168,148.488 L108.168,144.488 L109.64,144.488 L109.64,142.904 L108.168,142.904 L108.168,140.44 L106.088,140.44 L106.088,142.904 L105.208,142.904 L105.208,144.488 L106.088,144.488 L106.088,148.616 C106.088,149.8 106.808,151 108.504,151 L109.64,151 Z M118.184,146.824 C118.184,145.32 117.992,144.376 117.24,143.592 C116.728,143.048 115.88,142.568 114.648,142.568 C113.416,142.568 112.584,143.048 112.072,143.592 C111.32,144.376 111.128,145.32 111.128,146.824 C111.128,148.344 111.32,149.288 112.072,150.072 C112.584,150.616 113.416,151.096 114.648,151.096 C115.88,151.096 116.728,150.616 117.24,150.072 C117.992,149.288 118.184,148.344 118.184,146.824 L118.184,146.824 Z M116.104,146.824 C116.104,147.688 116.056,148.424 115.624,148.856 C115.384,149.096 115.064,149.224 114.648,149.224 C114.232,149.224 113.928,149.096 113.688,148.856 C113.256,148.424 113.208,147.688 113.208,146.824 C113.208,145.96 113.256,145.24 113.688,144.808 C113.928,144.568 114.232,144.44 114.648,144.44 C115.064,144.44 115.384,144.568 115.624,144.808 C116.056,145.24 116.104,145.96 116.104,146.824 L116.104,146.824 Z M7.368,169 L7.368,157.608 L5.288,157.608 L5.288,161.4 C4.744,160.792 4.104,160.568 3.256,160.568 C2.44,160.568 1.688,160.856 1.224,161.32 C0.392,162.152 0.376,163.576 0.376,164.824 C0.376,166.072 0.392,167.512 1.224,168.344 C1.688,168.808 2.456,169.096 3.272,169.096 C4.152,169.096 4.76,168.856 5.336,168.216 L5.336,169 L7.368,169 Z M5.288,164.824 C5.288,166.184 5.112,167.224 3.864,167.224 C2.616,167.224 2.456,166.184 2.456,164.824 C2.456,163.464 2.616,162.44 3.864,162.44 C5.112,162.44 5.288,163.464 5.288,164.824 L5.288,164.824 Z M16.008,169 L16.008,163.512 C16.008,161.56 14.792,160.568 12.456,160.568 C11.064,160.568 10.264,160.824 9.448,161.72 L10.776,163.016 C11.208,162.52 11.576,162.328 12.376,162.328 C13.48,162.328 13.928,162.728 13.928,163.64 L13.928,164.056 L11.96,164.056 C10.024,164.056 9.112,165.144 9.112,166.472 C9.112,167.208 9.352,167.88 9.8,168.344 C10.296,168.84 10.984,169.08 11.928,169.08 C12.888,169.08 13.416,168.84 13.976,168.28 L13.976,169 L16.008,169 Z M13.928,165.928 C13.928,166.44 13.848,166.776 13.624,166.984 C13.256,167.336 12.888,167.384 12.312,167.384 C11.496,167.384 11.112,167 11.112,166.424 C11.112,165.832 11.528,165.48 12.28,165.48 L13.928,165.48 L13.928,165.928 Z M30.296,161.16 C30.296,159.224 28.888,157.608 26.536,157.608 L22.12,157.608 L22.12,169 L24.344,169 L24.344,164.712 L26.536,164.712 C28.888,164.712 30.296,163.096 30.296,161.16 L30.296,161.16 Z M28.072,161.16 C28.072,162.088 27.432,162.712 26.424,162.712 L24.344,162.712 L24.344,159.592 L26.424,159.592 C27.432,159.592 28.072,160.232 28.072,161.16 L28.072,161.16 Z M38.552,164.824 C38.552,163.32 38.36,162.376 37.608,161.592 C37.096,161.048 36.248,160.568 35.016,160.568 C33.784,160.568 32.952,161.048 32.44,161.592 C31.688,162.376 31.496,163.32 31.496,164.824 C31.496,166.344 31.688,167.288 32.44,168.072 C32.952,168.616 33.784,169.096 35.016,169.096 C36.248,169.096 37.096,168.616 37.608,168.072 C38.36,167.288 38.552,166.344 38.552,164.824 L38.552,164.824 Z M36.472,164.824 C36.472,165.688 36.424,166.424 35.992,166.856 C35.752,167.096 35.432,167.224 35.016,167.224 C34.6,167.224 34.296,167.096 34.056,166.856 C33.624,166.424 33.576,165.688 33.576,164.824 C33.576,163.96 33.624,163.24 34.056,162.808 C34.296,162.568 34.6,162.44 35.016,162.44 C35.432,162.44 35.752,162.568 35.992,162.808 C36.424,163.24 36.472,163.96 36.472,164.824 L36.472,164.824 Z M46.632,161.352 C46.056,160.776 45.48,160.568 44.664,160.568 C43.768,160.568 42.968,160.984 42.568,161.464 L42.568,160.664 L40.536,160.664 L40.536,169 L42.616,169 L42.616,163.976 C42.616,162.92 43.32,162.44 43.96,162.44 C44.472,162.44 44.744,162.616 45.064,162.936 L46.632,161.352 Z M51.56,169 L51.56,167.24 L50.808,167.24 C50.312,167.24 50.088,166.968 50.088,166.488 L50.088,162.488 L51.56,162.488 L51.56,160.904 L50.088,160.904 L50.088,158.44 L48.008,158.44 L48.008,160.904 L47.128,160.904 L47.128,162.488 L48.008,162.488 L48.008,166.616 C48.008,167.8 48.728,169 50.424,169 L51.56,169 Z M59.704,169 L59.704,163.512 C59.704,161.56 58.488,160.568 56.152,160.568 C54.76,160.568 53.96,160.824 53.144,161.72 L54.472,163.016 C54.904,162.52 55.272,162.328 56.072,162.328 C57.176,162.328 57.624,162.728 57.624,163.64 L57.624,164.056 L55.656,164.056 C53.72,164.056 52.808,165.144 52.808,166.472 C52.808,167.208 53.048,167.88 53.496,168.344 C53.992,168.84 54.68,169.08 55.624,169.08 C56.584,169.08 57.112,168.84 57.672,168.28 L57.672,169 L59.704,169 Z M57.624,165.928 C57.624,166.44 57.544,166.776 57.32,166.984 C56.952,167.336 56.584,167.384 56.008,167.384 C55.192,167.384 54.808,167 54.808,166.424 C54.808,165.832 55.224,165.48 55.976,165.48 L57.624,165.48 L57.624,165.928 Z M68.92,164.824 C68.92,163.576 68.904,162.152 68.072,161.32 C67.608,160.856 66.856,160.568 66.04,160.568 C65.192,160.568 64.568,160.792 64.024,161.4 L64.024,157.608 L61.944,157.608 L61.944,169 L63.96,169 L63.96,168.216 C64.536,168.856 65.16,169.096 66.04,169.096 C66.856,169.096 67.608,168.808 68.072,168.344 C68.904,167.512 68.92,166.072 68.92,164.824 L68.92,164.824 Z M66.84,164.824 C66.84,166.184 66.68,167.224 65.432,167.224 C64.184,167.224 64.024,166.184 64.024,164.824 C64.024,163.464 64.184,162.44 65.432,162.44 C66.68,162.44 66.84,163.464 66.84,164.824 L66.84,164.824 Z M73,159.24 L73,157.544 L70.872,157.544 L70.872,159.24 L73,159.24 Z M72.984,169 L72.984,160.664 L70.904,160.664 L70.904,169 L72.984,169 Z M78.84,169 L78.84,167.24 L78.04,167.24 C77.512,167.24 77.304,166.984 77.304,166.488 L77.304,157.608 L75.224,157.608 L75.224,166.616 C75.224,167.8 75.944,169 77.656,169 L78.84,169 Z M82.6,159.24 L82.6,157.544 L80.472,157.544 L80.472,159.24 L82.6,159.24 Z M82.584,169 L82.584,160.664 L80.504,160.664 L80.504,169 L82.584,169 Z M91.544,169 L91.544,157.608 L89.464,157.608 L89.464,161.4 C88.92,160.792 88.28,160.568 87.432,160.568 C86.616,160.568 85.864,160.856 85.4,161.32 C84.568,162.152 84.552,163.576 84.552,164.824 C84.552,166.072 84.568,167.512 85.4,168.344 C85.864,168.808 86.632,169.096 87.448,169.096 C88.328,169.096 88.936,168.856 89.512,168.216 L89.512,169 L91.544,169 Z M89.464,164.824 C89.464,166.184 89.288,167.224 88.04,167.224 C86.792,167.224 86.632,166.184 86.632,164.824 C86.632,163.464 86.792,162.44 88.04,162.44 C89.288,162.44 89.464,163.464 89.464,164.824 L89.464,164.824 Z M100.184,169 L100.184,163.512 C100.184,161.56 98.968,160.568 96.632,160.568 C95.24,160.568 94.44,160.824 93.624,161.72 L94.952,163.016 C95.384,162.52 95.752,162.328 96.552,162.328 C97.656,162.328 98.104,162.728 98.104,163.64 L98.104,164.056 L96.136,164.056 C94.2,164.056 93.288,165.144 93.288,166.472 C93.288,167.208 93.528,167.88 93.976,168.344 C94.472,168.84 95.16,169.08 96.104,169.08 C97.064,169.08 97.592,168.84 98.152,168.28 L98.152,169 L100.184,169 Z M98.104,165.928 C98.104,166.44 98.024,166.776 97.8,166.984 C97.432,167.336 97.064,167.384 96.488,167.384 C95.672,167.384 95.288,167 95.288,166.424 C95.288,165.832 95.704,165.48 96.456,165.48 L98.104,165.48 L98.104,165.928 Z M109.064,169 L109.064,157.608 L106.984,157.608 L106.984,161.4 C106.44,160.792 105.8,160.568 104.952,160.568 C104.136,160.568 103.384,160.856 102.92,161.32 C102.088,162.152 102.072,163.576 102.072,164.824 C102.072,166.072 102.088,167.512 102.92,168.344 C103.384,168.808 104.152,169.096 104.968,169.096 C105.848,169.096 106.456,168.856 107.032,168.216 L107.032,169 L109.064,169 Z M106.984,164.824 C106.984,166.184 106.808,167.224 105.56,167.224 C104.312,167.224 104.152,166.184 104.152,164.824 C104.152,163.464 104.312,162.44 105.56,162.44 C106.808,162.44 106.984,163.464 106.984,164.824 L106.984,164.824 Z M118.248,165.48 L118.248,164.552 C118.248,162.264 116.936,160.568 114.616,160.568 C112.456,160.568 110.984,162.104 110.984,164.824 C110.984,168.2 112.872,169.096 114.84,169.096 C116.344,169.096 117.16,168.632 118.008,167.784 L116.744,166.552 C116.216,167.08 115.768,167.336 114.856,167.336 C113.688,167.336 113.032,166.552 113.032,165.48 L118.248,165.48 Z M116.2,164.056 L113.032,164.056 C113.048,163.688 113.096,163.464 113.224,163.16 C113.448,162.664 113.912,162.296 114.616,162.296 C115.32,162.296 115.784,162.664 116.008,163.16 C116.136,163.464 116.184,163.688 116.2,164.056 L116.2,164.056 Z" id="Agendamento" fill="#4A4A4A" transform="translate(59.688000, 154.352000) rotate(-360.000000) translate(-59.688000, -154.352000) "></path>
            </g>
        </g>
    </g>
</svg>