<?xml version="1.0" encoding="UTF-8" standalone="no"?>
<svg width="129px" height="275px" viewBox="0 0 129 275" version="1.1" xmlns="http://www.w3.org/2000/svg" xmlns:xlink="http://www.w3.org/1999/xlink">
    <!-- Generator: Sketch 39.1 (31720) - http://www.bohemiancoding.com/sketch -->
    <title>Group 2</title>
    <desc>Created with Sketch.</desc>
    <defs>
        <linearGradient x1="50%" y1="0%" x2="50%" y2="99.3423151%" id="linearGradient-1">
            <stop stop-color="#000000" stop-opacity="0" offset="0%"></stop>
            <stop stop-color="#000000" stop-opacity="0" offset="80%"></stop>
            <stop stop-color="#000000" stop-opacity="0.04" offset="100%"></stop>
        </linearGradient>
        <linearGradient x1="50%" y1="2.18285176%" x2="50%" y2="98.4952966%" id="linearGradient-2">
            <stop stop-color="#FFFFFF" offset="0%"></stop>
            <stop stop-color="#FFFFFF" stop-opacity="0" offset="20%"></stop>
            <stop stop-color="#FFFFFF" stop-opacity="0" offset="100%"></stop>
        </linearGradient>
        <circle id="path-3" cx="107.5" cy="255.5" r="12.5"></circle>
        <mask id="mask-4" maskContentUnits="userSpaceOnUse" maskUnits="objectBoundingBox" x="0" y="0" width="25" height="25" fill="white">
            <use xlink:href="#path-3"></use>
        </mask>
        <mask id="mask-5" maskContentUnits="userSpaceOnUse" maskUnits="objectBoundingBox" x="0" y="0" width="25" height="25" fill="white">
            <use xlink:href="#path-3"></use>
        </mask>
        <path d="M103.5,67.5407611 C95.7625889,65.73161 90,58.7887674 90,50.5 C90,40.8350169 97.8350169,33 107.5,33 C117.164983,33 125,40.8350169 125,50.5 C125,59.1421138 118.735626,66.3211046 110.5,67.7438495 L110.5,134.25615 C118.735626,135.678895 125,142.857886 125,151.5 C125,160.142114 118.735626,167.321105 110.5,168.74385 L110.5,234.25615 C118.735626,235.678895 125,242.857886 125,251.5 C125,261.164983 117.164983,269 107.5,269 C97.8350169,269 90,261.164983 90,251.5 C90,243.211233 95.7625889,236.26839 103.5,234.459239 L103.5,168.540761 C95.7625889,166.73161 90,159.788767 90,151.5 C90,143.211233 95.7625889,136.26839 103.5,134.459239 L103.5,67.5407611 Z" id="path-6"></path>
        <filter x="-50%" y="-50%" width="200%" height="200%" filterUnits="objectBoundingBox" id="filter-7">
            <feOffset dx="0" dy="2" in="SourceAlpha" result="shadowOffsetOuter1"></feOffset>
            <feGaussianBlur stdDeviation="2" in="shadowOffsetOuter1" result="shadowBlurOuter1"></feGaussianBlur>
            <feColorMatrix values="0 0 0 0 0   0 0 0 0 0   0 0 0 0 0  0 0 0 0.5 0" type="matrix" in="shadowBlurOuter1"></feColorMatrix>
        </filter>
        <path d="M107.5,264 C114.403559,264 120,258.403559 120,251.5 C120,244.596441 114.403559,239 107.5,239 C100.596441,239 95,244.596441 95,251.5 C95,258.403559 100.596441,264 107.5,264 Z" id="path-8"></path>
        <filter x="-50%" y="-50%" width="200%" height="200%" filterUnits="objectBoundingBox" id="filter-9">
            <feGaussianBlur stdDeviation="1.5" in="SourceAlpha" result="shadowBlurInner1"></feGaussianBlur>
            <feOffset dx="0" dy="0" in="shadowBlurInner1" result="shadowOffsetInner1"></feOffset>
            <feComposite in="shadowOffsetInner1" in2="SourceAlpha" operator="arithmetic" k2="-1" k3="1" result="shadowInnerInner1"></feComposite>
            <feColorMatrix values="0 0 0 0 0   0 0 0 0 0   0 0 0 0 0  0 0 0 0.246574955 0" type="matrix" in="shadowInnerInner1"></feColorMatrix>
        </filter>
    </defs>
    <g id="Page-1" stroke="none" stroke-width="1" fill="none" fill-rule="evenodd">
        <g id="Parabéns-Nova-linha" transform="translate(-72.000000, -297.000000)">
            <g id="Group-2" transform="translate(72.000000, 297.000000)">
                <g id="Oval-6" transform="translate(107.500000, 255.500000) scale(1, -1) rotate(-360.000000) translate(-107.500000, -255.500000) " stroke-width="2">
                    <use stroke="url(#linearGradient-1)" mask="url(#mask-4)" fill="#FAFAFA" fill-rule="evenodd" xlink:href="#path-3"></use>
                    <use stroke="url(#linearGradient-2)" mask="url(#mask-5)" xlink:href="#path-3"></use>
                </g>
                <g id="Combined-Shape">
                    <use fill="black" fill-opacity="1" filter="url(#filter-7)" xlink:href="#path-6"></use>
                    <use fill="#FFFFFF" fill-rule="evenodd" xlink:href="#path-6"></use>
                </g>
                <polygon id="Rectangle-147" fill="#D0011B" transform="translate(107.500000, 100.500000) rotate(-270.000000) translate(-107.500000, -100.500000) " points="69 99 146 99 146 102 69 102"></polygon>
                <path d="M107.5,164 C114.403559,164 120,158.403559 120,151.5 C120,144.596441 114.403559,139 107.5,139 C100.596441,139 95,144.596441 95,151.5 C95,158.403559 100.596441,164 107.5,164 Z" id="Oval-10" stroke="#D0011B" stroke-width="3" transform="translate(107.500000, 151.500000) rotate(-270.000000) translate(-107.500000, -151.500000) "></path>
                <g id="Oval-10" transform="translate(107.500000, 251.500000) rotate(-270.000000) translate(-107.500000, -251.500000) ">
                    <use fill="#FFFFFF" fill-rule="evenodd" xlink:href="#path-8"></use>
                    <use fill="black" fill-opacity="1" filter="url(#filter-9)" xlink:href="#path-8"></use>
                </g>
                <g id="Group" transform="translate(107.500000, 50.500000) rotate(-270.000000) translate(-107.500000, -50.500000) translate(95.000000, 38.000000)">
                    <circle id="Oval-6" fill="#D0011B" transform="translate(12.500000, 12.500000) scale(1, -1) translate(-12.500000, -12.500000) " cx="12.5" cy="12.5" r="5.5"></circle>
                    <path d="M12.5,25 C19.4035594,25 25,19.4035594 25,12.5 C25,5.59644063 19.4035594,-5.32907052e-14 12.5,-5.32907052e-14 C5.59644063,-5.32907052e-14 0,5.59644063 0,12.5 C0,19.4035594 5.59644063,25 12.5,25 Z" id="Oval-10" stroke="#D0011B" stroke-width="3"></path>
                </g>
                <path d="M38.808,40.16 C38.808,38.224 37.4,36.608 35.048,36.608 L30.632,36.608 L30.632,48 L32.856,48 L32.856,43.712 L35.048,43.712 C37.4,43.712 38.808,42.096 38.808,40.16 L38.808,40.16 Z M36.584,40.16 C36.584,41.088 35.944,41.712 34.936,41.712 L32.856,41.712 L32.856,38.592 L34.936,38.592 C35.944,38.592 36.584,39.232 36.584,40.16 L36.584,40.16 Z M47.208,44.48 L47.208,43.552 C47.208,41.264 45.896,39.568 43.576,39.568 C41.416,39.568 39.944,41.104 39.944,43.824 C39.944,47.2 41.832,48.096 43.8,48.096 C45.304,48.096 46.12,47.632 46.968,46.784 L45.704,45.552 C45.176,46.08 44.728,46.336 43.816,46.336 C42.648,46.336 41.992,45.552 41.992,44.48 L47.208,44.48 Z M45.16,43.056 L41.992,43.056 C42.008,42.688 42.056,42.464 42.184,42.16 C42.408,41.664 42.872,41.296 43.576,41.296 C44.28,41.296 44.744,41.664 44.968,42.16 C45.096,42.464 45.144,42.688 45.16,43.056 L45.16,43.056 Z M55.768,48 L55.768,36.608 L53.688,36.608 L53.688,40.4 C53.144,39.792 52.504,39.568 51.656,39.568 C50.84,39.568 50.088,39.856 49.624,40.32 C48.792,41.152 48.776,42.576 48.776,43.824 C48.776,45.072 48.792,46.512 49.624,47.344 C50.088,47.808 50.856,48.096 51.672,48.096 C52.552,48.096 53.16,47.856 53.736,47.216 L53.736,48 L55.768,48 Z M53.688,43.824 C53.688,45.184 53.512,46.224 52.264,46.224 C51.016,46.224 50.856,45.184 50.856,43.824 C50.856,42.464 51.016,41.44 52.264,41.44 C53.512,41.44 53.688,42.464 53.688,43.824 L53.688,43.824 Z M60.2,38.24 L60.2,36.544 L58.072,36.544 L58.072,38.24 L60.2,38.24 Z M60.184,48 L60.184,39.664 L58.104,39.664 L58.104,48 L60.184,48 Z M69.144,48 L69.144,36.608 L67.064,36.608 L67.064,40.4 C66.52,39.792 65.88,39.568 65.032,39.568 C64.216,39.568 63.464,39.856 63,40.32 C62.168,41.152 62.152,42.576 62.152,43.824 C62.152,45.072 62.168,46.512 63,47.344 C63.464,47.808 64.232,48.096 65.048,48.096 C65.928,48.096 66.536,47.856 67.112,47.216 L67.112,48 L69.144,48 Z M67.064,43.824 C67.064,45.184 66.888,46.224 65.64,46.224 C64.392,46.224 64.232,45.184 64.232,43.824 C64.232,42.464 64.392,41.44 65.64,41.44 C66.888,41.44 67.064,42.464 67.064,43.824 L67.064,43.824 Z M78.184,43.824 C78.184,42.32 77.992,41.376 77.24,40.592 C76.728,40.048 75.88,39.568 74.648,39.568 C73.416,39.568 72.584,40.048 72.072,40.592 C71.32,41.376 71.128,42.32 71.128,43.824 C71.128,45.344 71.32,46.288 72.072,47.072 C72.584,47.616 73.416,48.096 74.648,48.096 C75.88,48.096 76.728,47.616 77.24,47.072 C77.992,46.288 78.184,45.344 78.184,43.824 L78.184,43.824 Z M76.104,43.824 C76.104,44.688 76.056,45.424 75.624,45.856 C75.384,46.096 75.064,46.224 74.648,46.224 C74.232,46.224 73.928,46.096 73.688,45.856 C73.256,45.424 73.208,44.688 73.208,43.824 C73.208,42.96 73.256,42.24 73.688,41.808 C73.928,41.568 74.232,41.44 74.648,41.44 C75.064,41.44 75.384,41.568 75.624,41.808 C76.056,42.24 76.104,42.96 76.104,43.824 L76.104,43.824 Z M17.72,66 L15.176,61.088 C16.28,60.688 17.256,59.696 17.256,58.096 C17.256,56.192 15.88,54.608 13.56,54.608 L9.096,54.608 L9.096,66 L11.32,66 L11.32,61.456 L12.92,61.456 L15.144,66 L17.72,66 Z M15.032,58.096 C15.032,58.976 14.392,59.6 13.416,59.6 L11.32,59.6 L11.32,56.592 L13.416,56.592 C14.392,56.592 15.032,57.216 15.032,58.096 L15.032,58.096 Z M26.248,62.48 L26.248,61.552 C26.248,59.264 24.936,57.568 22.616,57.568 C20.456,57.568 18.984,59.104 18.984,61.824 C18.984,65.2 20.872,66.096 22.84,66.096 C24.344,66.096 25.16,65.632 26.008,64.784 L24.744,63.552 C24.216,64.08 23.768,64.336 22.856,64.336 C21.688,64.336 21.032,63.552 21.032,62.48 L26.248,62.48 Z M24.2,61.056 L21.032,61.056 C21.048,60.688 21.096,60.464 21.224,60.16 C21.448,59.664 21.912,59.296 22.616,59.296 C23.32,59.296 23.784,59.664 24.008,60.16 C24.136,60.464 24.184,60.688 24.2,61.056 L24.2,61.056 Z M34.472,66 L34.472,60.512 C34.472,58.56 33.256,57.568 30.92,57.568 C29.528,57.568 28.728,57.824 27.912,58.72 L29.24,60.016 C29.672,59.52 30.04,59.328 30.84,59.328 C31.944,59.328 32.392,59.728 32.392,60.64 L32.392,61.056 L30.424,61.056 C28.488,61.056 27.576,62.144 27.576,63.472 C27.576,64.208 27.816,64.88 28.264,65.344 C28.76,65.84 29.448,66.08 30.392,66.08 C31.352,66.08 31.88,65.84 32.44,65.28 L32.44,66 L34.472,66 Z M32.392,62.928 C32.392,63.44 32.312,63.776 32.088,63.984 C31.72,64.336 31.352,64.384 30.776,64.384 C29.96,64.384 29.576,64 29.576,63.424 C29.576,62.832 29.992,62.48 30.744,62.48 L32.392,62.48 L32.392,62.928 Z M40.248,66 L40.248,64.24 L39.448,64.24 C38.92,64.24 38.712,63.984 38.712,63.488 L38.712,54.608 L36.632,54.608 L36.632,63.616 C36.632,64.8 37.352,66 39.064,66 L40.248,66 Z M44.008,56.24 L44.008,54.544 L41.88,54.544 L41.88,56.24 L44.008,56.24 Z M43.992,66 L43.992,57.664 L41.912,57.664 L41.912,66 L43.992,66 Z M52.088,66 L52.088,64.128 L48.344,64.128 L52.088,59.248 L52.088,57.664 L45.944,57.664 L45.944,59.536 L49.432,59.536 L45.736,64.416 L45.736,66 L52.088,66 Z M60.264,66 L60.264,60.512 C60.264,58.56 59.048,57.568 56.712,57.568 C55.32,57.568 54.52,57.824 53.704,58.72 L55.032,60.016 C55.464,59.52 55.832,59.328 56.632,59.328 C57.736,59.328 58.184,59.728 58.184,60.64 L58.184,61.056 L56.216,61.056 C54.28,61.056 53.368,62.144 53.368,63.472 C53.368,64.208 53.608,64.88 54.056,65.344 C54.552,65.84 55.24,66.08 56.184,66.08 C57.144,66.08 57.672,65.84 58.232,65.28 L58.232,66 L60.264,66 Z M58.184,62.928 C58.184,63.44 58.104,63.776 57.88,63.984 C57.512,64.336 57.144,64.384 56.568,64.384 C55.752,64.384 55.368,64 55.368,63.424 C55.368,62.832 55.784,62.48 56.536,62.48 L58.184,62.48 L58.184,62.928 Z M69.144,66 L69.144,54.608 L67.064,54.608 L67.064,58.4 C66.52,57.792 65.88,57.568 65.032,57.568 C64.216,57.568 63.464,57.856 63,58.32 C62.168,59.152 62.152,60.576 62.152,61.824 C62.152,63.072 62.168,64.512 63,65.344 C63.464,65.808 64.232,66.096 65.048,66.096 C65.928,66.096 66.536,65.856 67.112,65.216 L67.112,66 L69.144,66 Z M67.064,61.824 C67.064,63.184 66.888,64.224 65.64,64.224 C64.392,64.224 64.232,63.184 64.232,61.824 C64.232,60.464 64.392,59.44 65.64,59.44 C66.888,59.44 67.064,60.464 67.064,61.824 L67.064,61.824 Z M78.184,61.824 C78.184,60.32 77.992,59.376 77.24,58.592 C76.728,58.048 75.88,57.568 74.648,57.568 C73.416,57.568 72.584,58.048 72.072,58.592 C71.32,59.376 71.128,60.32 71.128,61.824 C71.128,63.344 71.32,64.288 72.072,65.072 C72.584,65.616 73.416,66.096 74.648,66.096 C75.88,66.096 76.728,65.616 77.24,65.072 C77.992,64.288 78.184,63.344 78.184,61.824 L78.184,61.824 Z M76.104,61.824 C76.104,62.688 76.056,63.424 75.624,63.856 C75.384,64.096 75.064,64.224 74.648,64.224 C74.232,64.224 73.928,64.096 73.688,63.856 C73.256,63.424 73.208,62.688 73.208,61.824 C73.208,60.96 73.256,60.24 73.688,59.808 C73.928,59.568 74.232,59.44 74.648,59.44 C75.064,59.44 75.384,59.568 75.624,59.808 C76.056,60.24 76.104,60.96 76.104,61.824 L76.104,61.824 Z" id="Pedido" fill="#D0011B"></path>
                <path d="M64.875278,0.336493141 C64.4266205,-0.11216438 63.6995846,-0.11216438 63.2509271,0.336493141 L47.4646663,16.122754 L40.7504507,9.40894753 C40.3017932,8.96029001 39.5746551,8.96029001 39.1260998,9.40894753 L35.3364931,13.1984519 C34.8878356,13.6471095 34.8878356,14.3742476 35.3364931,14.8228028 L46.6525419,26.1384426 C46.876615,26.3629247 47.1706406,26.4752169 47.4646663,26.4752169 C47.7586919,26.4752169 48.0527175,26.3629247 48.2767906,26.1384426 L68.6648847,5.75034845 C68.8801626,5.53507056 69.00125,5.24268126 69.00125,4.93822413 C69.00125,4.633767 68.8801626,4.3413777 68.6648847,4.12609981 L64.875278,0.336493141 Z" id="Fill-1" fill="#D0011B"></path>
                <path d="M23.672,249 L19.512,237.608 L17.768,237.608 L13.624,249 L15.944,249 L16.632,246.984 L20.68,246.984 L21.352,249 L23.672,249 Z M20.088,245.112 L17.256,245.112 L18.696,240.968 L20.088,245.112 Z M28.664,249 L28.664,247.24 L27.912,247.24 C27.416,247.24 27.192,246.968 27.192,246.488 L27.192,242.488 L28.664,242.488 L28.664,240.904 L27.192,240.904 L27.192,238.44 L25.112,238.44 L25.112,240.904 L24.232,240.904 L24.232,242.488 L25.112,242.488 L25.112,246.616 C25.112,247.8 25.832,249 27.528,249 L28.664,249 Z M32.648,239.24 L32.648,237.544 L30.52,237.544 L30.52,239.24 L32.648,239.24 Z M32.632,249 L32.632,240.664 L30.552,240.664 L30.552,249 L32.632,249 Z M41.608,240.664 L39.416,240.664 L37.736,245.816 L36.04,240.664 L33.848,240.664 L36.92,249 L38.552,249 L41.608,240.664 Z M48.984,249 L48.984,243.512 C48.984,241.56 47.768,240.568 45.432,240.568 C44.04,240.568 43.24,240.824 42.424,241.72 L43.752,243.016 C44.184,242.52 44.552,242.328 45.352,242.328 C46.456,242.328 46.904,242.728 46.904,243.64 L46.904,244.056 L44.936,244.056 C43,244.056 42.088,245.144 42.088,246.472 C42.088,247.208 42.328,247.88 42.776,248.344 C43.272,248.84 43.96,249.08 44.904,249.08 C45.864,249.08 46.392,248.84 46.952,248.28 L46.952,249 L48.984,249 Z M46.904,245.928 C46.904,246.44 46.824,246.776 46.6,246.984 C46.232,247.336 45.864,247.384 45.288,247.384 C44.472,247.384 44.088,247 44.088,246.424 C44.088,245.832 44.504,245.48 45.256,245.48 L46.904,245.48 L46.904,245.928 Z M57.288,247.96 L55.88,246.568 C55.448,247.032 55.08,247.224 54.536,247.224 C54.04,247.224 53.656,247.048 53.352,246.68 C53.032,246.28 52.888,245.704 52.888,244.824 C52.888,243.944 53.032,243.384 53.352,242.984 C53.656,242.616 54.04,242.44 54.536,242.44 C55.08,242.44 55.448,242.632 55.88,243.096 L57.288,241.688 C56.552,240.92 55.688,240.568 54.536,240.568 C52.872,240.568 50.808,241.448 50.808,244.824 C50.808,248.2 52.872,249.096 54.536,249.096 C55.688,249.096 56.552,248.728 57.288,247.96 L57.288,247.96 Z M55.256,249.96 L53.72,249.96 L52.616,252.296 L54.552,252.296 L55.256,249.96 Z M65.24,249 L65.24,243.512 C65.24,241.56 64.024,240.568 61.688,240.568 C60.296,240.568 59.496,240.824 58.68,241.72 L60.008,243.016 C60.44,242.52 60.808,242.328 61.608,242.328 C62.712,242.328 63.16,242.728 63.16,243.64 L63.16,244.056 L61.192,244.056 C59.256,244.056 58.344,245.144 58.344,246.472 C58.344,247.208 58.584,247.88 59.032,248.344 C59.528,248.84 60.216,249.08 61.16,249.08 C62.12,249.08 62.648,248.84 63.208,248.28 L63.208,249 L65.24,249 Z M63.16,245.928 C63.16,246.44 63.08,246.776 62.856,246.984 C62.488,247.336 62.12,247.384 61.544,247.384 C60.728,247.384 60.344,247 60.344,246.424 C60.344,245.832 60.76,245.48 61.512,245.48 L63.16,245.48 L63.16,245.928 Z M64.824,238.216 L63.896,237.304 C63.48,237.72 63.224,237.768 62.952,237.768 C62.632,237.768 62.392,237.672 62.072,237.48 C61.624,237.208 61.32,237.112 60.84,237.112 C60.216,237.112 59.752,237.352 59.048,238.056 L59.944,238.968 C60.36,238.552 60.616,238.504 60.888,238.504 C61.208,238.504 61.48,238.616 61.784,238.792 C62.232,239.048 62.552,239.16 63.016,239.16 C63.624,239.16 64.12,238.92 64.824,238.216 L64.824,238.216 Z M74.184,244.824 C74.184,243.32 73.992,242.376 73.24,241.592 C72.728,241.048 71.88,240.568 70.648,240.568 C69.416,240.568 68.584,241.048 68.072,241.592 C67.32,242.376 67.128,243.32 67.128,244.824 C67.128,246.344 67.32,247.288 68.072,248.072 C68.584,248.616 69.416,249.096 70.648,249.096 C71.88,249.096 72.728,248.616 73.24,248.072 C73.992,247.288 74.184,246.344 74.184,244.824 L74.184,244.824 Z M72.104,244.824 C72.104,245.688 72.056,246.424 71.624,246.856 C71.384,247.096 71.064,247.224 70.648,247.224 C70.232,247.224 69.928,247.096 69.688,246.856 C69.256,246.424 69.208,245.688 69.208,244.824 C69.208,243.96 69.256,243.24 69.688,242.808 C69.928,242.568 70.232,242.44 70.648,242.44 C71.064,242.44 71.384,242.568 71.624,242.808 C72.056,243.24 72.104,243.96 72.104,244.824 L72.104,244.824 Z M21.16,267 L21.16,255.608 L19.08,255.608 L19.08,259.4 C18.536,258.792 17.896,258.568 17.048,258.568 C16.232,258.568 15.48,258.856 15.016,259.32 C14.184,260.152 14.168,261.576 14.168,262.824 C14.168,264.072 14.184,265.512 15.016,266.344 C15.48,266.808 16.248,267.096 17.064,267.096 C17.944,267.096 18.552,266.856 19.128,266.216 L19.128,267 L21.16,267 Z M19.08,262.824 C19.08,264.184 18.904,265.224 17.656,265.224 C16.408,265.224 16.248,264.184 16.248,262.824 C16.248,261.464 16.408,260.44 17.656,260.44 C18.904,260.44 19.08,261.464 19.08,262.824 L19.08,262.824 Z M29.8,267 L29.8,261.512 C29.8,259.56 28.584,258.568 26.248,258.568 C24.856,258.568 24.056,258.824 23.24,259.72 L24.568,261.016 C25,260.52 25.368,260.328 26.168,260.328 C27.272,260.328 27.72,260.728 27.72,261.64 L27.72,262.056 L25.752,262.056 C23.816,262.056 22.904,263.144 22.904,264.472 C22.904,265.208 23.144,265.88 23.592,266.344 C24.088,266.84 24.776,267.08 25.72,267.08 C26.68,267.08 27.208,266.84 27.768,266.28 L27.768,267 L29.8,267 Z M27.72,263.928 C27.72,264.44 27.64,264.776 27.416,264.984 C27.048,265.336 26.68,265.384 26.104,265.384 C25.288,265.384 24.904,265 24.904,264.424 C24.904,263.832 25.32,263.48 26.072,263.48 L27.72,263.48 L27.72,263.928 Z M43.304,267 L43.304,265.016 L38.136,265.016 L38.136,255.608 L35.912,255.608 L35.912,267 L43.304,267 Z M47.048,257.24 L47.048,255.544 L44.92,255.544 L44.92,257.24 L47.048,257.24 Z M47.032,267 L47.032,258.664 L44.952,258.664 L44.952,267 L47.032,267 Z M56.28,267 L56.28,261.672 C56.28,260.76 56.104,259.976 55.432,259.304 C54.968,258.84 54.296,258.568 53.464,258.568 C52.696,258.568 51.928,258.856 51.384,259.432 L51.384,258.664 L49.352,258.664 L49.352,267 L51.432,267 L51.432,261.96 C51.432,260.824 52.168,260.44 52.824,260.44 C53.48,260.44 54.2,260.824 54.2,261.96 L54.2,267 L56.28,267 Z M65.384,267 L65.384,261.608 C65.384,259.848 64.424,258.568 62.6,258.568 C61.864,258.568 61.16,258.856 60.6,259.432 L60.6,255.608 L58.52,255.608 L58.52,267 L60.6,267 L60.6,261.912 C60.6,260.824 61.288,260.44 61.944,260.44 C62.6,260.44 63.304,260.808 63.304,261.912 L63.304,267 L65.384,267 Z M73.928,267 L73.928,261.512 C73.928,259.56 72.712,258.568 70.376,258.568 C68.984,258.568 68.184,258.824 67.368,259.72 L68.696,261.016 C69.128,260.52 69.496,260.328 70.296,260.328 C71.4,260.328 71.848,260.728 71.848,261.64 L71.848,262.056 L69.88,262.056 C67.944,262.056 67.032,263.144 67.032,264.472 C67.032,265.208 67.272,265.88 67.72,266.344 C68.216,266.84 68.904,267.08 69.848,267.08 C70.808,267.08 71.336,266.84 71.896,266.28 L71.896,267 L73.928,267 Z M71.848,263.928 C71.848,264.44 71.768,264.776 71.544,264.984 C71.176,265.336 70.808,265.384 70.232,265.384 C69.416,265.384 69.032,265 69.032,264.424 C69.032,263.832 69.448,263.48 70.2,263.48 L71.848,263.48 L71.848,263.928 Z" id="Ativação" fill="#4A4A4A" transform="translate(44.312000, 252.104000) rotate(-360.000000) translate(-44.312000, -252.104000) "></path>
                <path d="M27.824,151 L23.664,139.608 L21.92,139.608 L17.776,151 L20.096,151 L20.784,148.984 L24.832,148.984 L25.504,151 L27.824,151 Z M24.24,147.112 L21.408,147.112 L22.848,142.968 L24.24,147.112 Z M36,151 L36,145.672 C36,144.76 35.824,143.976 35.152,143.304 C34.688,142.84 34.016,142.568 33.184,142.568 C32.416,142.568 31.648,142.856 31.104,143.432 L31.104,142.664 L29.072,142.664 L29.072,151 L31.152,151 L31.152,145.96 C31.152,144.824 31.888,144.44 32.544,144.44 C33.2,144.44 33.92,144.824 33.92,145.96 L33.92,151 L36,151 Z M44.544,151 L44.544,145.512 C44.544,143.56 43.328,142.568 40.992,142.568 C39.6,142.568 38.8,142.824 37.984,143.72 L39.312,145.016 C39.744,144.52 40.112,144.328 40.912,144.328 C42.016,144.328 42.464,144.728 42.464,145.64 L42.464,146.056 L40.496,146.056 C38.56,146.056 37.648,147.144 37.648,148.472 C37.648,149.208 37.888,149.88 38.336,150.344 C38.832,150.84 39.52,151.08 40.464,151.08 C41.424,151.08 41.952,150.84 42.512,150.28 L42.512,151 L44.544,151 Z M42.464,147.928 C42.464,148.44 42.384,148.776 42.16,148.984 C41.792,149.336 41.424,149.384 40.848,149.384 C40.032,149.384 39.648,149 39.648,148.424 C39.648,147.832 40.064,147.48 40.816,147.48 L42.464,147.48 L42.464,147.928 Z M43.584,138.616 L41.392,138.616 L40.368,141.336 L41.76,141.336 L43.584,138.616 Z M50.32,151 L50.32,149.24 L49.52,149.24 C48.992,149.24 48.784,148.984 48.784,148.488 L48.784,139.608 L46.704,139.608 L46.704,148.616 C46.704,149.8 47.424,151 49.136,151 L50.32,151 Z M54.08,141.24 L54.08,139.544 L51.952,139.544 L51.952,141.24 L54.08,141.24 Z M54.064,151 L54.064,142.664 L51.984,142.664 L51.984,151 L54.064,151 Z M62.656,148.376 C62.656,146.968 61.824,146.088 60.176,145.928 L58.864,145.8 C58.128,145.736 58,145.384 58,145.08 C58,144.664 58.352,144.28 59.184,144.28 C59.904,144.28 60.64,144.408 61.12,144.84 L62.4,143.544 C61.6,142.792 60.512,142.568 59.216,142.568 C57.52,142.568 56,143.496 56,145.224 C56,146.76 56.928,147.416 58.432,147.56 L59.744,147.688 C60.4,147.752 60.624,148.04 60.624,148.456 C60.624,149.08 59.872,149.32 59.152,149.32 C58.512,149.32 57.616,149.224 56.928,148.536 L55.568,149.896 C56.624,150.952 57.808,151.096 59.12,151.096 C61.088,151.096 62.656,150.216 62.656,148.376 L62.656,148.376 Z M71.248,147.48 L71.248,146.552 C71.248,144.264 69.936,142.568 67.616,142.568 C65.456,142.568 63.984,144.104 63.984,146.824 C63.984,150.2 65.872,151.096 67.84,151.096 C69.344,151.096 70.16,150.632 71.008,149.784 L69.744,148.552 C69.216,149.08 68.768,149.336 67.856,149.336 C66.688,149.336 66.032,148.552 66.032,147.48 L71.248,147.48 Z M69.2,146.056 L66.032,146.056 C66.048,145.688 66.096,145.464 66.224,145.16 C66.448,144.664 66.912,144.296 67.616,144.296 C68.32,144.296 68.784,144.664 69.008,145.16 C69.136,145.464 69.184,145.688 69.2,146.056 L69.2,146.056 Z M7.472,169 L7.472,157.608 L5.392,157.608 L5.392,161.4 C4.848,160.792 4.208,160.568 3.36,160.568 C2.544,160.568 1.792,160.856 1.328,161.32 C0.496,162.152 0.48,163.576 0.48,164.824 C0.48,166.072 0.496,167.512 1.328,168.344 C1.792,168.808 2.56,169.096 3.376,169.096 C4.256,169.096 4.864,168.856 5.44,168.216 L5.44,169 L7.472,169 Z M5.392,164.824 C5.392,166.184 5.216,167.224 3.968,167.224 C2.72,167.224 2.56,166.184 2.56,164.824 C2.56,163.464 2.72,162.44 3.968,162.44 C5.216,162.44 5.392,163.464 5.392,164.824 L5.392,164.824 Z M16.656,165.48 L16.656,164.552 C16.656,162.264 15.344,160.568 13.024,160.568 C10.864,160.568 9.392,162.104 9.392,164.824 C9.392,168.2 11.28,169.096 13.248,169.096 C14.752,169.096 15.568,168.632 16.416,167.784 L15.152,166.552 C14.624,167.08 14.176,167.336 13.264,167.336 C12.096,167.336 11.44,166.552 11.44,165.48 L16.656,165.48 Z M14.608,164.056 L11.44,164.056 C11.456,163.688 11.504,163.464 11.632,163.16 C11.856,162.664 12.32,162.296 13.024,162.296 C13.728,162.296 14.192,162.664 14.416,163.16 C14.544,163.464 14.592,163.688 14.608,164.056 L14.608,164.056 Z M28.352,167.96 L26.944,166.568 C26.512,167.032 26.144,167.224 25.6,167.224 C25.104,167.224 24.72,167.048 24.416,166.68 C24.096,166.28 23.952,165.704 23.952,164.824 C23.952,163.944 24.096,163.384 24.416,162.984 C24.72,162.616 25.104,162.44 25.6,162.44 C26.144,162.44 26.512,162.632 26.944,163.096 L28.352,161.688 C27.616,160.92 26.752,160.568 25.6,160.568 C23.936,160.568 21.872,161.448 21.872,164.824 C21.872,168.2 23.936,169.096 25.6,169.096 C26.752,169.096 27.616,168.728 28.352,167.96 L28.352,167.96 Z M36.064,161.352 C35.488,160.776 34.912,160.568 34.096,160.568 C33.2,160.568 32.4,160.984 32,161.464 L32,160.664 L29.968,160.664 L29.968,169 L32.048,169 L32.048,163.976 C32.048,162.92 32.752,162.44 33.392,162.44 C33.904,162.44 34.176,162.616 34.496,162.936 L36.064,161.352 Z M43.6,165.48 L43.6,164.552 C43.6,162.264 42.288,160.568 39.968,160.568 C37.808,160.568 36.336,162.104 36.336,164.824 C36.336,168.2 38.224,169.096 40.192,169.096 C41.696,169.096 42.512,168.632 43.36,167.784 L42.096,166.552 C41.568,167.08 41.12,167.336 40.208,167.336 C39.04,167.336 38.384,166.552 38.384,165.48 L43.6,165.48 Z M41.552,164.056 L38.384,164.056 C38.4,163.688 38.448,163.464 38.576,163.16 C38.8,162.664 39.264,162.296 39.968,162.296 C40.672,162.296 41.136,162.664 41.36,163.16 C41.488,163.464 41.536,163.688 41.552,164.056 L41.552,164.056 Z M42.352,156.616 L40.16,156.616 L39.136,159.336 L40.528,159.336 L42.352,156.616 Z M52.16,169 L52.16,157.608 L50.08,157.608 L50.08,161.4 C49.536,160.792 48.896,160.568 48.048,160.568 C47.232,160.568 46.48,160.856 46.016,161.32 C45.184,162.152 45.168,163.576 45.168,164.824 C45.168,166.072 45.184,167.512 46.016,168.344 C46.48,168.808 47.248,169.096 48.064,169.096 C48.944,169.096 49.552,168.856 50.128,168.216 L50.128,169 L52.16,169 Z M50.08,164.824 C50.08,166.184 49.904,167.224 48.656,167.224 C47.408,167.224 47.248,166.184 47.248,164.824 C47.248,163.464 47.408,162.44 48.656,162.44 C49.904,162.44 50.08,163.464 50.08,164.824 L50.08,164.824 Z M56.592,159.24 L56.592,157.544 L54.464,157.544 L54.464,159.24 L56.592,159.24 Z M56.576,169 L56.576,160.664 L54.496,160.664 L54.496,169 L56.576,169 Z M62.64,169 L62.64,167.24 L61.888,167.24 C61.392,167.24 61.168,166.968 61.168,166.488 L61.168,162.488 L62.64,162.488 L62.64,160.904 L61.168,160.904 L61.168,158.44 L59.088,158.44 L59.088,160.904 L58.208,160.904 L58.208,162.488 L59.088,162.488 L59.088,166.616 C59.088,167.8 59.808,169 61.504,169 L62.64,169 Z M71.184,164.824 C71.184,163.32 70.992,162.376 70.24,161.592 C69.728,161.048 68.88,160.568 67.648,160.568 C66.416,160.568 65.584,161.048 65.072,161.592 C64.32,162.376 64.128,163.32 64.128,164.824 C64.128,166.344 64.32,167.288 65.072,168.072 C65.584,168.616 66.416,169.096 67.648,169.096 C68.88,169.096 69.728,168.616 70.24,168.072 C70.992,167.288 71.184,166.344 71.184,164.824 L71.184,164.824 Z M69.104,164.824 C69.104,165.688 69.056,166.424 68.624,166.856 C68.384,167.096 68.064,167.224 67.648,167.224 C67.232,167.224 66.928,167.096 66.688,166.856 C66.256,166.424 66.208,165.688 66.208,164.824 C66.208,163.96 66.256,163.24 66.688,162.808 C66.928,162.568 67.232,162.44 67.648,162.44 C68.064,162.44 68.384,162.568 68.624,162.808 C69.056,163.24 69.104,163.96 69.104,164.824 L69.104,164.824 Z" id="Análise" fill="#4A4A4A" transform="translate(36.240000, 153.856000) rotate(-360.000000) translate(-36.240000, -153.856000) "></path>
            </g>
        </g>
    </g>
</svg>