<?xml version="1.0" encoding="UTF-8" standalone="no"?>
<svg width="20px" height="20px" viewBox="0 0 20 20" version="1.1" xmlns="http://www.w3.org/2000/svg" xmlns:xlink="http://www.w3.org/1999/xlink">
    <!-- Generator: Sketch 3.8.3 (29802) - http://www.bohemiancoding.com/sketch -->
    <title>up-arrow</title>
    <desc>Created with Sketch.</desc>
    <defs>
        <polygon id="path-1" points="0.0230769231 0.307692308 0.0230769231 19.9996154 19.6919231 19.9996154 19.6919231 0.307692308 0.0230769231 0.307692308"></polygon>
    </defs>
    <g id="Symbols" stroke="none" stroke-width="1" fill="none" fill-rule="evenodd">
        <g id="Arrow">
            <g id="up-arrow" transform="translate(10.000000, 10.000000) rotate(-90.000000) translate(-10.000000, -10.000000) ">
                <mask id="mask-2" fill="white">
                    <use xlink:href="#path-1"></use>
                </mask>
                <g id="Clip-2" transform="translate(9.857500, 10.153654) scale(-1, 1) translate(-9.857500, -10.153654) "></g>
                <path d="M10.2057692,6.46461538 C10.1442308,6.40307692 10.06,6.35038462 9.97730769,6.32038462 C9.75076923,6.23615385 9.49653846,6.29038462 9.32692308,6.46153846 L4.44115385,11.3473077 C4.20076923,11.5876923 4.20076923,11.9769231 4.44115385,12.2173077 C4.68153846,12.4576923 5.07076923,12.4576923 5.31115385,12.2173077 L9.76423077,7.76269231 L14.2219231,12.2203846 C14.3419231,12.3403846 14.4996154,12.4003846 14.6557692,12.4003846 C14.8138462,12.4003846 14.9715385,12.3403846 15.0915385,12.2203846 C15.3319231,11.98 15.3319231,11.5907692 15.0915385,11.3503846 L10.2057692,6.46461538 Z" id="Fill-1" fill="#1D1D1B" mask="url(#mask-2)"></path>
                <path d="M9.84692308,0.307692308 C4.41692308,0.307692308 -7.10542736e-15,4.72461538 -7.10542736e-15,10.1546154 C-7.10542736e-15,15.5826923 4.41692308,19.9996154 9.84692308,19.9996154 C15.275,19.9996154 19.6919231,15.5826923 19.6919231,10.1546154 C19.6919231,4.72461538 15.275,0.307692308 9.84692308,0.307692308 L9.84692308,0.307692308 Z M9.84692308,18.7692308 C5.09615385,18.7692308 1.23038462,14.905 1.23038462,10.1546154 C1.23038462,5.40384615 5.09615385,1.53807692 9.84692308,1.53807692 C14.5973077,1.53807692 18.4615385,5.40384615 18.4615385,10.1546154 C18.4615385,14.905 14.5973077,18.7692308 9.84692308,18.7692308 L9.84692308,18.7692308 Z" id="Fill-3" fill="#1D1D1B" mask="url(#mask-2)"></path>
            </g>
        </g>
    </g>
</svg>