<?xml version="1.0" encoding="UTF-8" standalone="no"?>
<svg width="102px" height="102px" viewBox="0 0 102 102" version="1.1" xmlns="http://www.w3.org/2000/svg" xmlns:xlink="http://www.w3.org/1999/xlink">
    <!-- Generator: Sketch 3.8.3 (29802) - http://www.bohemiancoding.com/sketch -->
    <title>Group</title>
    <desc>Created with Sketch.</desc>
    <defs></defs>
    <g id="Page-1" stroke="none" stroke-width="1" fill="none" fill-rule="evenodd">
        <g id="Planos-Alternativos-Nova-Linha" transform="translate(-461.000000, -303.000000)" fill="#F6A623">
            <g id="Group" transform="translate(461.000000, 303.000000)">
                <path d="M50.996026,0.0079223301 C22.8301169,0.0079223301 0,22.7638252 0,50.8389126 C0,78.9100388 22.8301169,101.670233 50.996026,101.670233 C79.1582922,101.670233 101.992383,78.914 101.992383,50.8389126 C101.992383,22.7638252 79.1582922,0.0079223301 50.996026,0.0079223301 L50.996026,0.0079223301 Z M50.996026,95.3158641 C26.3524286,95.3158641 6.375,75.4027573 6.375,50.8389126 C6.375,26.275068 26.3524286,6.36229126 50.996026,6.36229126 C75.6396234,6.36229126 95.6173831,26.275068 95.6173831,50.8389126 C95.6173831,75.4027573 75.6396234,95.3158641 50.996026,95.3158641 L50.996026,95.3158641 Z" id="Fill-1"></path>
                <path d="M72.4431818,67.585068 L55.6519286,50.8455146 L72.347474,34.3406602 C73.6062468,33.098835 73.6062468,31.0885437 72.347474,29.8493592 C71.0913506,28.6101748 69.0513506,28.6101748 67.7965519,29.8493592 L51.1228636,46.3311068 L34.2021234,29.4614951 C32.946,28.202835 30.9073247,28.202835 29.6512013,29.4614951 C28.3950779,30.7158641 28.3950779,32.7558641 29.6512013,34.0105631 L46.5474351,50.8544272 L29.5554935,67.6507573 C28.2993701,68.8939029 28.2993701,70.9038641 29.5554935,72.1430485 C30.8116169,73.3861942 32.8502922,73.3861942 34.1103896,72.1430485 L51.0788182,55.368835 L67.8949091,72.1301748 C69.1510325,73.388835 71.1897078,73.388835 72.4458312,72.1301748 C73.6993052,70.8794369 73.6993052,68.8420777 72.4431818,67.585068 L72.4431818,67.585068 Z" id="Fill-4"></path>
            </g>
        </g>
    </g>
</svg>