<?xml version="1.0" encoding="UTF-8" standalone="no"?>
<svg width="94px" height="75px" viewBox="0 0 94 75" version="1.1" xmlns="http://www.w3.org/2000/svg" xmlns:xlink="http://www.w3.org/1999/xlink">
    <!-- Generator: Sketch 3.8.3 (29802) - http://www.bohemiancoding.com/sketch -->
    <title>picture</title>
    <desc>Created with Sketch.</desc>
    <defs></defs>
    <g id="Page-1" stroke="none" stroke-width="1" fill="none" fill-rule="evenodd">
        <g id="DOC" transform="translate(-95.000000, -241.000000)" fill="#000000">
            <g id="picture" transform="translate(95.000000, 241.000000)">
                <path d="M92.1742553,0.405263158 L1.61904255,0.405263158 C0.725638298,0.405263158 0,1.13271053 0,2.02834211 L0,73.3526316 C0,74.2462368 0.725638298,74.9757105 1.61904255,74.9757105 L92.1742553,74.9757105 C93.0656383,74.9757105 93.7831915,74.2462368 93.7831915,73.3526316 L93.7831915,2.02834211 C93.7831915,1.13271053 93.0656383,0.405263158 92.1742553,0.405263158 L92.1742553,0.405263158 Z M3.23808511,71.7295526 L90.5552128,71.7295526 L90.5552128,3.65142105 L3.23808511,3.65142105 L3.23808511,71.7295526 Z" id="Fill-1"></path>
                <path d="M25.8743617,36.2933421 C30.8406383,36.2933421 34.8751064,32.2407105 34.8751064,27.2701579 C34.8751064,22.2833947 30.8406383,18.2388684 25.8743617,18.2388684 C20.9080851,18.2388684 16.8655319,22.2833947 16.8655319,27.2620526 C16.8655319,32.2407105 20.9080851,36.2933421 25.8743617,36.2933421 L25.8743617,36.2933421 Z M25.8743617,21.4748947 C29.0558511,21.4748947 31.6451064,24.0726316 31.6451064,27.2620526 C31.6451064,30.4514737 29.0558511,33.0471842 25.8743617,33.0471842 C22.6928723,33.0471842 20.1015957,30.4514737 20.1015957,27.2701579 C20.1015957,24.0807368 22.6928723,21.4748947 25.8743617,21.4748947 L25.8743617,21.4748947 Z" id="Fill-2"></path>
                <path d="M11.3231915,65.2473684 C11.7011702,65.2473684 12.0811702,65.1136316 12.3884043,64.8441316 L38.7680851,41.5658158 L55.4274468,58.2586053 C56.0580851,58.8908158 57.0768085,58.8908158 57.7094681,58.2586053 C58.3401064,57.6243684 58.3401064,56.6031053 57.7094681,55.9708947 L49.9396809,48.1736316 L64.7839362,31.8759737 L82.9915957,48.6092895 C83.6545745,49.2192105 84.6732979,49.1705789 85.2796809,48.5140526 C85.88,47.8494211 85.8335106,46.8281579 85.178617,46.2182368 L65.7703191,28.3866579 C65.455,28.1009474 65.0365957,27.9591053 64.6101064,27.9672105 C64.183617,27.9813947 63.7732979,28.1718684 63.4882979,28.4879737 L47.6495745,45.8778158 L39.9747872,38.192 C39.3744681,37.5841053 38.4042553,37.5597895 37.7655319,38.1210789 L10.2478723,62.4064737 C9.57680851,63.0001842 9.51414894,64.0275263 10.106383,64.7002632 C10.4217021,65.065 10.8724468,65.2473684 11.3231915,65.2473684 L11.3231915,65.2473684 Z" id="Fill-3"></path>
            </g>
        </g>
    </g>
</svg>