<?xml version="1.0" encoding="UTF-8" standalone="no"?>
<svg width="97px" height="97px" viewBox="0 0 97 97" version="1.1" xmlns="http://www.w3.org/2000/svg" xmlns:xlink="http://www.w3.org/1999/xlink">
    <!-- Generator: Sketch 3.8.3 (29802) - http://www.bohemiancoding.com/sketch -->
    <title>Group 6</title>
    <desc>Created with Sketch.</desc>
    <defs></defs>
    <g id="Page-1" stroke="none" stroke-width="1" fill="none" fill-rule="evenodd">
        <g id="TIM-Pré-Parabéns" transform="translate(-464.000000, -377.000000)" fill="#417505">
            <g id="Group-6" transform="translate(464.000000, 377.000000)">
                <g id="Group-5">
                    <path d="M48.0279333,0.942652174 C21.5469333,0.942652174 0,22.4557826 0,48.8973913 C0,75.3368478 21.5469333,96.8499783 48.0279333,96.8499783 C74.5089333,96.8499783 96.0558667,75.3368478 96.0558667,48.8973913 C96.0558667,22.4557826 74.5089333,0.942652174 48.0279333,0.942652174 L48.0279333,0.942652174 Z M48.0279333,89.1150652 C25.8170889,89.1150652 7.73844444,71.0733913 7.73844444,48.8973913 C7.73844444,26.7106304 25.8170889,8.66895652 48.0279333,8.66895652 C70.2409333,8.66895652 88.3109556,26.7192391 88.3109556,48.8973913 C88.3109556,71.0733913 70.2409333,89.1150652 48.0279333,89.1150652 L48.0279333,89.1150652 Z" id="Fill-1"></path>
                </g>
                <path d="M63.3366889,33.6040435 L40.9210667,55.9931087 L32.7127111,47.7954783 C31.2059778,46.2911087 28.7551111,46.2911087 27.2483778,47.7954783 C25.7330222,49.3084565 25.7330222,51.7554783 27.2483778,53.2598478 L38.1856667,64.188587 C38.9422667,64.9375435 39.9273556,65.3163261 40.9210667,65.3163261 C41.9061556,65.3163261 42.8998667,64.9375435 43.6586222,64.188587 L68.8096444,39.068413 C70.325,37.5554348 70.325,35.1170217 68.8096444,33.6040435 C67.3029111,32.0996739 64.8520444,32.0996739 63.3366889,33.6040435 L63.3366889,33.6040435 Z" id="Fill-4"></path>
            </g>
        </g>
    </g>
</svg>