<?xml version="1.0" encoding="UTF-8"?>
<!DOCTYPE svg PUBLIC "-//W3C//DTD SVG 1.1//EN" "http://www.w3.org/Graphics/SVG/1.1/DTD/svg11.dtd">
<!-- Creator: CorelDRAW -->
<?xml-stylesheet href="ICO-Local.css" type="text/css"?>
<svg xmlns="http://www.w3.org/2000/svg" xml:space="preserve" width="0.196661in" height="0.27in" style="shape-rendering:geometricPrecision; text-rendering:geometricPrecision; image-rendering:optimizeQuality; fill-rule:evenodd; clip-rule:evenodd"
viewBox="0 0 0.196661 0.27"
 xmlns:xlink="http://www.w3.org/1999/xlink"
 version="1.1">
 <g id="Layer_x0020_1">
  <metadata id="CorelCorpID_0Corel-Layer"/>
  <g id="_132931600">
   <g id="_129474096">
    <g id="_270079688">
     <g id="Page-1">
      <g id="Home">
       <g id="placeholder-_x0028_1_x0029_">
        <path id="Fill-1" class="fil0" d="M0.099248 0.0592913c-0.0197165,0 -0.0357559,0.0154606 -0.0357559,0.0344567 0,0.0190079 0.0160394,0.0344724 0.0357559,0.0344724 0.0197008,0 0.0357402,-0.0154646 0.0357402,-0.0344724 0,-0.0189961 -0.0160394,-0.0344567 -0.0357402,-0.0344567l0 0zm0 0.0590748c-0.0140866,0 -0.0255354,-0.0110394 -0.0255354,-0.0246181 0,-0.0135669 0.0114488,-0.024622 0.0255354,-0.024622 0.0140709,0 0.0255394,0.0110551 0.0255394,0.024622 0,0.0135787 -0.0114685,0.0246181 -0.0255394,0.0246181l0 0z"/>
        <path id="Fill-3" class="fil0" d="M0.167606 0.0278425c-0.0185039,-0.0178189 -0.0430945,-0.0276575 -0.069248,-0.0276575 -0.026189,0 -0.0507756,0.00983858 -0.0692835,0.0276575 -0.0342126,0.0330118 -0.0384803,0.0950906 -0.00920079,0.132717l0.0784843 0.109256 0.0783268 -0.109106c0.0294055,-0.0377756 0.0251417,-0.0998543 -0.00907874,-0.132866l0 0zm0.000799213 0.127114l-0.0700472 0.0975709 -0.0702047 -0.0977165c-0.0265394,-0.0341378 -0.0227441,-0.0902087 0.00815354,-0.12 0.0165866,-0.0159606 0.0386063,-0.0247638 0.0620512,-0.0247638 0.0234134,0 0.0454331,0.00880315 0.0620197,0.0247638 0.0308937,0.0297913 0.0347126,0.0858622 0.00802756,0.120146l0 0z"/>
       </g>
      </g>
     </g>
    </g>
   </g>
  </g>
 </g>
</svg>
