<?xml version="1.0" encoding="UTF-8" standalone="no"?>
<svg width="38px" height="38px" viewBox="0 0 38 38" version="1.1" xmlns="http://www.w3.org/2000/svg" xmlns:xlink="http://www.w3.org/1999/xlink">
    <!-- Generator: Sketch 3.8.3 (29802) - http://www.bohemiancoding.com/sketch -->
    <title>Fill 1</title>
    <desc>Created with Sketch.</desc>
    <defs></defs>
    <g id="Symbols" stroke="none" stroke-width="1" fill="none" fill-rule="evenodd">
        <g id="Topo" transform="translate(-807.000000, -22.000000)" fill="#FFFFFF">
            <path d="M844.883,40.941 C844.883,30.496 836.387,22 825.941,22 C815.496,22 807,30.496 807,40.941 C807,45.613 808.68,50.015 811.754,53.48 L811.703,53.496 L812.613,54.398 L812.969,54.75 L812.98,54.746 C816.508,58.058 821.086,59.883 825.941,59.883 C830.766,59.883 835.316,58.07 838.832,54.789 L838.859,54.801 L839.211,54.453 L840.133,53.547 L840.082,53.531 C843.184,50.062 844.883,45.637 844.883,40.941 L844.883,40.941 Z M808.602,40.941 C808.602,31.379 816.379,23.601 825.941,23.601 C835.504,23.601 843.281,31.379 843.281,40.941 C843.281,45.465 841.566,49.711 838.438,52.961 L830.992,50.371 L830.992,47.59 C832.68,46.656 833.742,44.879 833.742,42.926 L833.742,32.797 C833.742,29.851 831.348,27.461 828.406,27.461 L823.477,27.461 C820.535,27.461 818.141,29.851 818.141,32.797 L818.141,42.926 C818.141,44.879 819.207,46.656 820.891,47.59 L820.891,50.304 L813.395,52.91 C810.297,49.672 808.602,45.437 808.602,40.941 L808.602,40.941 Z M825.941,58.285 C821.781,58.285 817.84,56.824 814.703,54.148 L822.578,51.41 L822.523,50.789 C822.52,50.73 822.512,50.672 822.504,50.613 C822.496,50.574 822.488,50.535 822.488,50.496 L822.488,46.566 L822.004,46.359 C820.629,45.769 819.742,44.422 819.742,42.926 L819.742,32.797 C819.742,30.992 821.023,29.484 822.727,29.137 C822.969,29.086 823.219,29.058 823.477,29.058 L828.406,29.058 C828.664,29.058 828.914,29.086 829.156,29.137 C830.859,29.484 832.141,30.992 832.141,32.797 L832.141,42.926 C832.141,44.422 831.254,45.765 829.875,46.359 L829.395,46.566 L829.395,50.496 C829.395,50.558 829.383,50.617 829.375,50.679 L829.289,51.472 L837.121,54.195 C833.996,56.84 830.074,58.285 825.941,58.285 L825.941,58.285 Z" id="Fill-1"></path>
        </g>
    </g>
</svg>