<?xml version="1.0" encoding="UTF-8" standalone="no"?>
<svg width="46px" height="40px" viewBox="0 0 46 40" version="1.1" xmlns="http://www.w3.org/2000/svg" xmlns:xlink="http://www.w3.org/1999/xlink">
    <!-- Generator: Sketch 3.8.3 (29802) - http://www.bohemiancoding.com/sketch -->
    <title>photo-camera</title>
    <desc>Created with Sketch.</desc>
    <defs></defs>
    <g id="Page-1" stroke="none" stroke-width="1" fill="none" fill-rule="evenodd">
        <g id="ICCID" transform="translate(-281.000000, -228.000000)" fill="#000000">
            <g id="Group-2" transform="translate(18.000000, 190.000000)">
                <g id="photo-camera" transform="translate(263.000000, 38.000000)">
                    <path d="M43.902254,8.11633028 C42.7128254,6.92073394 41.2766032,6.32293578 39.5954127,6.32293578 L34.2659841,6.32293578 L33.0524603,3.07045872 C32.7501746,2.28917431 32.1996349,1.61541284 31.3982857,1.04770642 C30.5969365,0.48293578 29.7766032,0.198899083 28.9354603,0.198899083 L16.7523968,0.198899083 C15.9108889,0.198899083 15.0894603,0.48293578 14.2895714,1.04770642 C13.4878571,1.61541284 12.9362222,2.28917431 12.6350317,3.07045872 L11.4215079,6.32293578 L6.09244444,6.32293578 C4.40942857,6.32293578 2.97466667,6.92073394 1.78414286,8.11633028 C0.594714286,9.31155963 0,10.7552294 0,12.4451376 L0,33.8774312 C0,35.5673394 0.594714286,37.0110092 1.78414286,38.2066055 C2.97466667,39.4022018 4.40942857,39.999633 6.09244444,39.999633 L39.5954127,39.999633 C41.2766032,39.999633 42.7128254,39.4022018 43.902254,38.2066055 C45.0916825,37.0110092 45.6863968,35.5673394 45.6863968,33.8774312 L45.6863968,12.4451376 C45.6863968,10.7552294 45.0916825,9.31155963 43.902254,8.11633028 L43.902254,8.11633028 Z M30.3742381,30.7324771 C28.2892698,32.8278899 25.7778889,33.8774312 22.8430159,33.8774312 C19.9081429,33.8774312 17.3982222,32.8278899 15.3117937,30.7324771 C13.2257302,28.6352294 12.1830635,26.1108257 12.1830635,23.1622018 C12.1830635,20.2121101 13.2268254,17.6891743 15.3117937,15.5919266 C17.3982222,13.4946789 19.9081429,12.4451376 22.8430159,12.4451376 C25.7778889,12.4451376 28.2878095,13.4946789 30.3742381,15.5919266 C32.4606667,17.6877064 33.5033333,20.2121101 33.5033333,23.1622018 C33.5033333,26.1108257 32.4606667,28.6352294 30.3742381,30.7324771 L30.3742381,30.7324771 Z" id="Fill-1"></path>
                    <path d="M22.8430159,16.2726606 C20.9548254,16.2726606 19.3419048,16.946422 18.0016984,18.293945 C16.661127,19.6414679 15.9908413,21.2642202 15.9908413,23.1622018 C15.9908413,25.0587156 16.661127,26.6811009 18.0016984,28.0286239 C19.3419048,29.3761468 20.9548254,30.0499083 22.8430159,30.0499083 C24.7312063,30.0499083 26.3455873,29.3761468 27.6861587,28.0286239 C29.0267302,26.6811009 29.6970159,25.0587156 29.6970159,23.1622018 C29.6970159,21.2642202 29.0267302,19.6414679 27.6861587,18.293945 C26.3455873,16.946422 24.7312063,16.2726606 22.8430159,16.2726606 L22.8430159,16.2726606 Z" id="Fill-2"></path>
                </g>
            </g>
        </g>
    </g>
</svg>