<?xml version="1.0" encoding="UTF-8" standalone="no"?>
<svg width="13px" height="11px" viewBox="0 0 13 11" version="1.1" xmlns="http://www.w3.org/2000/svg" xmlns:xlink="http://www.w3.org/1999/xlink">
    <!-- Generator: Sketch 3.8.3 (29802) - http://www.bohemiancoding.com/sketch -->
    <title>Fill 1</title>
    <desc>Created with Sketch.</desc>
    <defs></defs>
    <g id="Symbols" stroke="none" stroke-width="1" fill="none" fill-rule="evenodd">
        <g id="BT-PlanosControle-ON" transform="translate(-184.000000, -52.000000)" fill="#0071B3">
            <g id="Group" transform="translate(179.612903, 46.612903)">
                <path d="M8.0769696,14.5066377 L5.76262407,11.94817 C5.51389578,11.6734801 5.09013648,11.6537996 4.81544665,11.900853 C4.54243176,12.1495813 4.5210763,12.5733406 4.76980459,12.8480304 L7.46519851,15.8264888 C7.58788772,16.0065447 7.79223015,16.1112283 8.00997208,16.1112283 C8.03467742,16.1112283 8.05896402,16.1011787 8.08366935,16.0982475 C8.1,16.0995037 8.11800558,16.1095533 8.13433623,16.1095533 C8.33197891,16.1095533 8.52501551,16.0212004 8.65440447,15.8675248 L16.4106234,7.29309864 C16.6593517,7.01840881 16.6379963,6.5946495 16.3633065,6.34592122 C16.0902916,6.09761166 15.6665323,6.11854839 15.417804,6.39365695 L8.0769696,14.5066377 Z" id="Fill-1"></path>
            </g>
        </g>
    </g>
</svg>