<?xml version="1.0" encoding="UTF-8"?>
<!DOCTYPE svg PUBLIC "-//W3C//DTD SVG 1.1//EN" "http://www.w3.org/Graphics/SVG/1.1/DTD/svg11.dtd">
<!-- Creator: CorelDRAW -->
<svg xmlns="http://www.w3.org/2000/svg" xml:space="preserve" width="1.24618in" height="0.326772in" shape-rendering="geometricPrecision" text-rendering="geometricPrecision" image-rendering="optimizeQuality" fill-rule="evenodd" clip-rule="evenodd"
viewBox="0 0 1.24618 0.326772"
 xmlns:xlink="http://www.w3.org/1999/xlink"
 version="1.1">
 <g id="Layer_x0020_1">
  <metadata id="CorelCorpID_0Corel-Layer"/>
  <g id="_133291976">
   <g id="_132931288">
    <g id="_270897416">
     <g id="Symbols">
      <g id="TIM-ON">
       <g id="LogoTIM2">
        <path id="Fill-1" fill="#174977" d="M0.715685 0c0.00659843,0 0.00792126,0.000877953 0.00792126,0.0239685l0 0.0213504c0,0.0222126 -0.00175591,0.0248268 -0.00792126,0.0248268l-0.0747835 0 0 0.249654c0,0.00566142 -0.0070315,0.00697244 -0.0320945,0.00697244l-0.0132008 0c-0.0255157,0 -0.0299134,-0.00131102 -0.0299134,-0.00697244l0 -0.249654 -0.0747756 0c-0.00616535,0 -0.00792126,-0.00173622 -0.00792126,-0.0248268l0 -0.0213504c0,-0.0239685 0.0013189,-0.0239685 0.00792126,-0.0239685l0.224768 0 0 0zm0.134161 0.0069685c0,-0.00478346 -0.0070315,-0.0069685 -0.0312283,-0.0069685l-0.0140669 0c-0.0255157,0 -0.0299134,0.00218504 -0.0299134,0.0069685l0 0.312831c0,0.00566142 0.00439764,0.00697244 0.0299134,0.00697244l0.0140669 0c0.0241969,0 0.0312283,-0.00131102 0.0312283,-0.00697244l0 -0.312831 0 0zm0.365106 -0.0069685l-0.0219921 0c-0.0281535,0 -0.0299094,0.00304724 -0.0321181,0.00785039l-0.0435433 0.103689c-0.0145236,0.0344252 -0.0294764,0.0714488 -0.035189,0.0906142 -0.00528346,-0.0191654 -0.0149567,-0.0448661 -0.0351969,-0.0923543l-0.0435433 -0.101949c-0.00264173,-0.00611024 -0.0136378,-0.00785039 -0.0373858,-0.00785039l-0.0246299 0c-0.0241969,0 -0.0290394,0.00218504 -0.0290394,0.0069685l0 0.312831c0,0.00566142 0.00484252,0.00697244 0.0299055,0.00697244l0.0136378 0c0.0246299,0 0.031685,-0.00131102 0.031685,-0.00697244l0 -0.185602 0.00175591 0c0,0 0.00220079,0.00870866 0.0057126,0.0165512l0.0501457 0.116335c0.00220866,0.00521654 0.00484646,0.00739764 0.0281575,0.00739764l0.0149567 0c0.0237441,0 0.0255157,-0.00173228 0.0277087,-0.00739764l0.045748 -0.11198c0.0043937,-0.0104409 0.0074685,-0.0209055 0.0074685,-0.0209055l0.00177165 0 0 0.185602c0,0.00566142 0.00483071,0.00697244 0.0307835,0.00697244l0.0132008 0c0.0241969,0 0.0312283,-0.00131102 0.0312283,-0.00697244l0 -0.312831c0,-0.00478346 -0.0070315,-0.0069685 -0.0312283,-0.0069685l0 0z"/>
        <path id="Fill-2" fill="#D72330" d="M0.375839 0.069937l-0.356858 0c-0.00526378,0 -0.0100315,-0.00212598 -0.0134646,-0.00555512 -0.00340157,-0.00339764 -0.00551575,-0.0080748 -0.00551575,-0.0132441l0 -0.0322835c0,-0.00518504 0.00212992,-0.00987795 0.00554331,-0.0132795 0.00343701,-0.00341339 0.00818898,-0.00551969 0.013437,-0.00551969l0.356858 0c0.00527953,0 0.0100472,0.0021378 0.0134961,0.00556693 0.00338583,0.00339764 0.00548031,0.0080748 0.00548031,0.0132323l0 0.0322835c0,0.00515748 -0.00209449,0.00983071 -0.00549606,0.0132283 -0.00343307,0.00343307 -0.00820079,0.00557087 -0.0134803,0.00557087l0 0zm-0.217906 0.0585118l-0.138953 0c-0.00524803,0 -0.01,0.00211024 -0.013437,0.00552756 -0.00341339,0.0033937 -0.00554331,0.00808661 -0.00554331,0.0132717l0 0.0322874c0,0.00516929 0.00211417,0.00984252 0.00551575,0.0132402 0.00343307,0.00343307 0.00820079,0.00555512 0.0134646,0.00555512l0.138953 0 0 -0.0698819 0 0zm0.231402 0.00557087c-0.00344882,-0.00343307 -0.00821654,-0.00557087 -0.0134961,-0.00557087l-0.138949 0 0 0.0698819 0.138949 0c0.00527953,0 0.0100472,-0.0021378 0.0134803,-0.00556693 0.00340157,-0.00340157 0.00549606,-0.00807874 0.00549606,-0.0132283l0 -0.0322874c0,-0.00514961 -0.00209449,-0.00982677 -0.00548031,-0.0132283l0 0zm0 0.128394c-0.00344882,-0.00342913 -0.00821654,-0.00556693 -0.0134961,-0.00556693l-0.138949 0 0 0.0698819 0.138949 0c0.00527953,0 0.0100472,-0.00214173 0.0134803,-0.00557087 0.00340157,-0.00339764 0.00549606,-0.0080748 0.00549606,-0.0132283l0 -0.0323031c0,-0.00515354 -0.00209449,-0.00981102 -0.00548031,-0.0132126l0 0zm-0.231402 -0.00556693l-0.138953 0c-0.00524803,0 -0.01,0.00211024 -0.013437,0.00551969 -0.00341339,0.00340157 -0.00554331,0.00809449 -0.00554331,0.0132756l0 0.0322874c0,0.00516929 0.00211417,0.00984646 0.00551575,0.0132441 0.00343307,0.00343307 0.00820079,0.00555512 0.0134646,0.00555512l0.138953 0 0 -0.0698819 0 0z"/>
       </g>
      </g>
     </g>
    </g>
   </g>
  </g>
 </g>
</svg>
