<?xml version="1.0" encoding="UTF-8" standalone="no"?>
<svg width="82px" height="68px" viewBox="0 0 82 68" version="1.1" xmlns="http://www.w3.org/2000/svg" xmlns:xlink="http://www.w3.org/1999/xlink">
    <!-- Generator: Sketch 3.8.3 (29802) - http://www.bohemiancoding.com/sketch -->
    <title>Fill 2</title>
    <desc>Created with Sketch.</desc>
    <defs></defs>
    <g id="Page-1" stroke="none" stroke-width="1" fill="none" fill-rule="evenodd">
        <g id="TIM-Pré" transform="translate(-50.000000, -140.000000)" fill="#D72330">
            <path d="M127.273,154.506 L53.902,154.506 C52.82,154.506 51.84,154.065 51.134,153.353 C50.435,152.648 50,151.677 50,150.604 L50,143.902 C50,142.826 50.438,141.852 51.14,141.146 C51.846,140.437 52.823,140 53.902,140 L127.273,140 C128.359,140 129.339,140.444 130.048,141.156 C130.744,141.861 131.175,142.832 131.175,143.902 L131.175,150.604 C131.175,151.674 130.744,152.644 130.045,153.35 C129.339,154.062 128.359,154.506 127.273,154.506 L127.273,154.506 Z M82.471,166.652 L53.902,166.652 C52.823,166.652 51.846,167.09 51.14,167.799 C50.438,168.504 50,169.478 50,170.554 L50,177.257 C50,178.33 50.435,179.3 51.134,180.006 C51.84,180.718 52.82,181.159 53.902,181.159 L82.471,181.159 L82.471,166.652 L82.471,166.652 Z M130.048,167.808 C129.339,167.096 128.359,166.652 127.273,166.652 L98.705,166.652 L98.705,181.159 L127.273,181.159 C128.359,181.159 129.339,180.715 130.045,180.003 C130.744,179.297 131.175,178.326 131.175,177.257 L131.175,170.554 C131.175,169.485 130.744,168.514 130.048,167.808 L130.048,167.808 Z M130.048,194.461 C129.339,193.749 128.359,193.305 127.273,193.305 L98.705,193.305 L98.705,207.811 L127.273,207.811 C128.359,207.811 129.339,207.367 130.045,206.655 C130.744,205.95 131.175,204.979 131.175,203.909 L131.175,197.204 C131.175,196.134 130.744,195.167 130.048,194.461 L130.048,194.461 Z M82.471,193.305 L53.902,193.305 C52.823,193.305 51.846,193.743 51.14,194.451 C50.438,195.157 50,196.131 50,197.207 L50,203.909 C50,204.982 50.435,205.953 51.134,206.658 C51.84,207.371 52.82,207.811 53.902,207.811 L82.471,207.811 L82.471,193.305 L82.471,193.305 Z" id="Fill-2"></path>
        </g>
    </g>
</svg>