<?xml version="1.0" encoding="UTF-8" standalone="no"?>
<svg width="252px" height="31px" viewBox="0 0 252 31" version="1.1" xmlns="http://www.w3.org/2000/svg" xmlns:xlink="http://www.w3.org/1999/xlink">
    <!-- Generator: Sketch 3.8.3 (29802) - http://www.bohemiancoding.com/sketch -->
    <title>Group 8</title>
    <desc>Created with Sketch.</desc>
    <defs></defs>
    <g id="Symbols" stroke="none" stroke-width="1" fill="none" fill-rule="evenodd">
        <g id="Topo" transform="translate(-87.000000, -24.000000)" fill="#FFFFFF">
            <g id="Group-8" transform="translate(87.000000, 24.000000)">
                <path d="M0.0253636901,6.68987717 L6.3043158,6.68987717 L6.3043158,9.20155178 C7.21430885,8.16997114 8.12430191,7.40687555 9.03429497,6.95898516 C9.94428803,6.51047184 11.0817794,6.28621517 12.3557696,6.28621517 C13.7662589,6.28621517 14.8582505,6.55532317 15.6772443,7.00383649 C16.4962381,7.49720115 17.1332332,8.21482247 17.679229,9.20155178 C18.725721,8.07964554 19.6812138,7.31779582 20.5457072,6.91351089 C21.4102006,6.51047184 22.5021922,6.28621517 23.7761825,6.28621517 C25.6416683,6.28621517 27.1431568,6.82443116 28.1896489,7.94571447 C29.2361409,9.02214645 29.7821367,10.7713484 29.7821367,13.1036177 L29.7821367,23.9576402 L23.0481881,23.9576402 L23.0481881,14.090347 C23.0481881,13.3278744 22.8661895,12.744807 22.5476919,12.3859964 C22.138195,11.7580777 21.5466995,11.4889697 20.9097044,11.4889697 C20.0907106,11.4889697 19.4537155,11.7580777 18.9532193,12.3411451 C18.4982228,12.879361 18.2707245,13.7763877 18.2707245,15.032225 L18.2707245,23.9576402 L11.5367759,23.9576402 L11.5367759,14.4491577 C11.5367759,13.6860621 11.4912762,13.148469 11.4002769,12.879361 C11.263778,12.4756991 10.99078,12.1168884 10.6267828,11.8477804 C10.3082853,11.5786724 9.89878838,11.4441184 9.3982922,11.4441184 C8.6247981,11.4441184 7.98780295,11.7132264 7.53280642,12.2962937 C7.03231024,12.879361 6.75931232,13.821239 6.75931232,15.1219277 L6.75931232,23.9576402 L0.0253636901,23.9576402 L0.0253636901,6.68987717" id="Fill-72"></path>
                <path d="M45.0245204,15.7498463 C44.1145274,16.0638056 43.1590347,16.377765 42.1580423,16.6020216 C40.7930527,16.9608323 39.9285593,17.319643 39.5645621,17.6784536 C39.1550652,18.0372643 38.9730666,18.4409263 38.9730666,18.8894396 C38.9730666,19.4276556 39.1550652,19.8313176 39.5190624,20.1901282 C39.9285593,20.5040876 40.4745552,20.6834929 41.1570499,20.6834929 C41.930544,20.6834929 42.6130388,20.5040876 43.250034,20.1452769 C43.8870291,19.7858433 44.3420257,19.3379529 44.6150236,18.8445883 C44.8880215,18.3057493 45.0245204,17.6329793 45.0245204,16.8262783 L45.0245204,15.7498463 L45.0245204,15.7498463 Z M39.2005649,12.2514424 L32.7851138,11.6235237 C33.0126121,10.5022404 33.3766093,9.65006511 33.8316058,9.02214645 C34.2866024,8.34937647 34.9690971,7.81116048 35.7880909,7.36264715 C36.425086,7.00383649 37.2895794,6.7347285 38.3360715,6.55532317 C39.4280631,6.37591784 40.6110541,6.28621517 41.8395447,6.28621517 C43.8415295,6.28621517 45.479517,6.42014624 46.7080076,6.64502583 C47.8909986,6.8692825 48.9374906,7.31779582 49.7564843,8.03541714 C50.3024802,8.48393046 50.7574767,9.20155178 51.0759743,10.0985784 C51.4399715,10.9956051 51.5764705,11.8477804 51.5764705,12.6551044 L51.5764705,20.279208 C51.5764705,21.0871549 51.6219701,21.7150735 51.7584691,22.2084382 C51.8494684,22.6569515 52.0769666,23.2393959 52.4409639,23.9576402 L46.1165121,23.9576402 C45.8890139,23.5091268 45.7070152,23.1503162 45.6160159,22.9260595 C45.5705163,22.7018028 45.479517,22.3429922 45.3885177,21.8496275 C44.5240243,22.6569515 43.6595309,23.2848702 42.7950375,23.6436808 C41.6120465,24.0921942 40.2015572,24.3164508 38.654569,24.3164508 C36.561585,24.3164508 34.9690971,23.8679375 33.8771055,22.9260595 C32.7851138,21.9387073 32.239118,20.7725726 32.239118,19.3828042 C32.239118,18.0821156 32.6486148,17.0056836 33.4221089,16.1528854 C34.195603,15.301333 35.6515919,14.6727914 37.744576,14.2697523 C40.2925565,13.7763877 41.8850444,13.417577 42.6585385,13.2381717 C43.3865329,13.0132921 44.2055267,12.744807 45.0245204,12.4308477 C45.0245204,11.6235237 44.8425218,11.0398335 44.5240243,10.7258742 C44.160027,10.3676864 43.5685316,10.2325095 42.7040381,10.2325095 C41.6120465,10.2325095 40.7930527,10.4125378 40.2470569,10.7258742 C39.7920604,10.9956051 39.4735628,11.5331981 39.2005649,12.2514424 L39.2005649,12.2514424 Z" id="Fill-73"></path>
                <path d="M61.3588958,15.032225 C61.3588958,16.2880623 61.6318938,17.2299403 62.1323899,17.8130076 C62.6783858,18.4409263 63.4063802,18.7100343 64.2708736,18.7100343 C65.135367,18.7100343 65.8178618,18.4409263 66.3638577,17.8130076 C66.9553532,17.185089 67.2283511,16.243211 67.2283511,14.9867507 C67.2283511,13.7315364 66.9553532,12.744807 66.318358,12.0720371 C65.7268625,11.4441184 64.9988681,11.0853077 64.1798743,11.0853077 C63.3153809,11.0853077 62.6328861,11.3992671 62.0868903,12.0265628 C61.5863941,12.610253 61.3588958,13.6418337 61.3588958,15.032225 L61.3588958,15.032225 Z M67.637848,6.68987717 L73.9622997,6.68987717 L73.9622997,23.7327606 C73.9622997,24.8546668 73.7348014,25.8856245 73.2343053,26.8281254 C72.7793087,27.8148547 72.1878132,28.6221787 71.3688195,29.2500974 C70.5953254,29.8325418 69.6398327,30.281678 68.4568417,30.550786 C67.2283511,30.8192711 65.8633615,30.954448 64.3618729,30.954448 C60.8129,30.954448 58.4014184,30.416232 57.0819285,29.3846514 C55.7624385,28.3524478 55.1254434,26.9626794 55.1254434,25.2128545 C55.1254434,24.9892208 55.1254434,24.7194899 55.170943,24.3164508 L61.6773934,25.0789235 C61.859392,25.6619908 62.0868903,26.0656528 62.4508875,26.2899094 C62.905884,26.6487201 63.5428792,26.8281254 64.3163733,26.8281254 C65.271866,26.8281254 65.9998604,26.5590174 66.454857,26.0656528 C66.9553532,25.5274368 67.1828514,24.6304101 67.1828514,23.3745728 L67.1828514,20.7725726 C66.5003566,21.5356682 65.8633615,22.0738842 65.1808667,22.4326949 C64.1798743,22.9709108 63.042383,23.2393959 61.859392,23.2393959 C59.4934101,23.2393959 57.6279243,22.2526666 56.1719354,20.2349796 C55.170943,18.799114 54.6249472,16.915981 54.6249472,14.5388603 C54.6249472,11.8477804 55.307442,9.82947044 56.6269319,8.39360486 C57.9464219,7.00383649 59.6754087,6.28621517 61.8138924,6.28621517 C63.178882,6.28621517 64.2708736,6.51047184 65.1808667,6.95898516 C66.0453601,7.40687555 66.9098535,8.16997114 67.637848,9.24640312 L67.637848,6.68987717 L67.637848,6.68987717 Z" id="Fill-74"></path>
                <path d="M88.0671921,15.7498463 C87.1571991,16.0638056 86.2017064,16.377765 85.200714,16.6020216 C83.8357244,16.9608323 82.971231,17.319643 82.6072338,17.6784536 C82.2432365,18.0372643 82.0612379,18.4409263 82.0612379,18.8894396 C82.0612379,19.4276556 82.2432365,19.8313176 82.6072338,20.1901282 C82.971231,20.5040876 83.5172268,20.6834929 84.2452213,20.6834929 C84.9732157,20.6834929 85.6557105,20.5040876 86.2927057,20.1452769 C86.9752005,19.7858433 87.430197,19.3379529 87.6576952,18.8445883 C87.9306932,18.3057493 88.0671921,17.6329793 88.0671921,16.8262783 L88.0671921,15.7498463 L88.0671921,15.7498463 Z M82.2432365,12.2514424 L75.8277855,11.6235237 C76.1007834,10.5022404 76.419281,9.65006511 76.8742775,9.02214645 C77.329274,8.34937647 78.0117688,7.81116048 78.8762622,7.36264715 C79.4677577,7.00383649 80.3322511,6.7347285 81.4242428,6.55532317 C82.4707348,6.37591784 83.6537258,6.28621517 84.8822164,6.28621517 C86.9297008,6.28621517 88.5221887,6.42014624 89.7506793,6.64502583 C90.9791699,6.8692825 91.9801623,7.31779582 92.799156,8.03541714 C93.3906515,8.48393046 93.845648,9.20155178 94.1641456,10.0985784 C94.4826432,10.9956051 94.6646418,11.8477804 94.6646418,12.6551044 L94.6646418,20.279208 C94.6646418,21.0871549 94.7101415,21.7150735 94.8011408,22.2084382 C94.8921401,22.6569515 95.1196383,23.2393959 95.4836356,23.9576402 L89.2046834,23.9576402 C88.9316855,23.5091268 88.7951866,23.1503162 88.7041873,22.9260595 C88.613188,22.7018028 88.5221887,22.3429922 88.476689,21.8496275 C87.5666959,22.6569515 86.7022025,23.2848702 85.8377091,23.6436808 C84.6547182,24.0921942 83.2897286,24.3164508 81.6972407,24.3164508 C79.6042567,24.3164508 78.0117688,23.8679375 76.9197772,22.9260595 C75.8732851,21.9387073 75.3272893,20.7725726 75.3272893,19.3828042 C75.3272893,18.0821156 75.6912865,17.0056836 76.5102803,16.1528854 C77.2837744,15.301333 78.6942636,14.6727914 80.8327473,14.2697523 C83.3352282,13.7763877 84.9732157,13.417577 85.7012102,13.2381717 C86.4747043,13.0132921 87.2481984,12.744807 88.0671921,12.4308477 C88.0671921,11.6235237 87.9306932,11.0398335 87.5666959,10.7258742 C87.2481984,10.3676864 86.6567029,10.2325095 85.7922095,10.2325095 C84.7002178,10.2325095 83.8357244,10.4125378 83.2897286,10.7258742 C82.8802317,10.9956051 82.5162345,11.5331981 82.2432365,12.2514424 L82.2432365,12.2514424 Z" id="Fill-75"></path>
                <polyline id="Fill-76" points="97.7586182 6.68987717 114.001994 6.68987717 114.001994 10.5464688 105.175062 19.4276556 114.54799 19.4276556 114.54799 23.9576402 97.1216231 23.9576402 97.1216231 19.6519122 105.493559 11.2198617 97.7586182 11.2198617 97.7586182 6.68987717"></polyline>
                <path d="M116.868472,23.9576402 L123.602421,23.9576402 L123.602421,6.68987717 L116.868472,6.68987717 L116.868472,23.9576402 Z M116.868472,4.62609294 L123.602421,4.62609294 L123.602421,0.0967312988 L116.868472,0.0967312988 L116.868472,4.62609294 Z" id="Fill-77"></path>
                <path d="M127.833889,6.68987717 L134.067341,6.68987717 L134.067341,9.47065978 C135.022834,8.34937647 135.978327,7.54205248 136.933819,7.04868783 C137.889312,6.55532317 139.026803,6.28621517 140.391793,6.28621517 C142.257279,6.28621517 143.713268,6.82443116 144.75976,7.94571447 C145.80562,9.02214645 146.352248,10.6816458 146.352248,12.9690637 L146.352248,23.9576402 L139.617667,23.9576402 L139.617667,14.4491577 C139.617667,13.3727257 139.390801,12.610253 138.981304,12.1617397 C138.571807,11.7132264 138.025811,11.4889697 137.297185,11.4889697 C136.478823,11.4889697 135.795696,11.7580777 135.2952,12.3859964 C134.794704,13.0132921 134.522338,14.090347 134.522338,15.6595207 L134.522338,23.9576402 L127.833889,23.9576402 L127.833889,6.68987717" id="Fill-78"></path>
                <path d="M162.277126,13.7763877 C162.140627,12.5199274 161.82213,11.5786724 161.230634,11.0398335 C160.684638,10.5022404 159.956644,10.1882811 159.001151,10.1882811 C157.954659,10.1882811 157.090166,10.6367944 156.45317,11.4441184 C156.043674,11.9823344 155.770676,12.744807 155.679044,13.7763877 L162.277126,13.7763877 L162.277126,13.7763877 Z M169.102074,16.9608323 L155.679044,16.9608323 C155.770676,18.0372643 156.089173,18.799114 156.543538,19.3379529 C157.180533,20.0555742 158.045026,20.4592362 159.09215,20.4592362 C159.729145,20.4592362 160.365509,20.279208 160.957636,19.9658716 C161.321633,19.7416149 161.73113,19.3828042 162.140627,18.8894396 L168.737445,19.4725069 C167.736452,21.2217089 166.508594,22.4775462 165.098105,23.1951675 C163.642116,23.9576402 161.594631,24.3164508 158.910152,24.3164508 C156.589669,24.3164508 154.769683,24.0024915 153.450193,23.3745728 C152.130703,22.7460312 151.038712,21.7150735 150.128719,20.3246822 C149.264225,18.8894396 148.854728,17.2299403 148.854728,15.3461843 C148.854728,12.6551044 149.719222,10.4573891 151.448209,8.79788979 C153.222695,7.13839049 155.634177,6.28621517 158.728153,6.28621517 C161.230634,6.28621517 163.231987,6.64502583 164.688608,7.40687555 C166.099097,8.16997114 167.235956,9.24640312 167.964583,10.6816458 C168.737445,12.0720371 169.102074,13.9109417 169.102074,16.1983596 L169.102074,16.9608323 L169.102074,16.9608323 Z" id="Fill-79"></path>
                <polygon id="Fill-80" points="171.740422 23.9576402 178.475003 23.9576402 178.475003 0.0967312988 171.740422 0.0967312988"></polygon>
                <path d="M200.542334,23.9576402 L194.263382,23.9576402 L194.263382,21.1320062 C193.353389,22.2981409 192.397896,23.1054648 191.442404,23.5988295 C190.486279,24.0921942 189.303288,24.3164508 187.93893,24.3164508 C186.073445,24.3164508 184.662955,23.7782348 183.570964,22.7018028 C182.524472,21.6253709 182.023975,19.9210202 182.023975,17.6784536 L182.023975,6.68987717 L188.757924,6.68987717 L188.757924,16.1528854 C188.757924,17.2747916 188.98479,18.0372643 189.394919,18.4857776 C189.803784,18.9342909 190.350412,19.1585476 191.078406,19.1585476 C191.8974,19.1585476 192.534395,18.8445883 193.034891,18.2615209 C193.580887,17.6329793 193.808386,16.5571703 193.808386,14.9867507 L193.808386,6.68987717 L200.542334,6.68987717 L200.542334,23.9576402" id="Fill-81"></path>
                <path d="M204.182306,23.9576402 L210.870755,23.9576402 L210.870755,6.68987717 L204.182306,6.68987717 L204.182306,23.9576402 Z M204.182306,4.62609294 L210.870755,4.62609294 L210.870755,0.0967312988 L204.182306,0.0967312988 L204.182306,4.62609294 Z" id="Fill-82"></path>
                <polyline id="Fill-83" points="213.736602 6.68987717 229.98061 6.68987717 229.98061 10.5464688 221.153677 19.4276556 230.526605 19.4276556 230.526605 23.9576402 213.054107 23.9576402 213.054107 19.6519122 221.472175 11.2198617 213.736602 11.2198617 213.736602 6.68987717"></polyline>
                <path d="M244.540499,15.7498463 C243.630506,16.0638056 242.674381,16.377765 241.673388,16.6020216 C240.309031,16.9608323 239.444537,17.319643 239.08054,17.6784536 C238.670411,18.0372643 238.488413,18.4409263 238.488413,18.8894396 C238.488413,19.4276556 238.670411,19.8313176 239.035041,20.1901282 C239.399038,20.5040876 239.945034,20.6834929 240.672396,20.6834929 C241.446522,20.6834929 242.129017,20.5040876 242.766012,20.1452769 C243.403007,19.7858433 243.857372,19.3379529 244.131002,18.8445883 C244.404,18.3057493 244.540499,17.6329793 244.540499,16.8262783 L244.540499,15.7498463 L244.540499,15.7498463 Z M238.716543,12.2514424 L232.30046,11.6235237 C232.52859,10.5022404 232.892587,9.65006511 233.347584,9.02214645 C233.801949,8.34937647 234.439576,7.81116048 235.303437,7.36264715 C235.941064,7.00383649 236.760058,6.7347285 237.85205,6.55532317 C238.944041,6.37591784 240.081533,6.28621517 241.355523,6.28621517 C243.356876,6.28621517 244.995495,6.42014624 246.223986,6.64502583 C247.406977,6.8692825 248.453469,7.31779582 249.272462,8.03541714 C249.818458,8.48393046 250.273455,9.20155178 250.591952,10.0985784 C250.95595,10.9956051 251.092449,11.8477804 251.092449,12.6551044 L251.092449,20.279208 C251.092449,21.0871549 251.137948,21.7150735 251.274447,22.2084382 C251.364815,22.6569515 251.592945,23.2393959 251.956942,23.9576402 L245.63249,23.9576402 C245.404992,23.5091268 245.222993,23.1503162 245.131994,22.9260595 C245.086494,22.7018028 244.995495,22.3429922 244.904496,21.8496275 C244.040002,22.6569515 243.174877,23.2848702 242.311016,23.6436808 C241.128025,24.0921942 239.717535,24.3164508 238.169915,24.3164508 C236.077563,24.3164508 234.484443,23.8679375 233.393084,22.9260595 C232.30046,21.9387073 231.755096,20.7725726 231.755096,19.3828042 C231.755096,18.0821156 232.164593,17.0056836 232.938087,16.1528854 C233.711581,15.301333 235.16757,14.6727914 237.260554,14.2697523 C239.763035,13.7763877 241.401023,13.417577 242.173885,13.2381717 C242.902511,13.0132921 243.721505,12.744807 244.540499,12.4308477 C244.540499,11.6235237 244.357868,11.0398335 244.040002,10.7258742 C243.675373,10.3676864 243.08451,10.2325095 242.220016,10.2325095 C241.128025,10.2325095 240.309031,10.4125378 239.763035,10.7258742 C239.308038,10.9956051 238.988909,11.5331981 238.716543,12.2514424 L238.716543,12.2514424 Z" id="Fill-84"></path>
            </g>
        </g>
    </g>
</svg>