<?xml version="1.0" encoding="UTF-8" standalone="no"?>
<svg width="75px" height="28px" viewBox="0 0 75 28" version="1.1" xmlns="http://www.w3.org/2000/svg" xmlns:xlink="http://www.w3.org/1999/xlink">
    <!-- Generator: Sketch 3.8.3 (29802) - http://www.bohemiancoding.com/sketch -->
    <title>Shape</title>
    <desc>Created with Sketch.</desc>
    <defs></defs>
    <g id="Symbols" stroke="none" stroke-width="1" fill="none" fill-rule="evenodd">
        <g id="TOPO-Logado" transform="translate(-39.000000, -9.000000)" fill="#FFFFFF">
            <path d="M109.355045,11.082221 L111.877736,13.6049119 L103.308596,22.2541377 C102.467699,21.4132408 101.626802,20.5723438 100.785905,19.7314469 L109.355045,11.082221 L109.355045,11.082221 L109.355045,11.082221 Z M94.4991991,22.0539242 C98.4233849,22.0539242 101.626802,25.2573412 101.626802,29.181527 C101.626802,33.1057128 98.4233849,36.3091297 94.4991991,36.3091297 C90.5750133,36.3091297 87.3715964,33.1057128 87.3715964,29.181527 C87.3715964,25.2573412 90.5750133,22.0539242 94.4991991,22.0539242 L94.4991991,22.0539242 L94.4991991,22.0539242 Z M94.4991991,25.0170849 C96.7015483,25.0170849 98.5435131,26.8590497 98.5435131,29.1414842 C98.5435131,31.4239188 96.741591,33.2658836 94.4991991,33.2658836 C92.29685,33.2658836 90.4548852,31.4239188 90.4548852,29.1414842 C90.4548852,26.8990924 92.2568073,25.0170849 94.4991991,25.0170849 L94.4991991,25.0170849 L94.4991991,25.0170849 Z M57.0993059,29.8222104 C56.9391351,30.2626802 56.7789642,30.70315 56.5787507,31.1035771 C56.3384944,31.6241324 56.0181527,32.104645 55.697811,32.5451148 C54.0160171,34.8675921 51.2530699,36.3491725 48.2899092,36.3491725 L48.2899092,36.3491725 C45.7271757,36.3491725 43.4046983,35.2680192 41.7229044,33.5461826 C40.0411105,31.824346 39,29.4618259 39,26.8590497 L39,26.8590497 L39,26.8590497 C39,24.2562734 40.0411105,21.8937533 41.7229044,20.1719167 C43.4046983,18.4500801 45.7271757,17.3689269 48.2899092,17.3689269 L48.2899092,17.3689269 L48.2899092,17.3689269 C49.290977,17.3689269 50.2520021,17.5290977 51.1329418,17.8494394 C51.5734116,18.0096103 52.0138815,18.1697811 52.4143086,18.4100374 L52.4143086,18.4100374 C54.4564869,19.4511479 56.0982381,21.2530699 56.9391351,23.4954618 L53.0149493,23.4954618 C52.4543513,22.6545649 51.6935398,21.9738388 50.8126001,21.5333689 L50.8126001,21.5333689 C50.5723438,21.4132408 50.2920448,21.2931127 50.0117459,21.2130272 C49.4511479,21.0128137 48.8505072,20.9327282 48.2498665,20.9327282 L48.2498665,20.9327282 L48.2498665,20.9327282 C46.6882007,20.9327282 45.2466631,21.6134544 44.2055526,22.6545649 C43.1644421,23.7357181 42.483716,25.2573412 42.483716,26.8990924 L42.483716,26.8990924 L42.483716,26.8990924 C42.483716,28.5408436 43.1243994,30.0624666 44.2055526,31.1436199 C45.2466631,32.2247731 46.6882007,32.8654565 48.2498665,32.8654565 L48.2498665,32.8654565 C50.0918313,32.8654565 51.7736252,31.9444741 52.8547784,30.5029365 C53.0149493,30.3027229 53.1350774,30.1025093 53.2552056,29.8622531 L57.0993059,29.8622531 L57.0993059,29.8222104 L57.0993059,29.8222104 Z M114,24.9770422 L114,28.5808863 L105.190603,28.5808863 L105.190603,24.9770422 L114,24.9770422 L114,24.9770422 L114,24.9770422 Z M93.7784303,9 L97.3822744,9 L97.3822744,17.8093967 L93.7784303,17.8093967 L93.7784303,9 L93.7784303,9 L93.7784303,9 Z M62.2648158,17.8494394 L62.2648158,35.7885745 L58.7410571,35.7885745 L58.7410571,17.8494394 L62.2648158,17.8494394 L62.2648158,17.8494394 L62.2648158,17.8494394 Z M67.9108382,32.0646022 C67.9108382,32.5851575 68.1110518,32.9455419 68.4714362,33.2258409 C68.8318206,33.5061399 69.3123332,33.626268 69.9530166,33.626268 C70.9140416,33.5862253 71.6348105,33.2658836 72.115323,32.7052856 C72.5958356,32.104645 72.8360918,31.544047 72.8360918,30.9434063 L72.8360918,29.2616124 C71.9951949,29.7421249 70.9941271,30.0224239 69.8328884,30.1425521 C68.6716498,30.2626802 68.0309664,30.9033636 67.9108382,32.0646022 L67.9108382,32.0646022 L67.9108382,32.0646022 Z M64.5072077,32.3048585 C64.5472504,30.70315 64.9476775,29.6219968 65.7885745,28.9813134 C66.5894287,28.3806727 67.5504538,27.9802456 68.6716498,27.8601175 C69.752803,27.7399893 70.7138281,27.5798185 71.554725,27.4596903 C72.3555793,27.3395622 72.7960491,26.9791778 72.8761345,26.3785371 C72.8761345,25.8579818 72.7560064,25.4575547 72.4757074,25.1772557 C72.1954084,24.8969568 71.6348105,24.7367859 70.7939135,24.7367859 C69.9129738,24.7367859 69.2722904,24.8969568 68.911906,25.2172985 C68.5515216,25.5376401 68.3513081,25.97811 68.3513081,26.6187934 L65.0678057,26.6187934 C65.0678057,25.1772557 65.5082755,24.0560598 66.4292579,23.2552056 C67.3502403,22.4543513 68.7917779,22.0539242 70.7939135,22.0138815 C72.4757074,22.0138815 73.7971169,22.3342232 74.7981847,22.9749066 C75.7992525,23.61559 76.3198078,24.4965296 76.3198078,25.6177256 L76.3198078,33.8665243 C76.3198078,34.186866 76.3598505,34.4271223 76.4799786,34.6673785 C76.6001068,34.8675921 76.7602776,35.0678057 77.0405766,35.1879338 L77.0405766,35.7485318 L73.3966898,35.7485318 C73.236519,35.5483182 73.1564335,35.3080619 73.0763481,35.0277629 C72.9962627,34.747464 72.95622,34.4271223 72.95622,34.1067806 C72.6358783,34.7074212 72.115323,35.1879338 71.3945542,35.5883609 C70.6737854,35.988788 69.7928457,36.1890016 68.7517352,36.1890016 C67.3502403,36.1890016 66.3091297,35.8286172 65.6284036,35.1478911 C64.8675921,34.5472504 64.5072077,33.5862253 64.5072077,32.3048585 L64.5072077,32.3048585 L64.5072077,32.3048585 Z M82.6065136,28.8611853 L82.6065136,35.8286172 L79.0427122,35.8286172 L79.0427122,22.6946076 L82.3262146,22.6946076 L82.3262146,25.0571276 C82.6465563,24.3363588 83.1270689,23.6956754 83.7277096,23.1350774 C84.3283502,22.5744794 85.329418,22.2541377 86.6908703,22.214095 L86.6908703,25.7778964 C85.6497597,25.697811 84.7287774,25.8179391 83.8878804,26.1382808 C83.1270689,26.4986652 82.686599,27.3796049 82.6065136,28.8611853 L82.6065136,28.8611853 L82.6065136,28.8611853 Z" id="Shape"></path>
        </g>
    </g>
</svg>