<?xml version="1.0" encoding="UTF-8" standalone="no"?>
<svg width="183px" height="133px" viewBox="0 0 183 133" version="1.1" xmlns="http://www.w3.org/2000/svg" xmlns:xlink="http://www.w3.org/1999/xlink">
    <!-- Generator: Sketch 3.8.3 (29802) - http://www.bohemiancoding.com/sketch -->
    <title>LogoTIMPré</title>
    <desc>Created with Sketch.</desc>
    <defs></defs>
    <g id="Page-1" stroke="none" stroke-width="1" fill="none" fill-rule="evenodd">
        <g id="TIM-Pré" transform="translate(-461.000000, -154.000000)" fill="#F5D101">
            <g id="LogoTIMPré" transform="translate(461.000000, 154.000000)">
                <g>
                    <g id="Logo">
                        <path d="M10.3042499,26.9470976 L10.7915844,26.9470976 C11.4072503,26.9470976 11.9286981,26.9357439 12.3283124,26.9097927 C12.5948568,26.9161453 12.8596583,26.8652577 13.1047986,26.7605732 C13.2201754,26.6721193 13.2816055,26.5304339 13.2672435,26.3859024 L13.2672435,4.35007317 L20.0785548,4.35007317 C20.3089192,4.36444036 20.5177836,4.21548083 20.5788849,3.9932439 C20.6950532,3.43401229 20.7381891,2.86211283 20.7072163,2.29181707 L20.7072163,1.99662195 C20.7168763,1.52827778 20.6984328,1.05977632 20.6519851,0.593634146 C20.6483822,0.418765935 20.5917404,0.249101756 20.4895402,0.10704878 C20.3671788,0.0331128415 20.2241464,0.000681312985 20.0818037,0.014597561 L1.04814397,0.014597561 C0.906280277,8.36576465e-05 0.763574189,0.0325706319 0.642031919,0.10704878 C0.538989332,0.248670585 0.482256927,0.418606185 0.479587097,0.593634146 C0.433139316,1.05977632 0.414695879,1.52827778 0.424355857,1.99662195 L0.424355857,2.29668293 C0.39270887,2.86706193 0.436402869,3.43911881 0.554311715,3.99810976 C0.615289838,4.21971929 0.823244327,4.36851299 1.05301732,4.35493902 L7.86432869,4.35493902 L7.86432869,26.3907683 C7.85043714,26.5324541 7.90613258,26.6720831 8.01377793,26.765439 C8.24517025,26.8719164 8.49825547,26.923011 8.75290187,26.9146585 C9.14764278,26.9406098 9.66584177,26.9519634 10.3091233,26.9519634 L10.3091233,26.9519634 L10.3042499,26.9470976 Z M26.740417,26.9470976 L27.1838913,26.9470976 C27.8255484,26.9470976 28.3502452,26.9357439 28.7579817,26.9097927 C29.024543,26.9163485 29.2893874,26.8654526 29.5344679,26.7605732 C29.650358,26.6725199 29.7119186,26.5305335 29.6969127,26.3859024 L29.6969127,0.570926829 C29.7119186,0.426295735 29.650358,0.284309337 29.5344679,0.196256098 C29.2893874,0.0913766507 29.024543,0.040480779 28.7579817,0.0470365854 C28.3507866,0.0232479675 27.8260899,0.0108130081 27.1838913,0.00973170732 L26.740417,0.00973170732 C26.0993014,0.00973170732 25.5811024,0.0221666667 25.18582,0.0470365854 C24.9306538,0.0387294935 24.6770515,0.0898162268 24.4450716,0.196256098 C24.3380274,0.289939028 24.2829567,0.429518978 24.2972469,0.570926829 L24.2972469,26.3859024 C24.2829567,26.5273103 24.3380274,26.6668902 24.4450716,26.7605732 C24.6770515,26.867013 24.9306538,26.9180998 25.18582,26.9097927 C25.580561,26.9357439 26.0987599,26.9470976 26.740417,26.9470976 L26.740417,26.9470976 L26.740417,26.9470976 Z M37.7346825,26.9470976 L37.9929698,26.9470976 C38.6346268,26.9470976 39.1593236,26.9357439 39.5670601,26.9097927 C39.8341243,26.9160755 40.0994406,26.8651954 40.3451708,26.7605732 C40.4608031,26.6723185 40.522298,26.5304837 40.5076156,26.3859024 L40.5076156,16.0978659 C40.5076156,12.8799146 40.4707948,10.5226789 40.3971531,9.02615854 C41.310093,11.5445081 42.40822,14.1634187 43.6915341,16.8828902 L46.0242418,21.8590366 C46.1423291,22.0799209 46.3522788,22.2372897 46.597672,22.2888537 C47.2044941,22.3740696 47.817674,22.4055499 48.4300496,22.3829268 L48.9482486,22.3829268 C49.5157225,22.3829268 49.9721924,22.3704919 50.3176584,22.345622 C50.554452,22.3475678 50.7886806,22.2965822 51.0031756,22.1964024 C51.1229623,22.1093272 51.2185612,21.9932219 51.2809562,21.8590366 L53.6136638,16.8828902 C54.9457114,13.9893293 56.0438384,11.3942073 56.9080448,9.09752439 C56.8571454,11.0936057 56.8322372,13.5751911 56.8333202,16.5422805 L56.7959579,26.3826585 C56.7820663,26.5243443 56.8377618,26.6639734 56.9454071,26.7573293 C57.1767995,26.8638066 57.4298847,26.9149012 57.6845311,26.9065488 C58.079272,26.9325 58.597471,26.9438537 59.239128,26.9438537 L59.536402,26.9438537 C60.1520679,26.9438537 60.6735158,26.9325 61.0731301,26.9065488 C61.3396745,26.9129014 61.6044759,26.8620138 61.8496163,26.7573293 C61.9649931,26.6688754 62.0264232,26.52719 62.0120611,26.3826585 L62.0120611,0.608231707 C62.0130147,0.355140782 61.8194911,0.143579253 61.5669623,0.121646341 C60.9428728,0.023405412 60.3107014,-0.0140754578 59.6793535,0.00973170732 L58.4610173,0.00973170732 C57.7857513,-0.0165466005 57.1095805,0.0274837105 56.4434526,0.141109756 C56.1506437,0.1978638 55.8989219,0.383089272 55.7579355,0.645536585 L52.4261922,7.82915854 C51.2176027,10.3983293 50.0084718,13.1291545 48.7987993,16.0216341 L48.243238,14.6754146 C46.8851993,11.3828537 45.8980763,9.10076829 45.2818689,7.82915854 L41.9501256,0.645536585 C41.8091392,0.383089272 41.5574174,0.1978638 41.2646085,0.141109756 C40.5984807,0.0274837105 39.9223099,-0.0165466005 39.2470438,0.00973170732 L37.6225956,0.00973170732 C36.9907083,-0.0140477169 36.3580007,0.023432692 35.7333623,0.121646341 C35.4814768,0.144371328 35.2888618,0.355710838 35.2898879,0.608231707 L35.2898879,26.3859024 C35.2755978,26.5273103 35.3306685,26.6668902 35.4377127,26.7605732 C35.6697664,26.8667867 35.9233148,26.9178625 36.1784611,26.9097927 C36.573202,26.9357439 37.091401,26.9470976 37.7330581,26.9470976 L37.7330581,26.9470976 L37.7346825,26.9470976 Z" id="TIM"></path>
                        <path d="M20.2085107,129.460902 L20.7949365,129.460902 C22.892716,129.544057 24.993639,129.425104 27.0685555,129.105695 C27.8123459,129.037649 28.3897274,128.42851 28.4168475,127.683244 L28.4168475,99.6007805 C30.2310716,101.15978 32.3456158,102.331618 34.630362,103.044183 C37.0914036,103.840423 39.6636504,104.24064 42.2506486,104.229829 C47.0927683,104.324268 51.8449948,102.916602 55.8521535,100.200902 C59.9301508,97.3021171 63.0846381,93.2908755 64.9376924,88.6477439 C67.2101069,82.9795768 68.3070786,76.9099846 68.1622221,70.8062805 C68.2886096,65.0945177 67.2724495,59.414974 65.1732374,54.1001829 C63.4511998,49.7084818 60.5002969,45.9040481 56.6724998,43.1406585 C52.9226732,40.5502295 48.4520006,39.2026349 43.8929657,39.2885244 C40.6560184,39.2621655 37.4532002,39.9500397 34.5134017,41.3029878 C31.7220247,42.570609 29.2412132,44.4309869 27.2439959,46.7543659 C27.1055659,45.1548022 26.8338846,43.5695372 26.4317718,42.0150244 C26.1429644,41.3397155 25.5186015,40.8667677 24.7894547,40.7709878 C22.9259275,40.5093133 21.0431338,40.4099999 19.162366,40.4741707 L18.5759402,40.4741707 C16.9495022,40.4468454 15.3227591,40.5058596 13.7025956,40.6509634 C13.032616,40.6621064 12.3804912,40.8684361 11.8263579,41.2445976 C11.5244383,41.6297672 11.4160745,42.131898 11.5323328,42.6070366 C12.0738155,50.0323293 12.3478058,58.6827358 12.3543036,68.5582561 L12.3543036,127.686488 C12.3236267,128.08552 12.4738787,128.477242 12.7636645,128.753732 C13.3937073,129.095886 14.0981726,129.278554 14.8153426,129.285732 C15.9102207,129.403593 17.7079434,129.463065 20.2085107,129.464146 L20.2085107,129.464146 L20.2085107,129.460902 Z M38.8506784,90.3572805 C36.9327139,90.3488243 35.0370774,89.9457649 33.2820699,89.1732561 C31.4564962,88.394852 29.8009851,87.267529 28.4087253,85.8547439 L28.4087253,62.6300244 C28.3809845,61.3374535 28.498682,60.0458591 28.7596061,58.7795122 C28.9717447,57.8366701 29.4149296,56.961137 30.049418,56.2314268 C31.1044367,55.1659294 32.4171247,54.3904774 33.8603735,53.9801585 C35.5049239,53.4340608 37.2264039,53.1542506 38.9595165,53.1513415 C42.2615009,52.9054856 45.4967026,54.1697735 47.7542791,56.5882561 C50.3339029,59.5899472 51.6231733,64.3292886 51.6220903,70.8062805 C51.6220903,77.1264837 50.5477886,81.9653049 48.3991851,85.3227439 C46.3701442,88.6132295 42.7080132,90.539994 38.8425562,90.3507927 L38.8425562,90.3507927 L38.8506784,90.3572805 Z M88.3281222,103.044183 L88.914548,103.044183 C91.0117887,103.127445 93.1121831,103.008491 95.1865426,102.688976 C95.9304117,102.622397 96.5083363,102.013381 96.5348346,101.268146 L96.5348346,84.1971098 C96.455865,79.6325664 96.8094026,75.0707949 97.590726,70.5727195 C98.1213316,67.4693622 99.2352619,64.4942753 100.873736,61.8044512 C102.31449,59.5557478 104.236213,57.6535967 106.500824,56.2346707 C108.973325,54.8030051 111.739812,53.9521482 114.590577,53.7465976 C114.983736,53.7037876 115.353294,53.5380263 115.646468,53.2729878 C115.975169,52.7182177 116.138066,52.0811395 116.115933,51.436939 C116.192824,50.4497114 116.231811,49.0867317 116.232894,47.348 L116.232894,45.6887439 C116.276981,44.1068382 116.218378,42.5237423 116.057453,40.9494024 C116.016266,40.4185756 115.674001,39.9583006 115.177002,39.765378 C114.2036,39.4036681 113.167047,39.2420245 112.129538,39.2901463 C108.627244,39.2206234 105.245159,40.5657634 102.749974,43.0206341 C99.7192278,46.2316195 97.4015096,50.0452505 95.9484088,54.2120976 C95.8704353,52.0019187 95.6538422,49.553313 95.2986295,46.8662805 C94.9434169,44.179248 94.6894615,42.56 94.5367633,42.0085366 C94.323976,41.3267517 93.7245225,40.8373337 93.0130309,40.7645 C91.1495038,40.5028255 89.26671,40.4035121 87.3859423,40.4676829 L86.6825562,40.4676829 C85.0561184,40.4403851 83.4293768,40.4993992 81.8092115,40.6444756 C81.1392781,40.6559006 80.4872321,40.8622053 79.9329739,41.2381098 C79.6316211,41.6235532 79.5238616,42.1256579 79.6405732,42.6005488 C80.1820559,50.0258415 80.4527973,58.676248 80.4527973,68.5517683 L80.4527973,101.260037 C80.4225667,101.658844 80.5734646,102.050099 80.8637827,102.325659 C81.4936799,102.668378 82.1981533,102.851605 82.9154608,102.85928 C84.0092559,102.977142 85.8069786,103.036073 88.3086289,103.036073 L88.3086289,103.036073 L88.3281222,103.044183 Z M151.993497,104.229829 C156.086427,104.216147 160.162052,103.698624 164.128125,102.688976 C167.844158,101.815902 171.416911,100.419471 174.739021,98.5416463 C175.025764,98.323726 175.297146,98.0863603 175.551245,97.8312317 C175.792493,97.5763618 175.91921,97.2342828 175.902126,96.8840122 C175.743097,95.5362378 175.387933,94.2188488 174.847859,92.9734878 L173.791967,90.0101829 C173.456983,88.8409367 172.921664,87.7384701 172.209755,86.7516829 C171.794057,86.3195017 171.128638,86.2451494 170.627542,86.5748902 C165.428662,88.936814 159.805591,90.2260857 154.095533,90.3653902 C150.273927,90.5716881 146.506141,89.393905 143.484637,87.0485 C140.701478,84.5310451 138.962954,81.0645483 138.611292,77.3313902 L176.599014,77.3313902 C177.066855,77.3313902 177.379291,76.8988699 177.536321,76.0338293 C177.734725,74.4198876 177.812914,72.7934712 177.770241,71.1679756 C177.770241,61.611439 175.425621,53.9093333 170.73638,48.0616585 C166.04714,42.2139837 159.36416,39.2912276 150.68744,39.2933902 C139.774736,38.9307752 129.742232,45.2442996 125.362293,55.2306829 C122.932686,60.6491395 121.731238,66.536377 121.843738,72.4720244 C121.843738,82.4264797 124.540863,90.2075203 129.935114,95.8151463 C135.329365,101.422772 142.676745,104.227126 151.977252,104.228207 L151.977252,104.228207 L151.993497,104.229829 Z M138.627537,65.7198415 C139.150407,62.2440644 140.63197,58.9822227 142.906333,56.2995488 C144.921876,54.0710418 147.814557,52.8367838 150.820645,52.9226463 C153.737103,52.8253592 156.524868,54.123995 158.323971,56.4179512 C160.340887,59.1215423 161.522636,62.3546582 161.723942,65.7198415 L138.627537,65.7198415 L138.627537,65.7198415 Z M142.261428,32.4228049 L146.717289,32.4228049 C147.780468,32.4593322 148.84395,32.3595797 149.881714,32.1259878 C150.520985,31.9695293 151.095234,31.6173431 151.524031,31.1187561 L166.766229,11.804561 C166.942746,11.5573782 167.062546,11.2743973 167.11711,10.9757439 C167.11711,10.2653293 165.866826,9.9095813 163.366259,9.9085 L157.737546,9.9085 C156.304743,9.85374876 154.870203,9.95326182 153.458749,10.2053171 C152.797263,10.3448869 152.223592,10.7525957 151.874912,11.3309512 L139.447883,30.6451463 C139.054767,31.3571829 139.095378,31.8307927 139.564843,32.0675976 C140.430563,32.3661613 141.347779,32.4869815 142.261428,32.4228049 L142.261428,32.4228049 L142.261428,32.4228049 Z M4.38151171,132.125768 L4.38151171,119.565378 L182.827148,119.565378 L182.827148,132.125768 L4.38151171,132.125768 L4.38151171,132.125768 Z" id="pré"></path>
                    </g>
                    <path d="M12.3587324,119.605328 C12.3587324,119.605328 16.418583,117.879814 20.4180066,117.879814 C24.4174301,117.879814 28.4478642,119.605328 28.4478642,119.605328 L29.6774194,131.8125 L8.02790134,130.996674 L12.3587324,119.605328 Z" id="Rectangle-779"></path>
                </g>
            </g>
        </g>
    </g>
</svg>