<?xml version="1.0" encoding="UTF-8"?>
<!DOCTYPE svg PUBLIC "-//W3C//DTD SVG 1.1//EN" "http://www.w3.org/Graphics/SVG/1.1/DTD/svg11.dtd">
<!-- Creator: CorelDRAW -->
<svg xmlns="http://www.w3.org/2000/svg" xml:space="preserve" width="1.14583in" height="0.433488in" shape-rendering="geometricPrecision" text-rendering="geometricPrecision" image-rendering="optimizeQuality" fill-rule="evenodd" clip-rule="evenodd"
viewBox="0 0 1.14583 0.43349"
 xmlns:xlink="http://www.w3.org/1999/xlink">
 <g id="Layer_x0020_1">
  <metadata id="CorelCorpID_0Corel-Layer"/>
  <g id="Symbols">
   <g id="Vivo-ON">
    <path id="LOGO-1" fill="#660099" d="M0.0134449 0.16463c0.00994098,-0.00784255 0.0202717,-0.0127559 0.0337875,-0.0188859 0.0132048,-0.00598427 0.0288032,-0.00222442 0.0357403,0.010567 0.0268387,0.0494726 0.0536773,0.0989492 0.0805121,0.148422 0.0268387,-0.0494726 0.0536773,-0.0989492 0.080516,-0.148422 0.00693703,-0.0127914 0.0220119,-0.0152245 0.0357403,-0.010567 0.0107835,0.00366143 0.0217835,0.00894098 0.0337836,0.0188859 0.0111811,0.00926381 0.0174449,0.0231576 0.010504,0.0359568 -0.0364489,0.0671931 -0.0729058,0.134394 -0.109355,0.201587 -0.0187245,0.0345198 -0.0839609,0.0339489 -0.102374,0 -0.0364489,-0.0671931 -0.0729058,-0.13439 -0.109355,-0.201587 -0.00694097,-0.0127993 -0.000893704,-0.0269647 0.0105,-0.0359568l0 0zm0.40871 -0.0509254c0.0311261,0 0.056512,-0.0255395 0.056512,-0.0568545 0,-0.0313151 -0.0253859,-0.0568506 -0.056512,-0.0568506 -0.0311261,0 -0.056512,0.0255355 -0.056512,0.0568506 0,0.0313151 0.0253859,0.0568545 0.056512,0.0568545l0 0zm-0.0268977 0.0349804c0.0156142,-0.00286221 0.0312206,-0.00286221 0.0468309,0 0.0142481,0.00261418 0.0263347,0.0119252 0.0263347,0.0265001 3.93702e-006,0.0765554 3.93702e-006,0.153107 0,0.229654 0,0.0145749 -0.0120867,0.0238859 -0.0263347,0.0265001 -0.0156103,0.00286615 -0.0312166,0.00286221 -0.0468309,0 -0.0142481,-0.00261025 -0.0263387,-0.0119213 -0.0263387,-0.0265001l0 -0.229654c0,-0.0145749 0.0120867,-0.0238859 0.0263387,-0.0265001l0 0zm0.130969 0.0159449c0.00993704,-0.00784255 0.0202717,-0.0127559 0.0337875,-0.0188859 0.0132048,-0.00598427 0.0287993,-0.00222442 0.0357363,0.010567 0.0268387,0.0494726 0.0536813,0.0989492 0.080516,0.148422 0.0268387,-0.0494726 0.0536734,-0.0989492 0.080516,-0.148422 0.00693703,-0.0127914 0.0220119,-0.0152245 0.0357363,-0.010567 0.0107874,0.00366143 0.0217875,0.00894098 0.0337875,0.0188859 0.0111811,0.00926381 0.017441,0.0231576 0.010504,0.0359568 -0.0364529,0.0671931 -0.0729058,0.134394 -0.109359,0.201587 -0.0187245,0.0345198 -0.083957,0.0339489 -0.10237,0 -0.0364529,-0.0671931 -0.0729058,-0.13439 -0.109359,-0.201587 -0.00694097,-0.0127993 -0.000893704,-0.0269647 0.010504,-0.0359568l0 0zm0.473277 0.181595c0.0318899,0 0.0578978,-0.0255001 0.0578978,-0.0567679 0,-0.0312718 -0.026008,-0.0567758 -0.0578978,-0.0567758 -0.0318938,0 -0.0579018,0.025504 -0.0579018,0.0567758 0,0.0312678 0.026008,0.0567679 0.0579018,0.0567679l0 0zm0 0.086705c0.0805948,0 0.146331,-0.064453 0.146331,-0.143477 0,-0.0790278 -0.0657364,-0.143481 -0.146331,-0.143481 -0.0806026,0 -0.146335,0.064453 -0.146335,0.143481 0,0.0790239 0.0657325,0.143477 0.146335,0.143477l0 0z"/>
   </g>
  </g>
 </g>
</svg>
