<?xml version="1.0" encoding="UTF-8" standalone="no"?>
<svg width="438px" height="116px" viewBox="0 0 438 116" version="1.1" xmlns="http://www.w3.org/2000/svg" xmlns:xlink="http://www.w3.org/1999/xlink">
    <!-- Generator: Sketch 3.8.3 (29802) - http://www.bohemiancoding.com/sketch -->
    <title>Group 6</title>
    <desc>Created with Sketch.</desc>
    <defs>
        <linearGradient x1="50%" y1="0%" x2="50%" y2="99.3423151%" id="linearGradient-1">
            <stop stop-color="#000000" stop-opacity="0" offset="0%"></stop>
            <stop stop-color="#000000" stop-opacity="0" offset="80%"></stop>
            <stop stop-color="#000000" stop-opacity="0.04" offset="100%"></stop>
        </linearGradient>
        <linearGradient x1="50%" y1="2.18285176%" x2="50%" y2="98.4952966%" id="linearGradient-2">
            <stop stop-color="#FFFFFF" offset="0%"></stop>
            <stop stop-color="#FFFFFF" stop-opacity="0" offset="20%"></stop>
            <stop stop-color="#FFFFFF" stop-opacity="0" offset="100%"></stop>
        </linearGradient>
        <path d="M390.177222,92 L299.822778,92 C298.609704,83.5192646 291.31618,77 282.5,77 C273.68382,77 266.390296,83.5192646 265.177222,92 L174.822778,92 C173.609704,83.5192646 166.31618,77 157.5,77 C148.68382,77 141.390296,83.5192646 140.177222,92 L49.8227779,92 C48.6097037,83.5192646 41.3161798,77 32.5,77 C22.8350169,77 15,84.8350169 15,94.5 C15,104.164983 22.8350169,112 32.5,112 C40.2436016,112 46.8125035,106.970512 49.1182427,100 L140.881757,100 C143.187496,106.970512 149.756398,112 157.5,112 C165.243602,112 171.812504,106.970512 174.118243,100 L265.881757,100 C268.187496,106.970512 274.756398,112 282.5,112 C290.243602,112 296.812504,106.970512 299.118243,100 L390.881757,100 C393.187496,106.970512 399.756398,112 407.5,112 C417.164983,112 425,104.164983 425,94.5 C425,84.8350169 417.164983,77 407.5,77 C398.68382,77 391.390296,83.5192646 390.177222,92 Z" id="path-3"></path>
        <filter x="-50%" y="-50%" width="200%" height="200%" filterUnits="objectBoundingBox" id="filter-4">
            <feOffset dx="0" dy="2" in="SourceAlpha" result="shadowOffsetOuter1"></feOffset>
            <feGaussianBlur stdDeviation="1" in="shadowOffsetOuter1" result="shadowBlurOuter1"></feGaussianBlur>
            <feComposite in="shadowBlurOuter1" in2="SourceAlpha" operator="out" result="shadowBlurOuter1"></feComposite>
            <feColorMatrix values="0 0 0 0 0   0 0 0 0 0   0 0 0 0 0  0 0 0 0.24 0" type="matrix" in="shadowBlurOuter1" result="shadowMatrixOuter1"></feColorMatrix>
            <feOffset dx="0" dy="0" in="SourceAlpha" result="shadowOffsetOuter2"></feOffset>
            <feGaussianBlur stdDeviation="1" in="shadowOffsetOuter2" result="shadowBlurOuter2"></feGaussianBlur>
            <feComposite in="shadowBlurOuter2" in2="SourceAlpha" operator="out" result="shadowBlurOuter2"></feComposite>
            <feColorMatrix values="0 0 0 0 0   0 0 0 0 0   0 0 0 0 0  0 0 0 0.12 0" type="matrix" in="shadowBlurOuter2" result="shadowMatrixOuter2"></feColorMatrix>
            <feMerge>
                <feMergeNode in="shadowMatrixOuter1"></feMergeNode>
                <feMergeNode in="shadowMatrixOuter2"></feMergeNode>
            </feMerge>
        </filter>
        <mask id="mask-5" maskContentUnits="userSpaceOnUse" maskUnits="objectBoundingBox" x="0" y="0" width="410" height="35" fill="white">
            <use xlink:href="#path-3"></use>
        </mask>
        <mask id="mask-6" maskContentUnits="userSpaceOnUse" maskUnits="objectBoundingBox" x="0" y="0" width="410" height="35" fill="white">
            <use xlink:href="#path-3"></use>
        </mask>
        <circle id="path-7" cx="407.5" cy="94.5" r="12.5"></circle>
        <filter x="-50%" y="-50%" width="200%" height="200%" filterUnits="objectBoundingBox" id="filter-8">
            <feOffset dx="0" dy="2" in="SourceAlpha" result="shadowOffsetOuter1"></feOffset>
            <feGaussianBlur stdDeviation="1" in="shadowOffsetOuter1" result="shadowBlurOuter1"></feGaussianBlur>
            <feComposite in="shadowBlurOuter1" in2="SourceAlpha" operator="out" result="shadowBlurOuter1"></feComposite>
            <feColorMatrix values="0 0 0 0 0   0 0 0 0 0   0 0 0 0 0  0 0 0 0.24 0" type="matrix" in="shadowBlurOuter1" result="shadowMatrixOuter1"></feColorMatrix>
            <feOffset dx="0" dy="0" in="SourceAlpha" result="shadowOffsetOuter2"></feOffset>
            <feGaussianBlur stdDeviation="1" in="shadowOffsetOuter2" result="shadowBlurOuter2"></feGaussianBlur>
            <feComposite in="shadowBlurOuter2" in2="SourceAlpha" operator="out" result="shadowBlurOuter2"></feComposite>
            <feColorMatrix values="0 0 0 0 0   0 0 0 0 0   0 0 0 0 0  0 0 0 0.12 0" type="matrix" in="shadowBlurOuter2" result="shadowMatrixOuter2"></feColorMatrix>
            <feMerge>
                <feMergeNode in="shadowMatrixOuter1"></feMergeNode>
                <feMergeNode in="shadowMatrixOuter2"></feMergeNode>
            </feMerge>
        </filter>
        <mask id="mask-9" maskContentUnits="userSpaceOnUse" maskUnits="objectBoundingBox" x="0" y="0" width="25" height="25" fill="white">
            <use xlink:href="#path-7"></use>
        </mask>
        <mask id="mask-10" maskContentUnits="userSpaceOnUse" maskUnits="objectBoundingBox" x="0" y="0" width="25" height="25" fill="white">
            <use xlink:href="#path-7"></use>
        </mask>
        <circle id="path-11" cx="282.5" cy="94.5" r="12.5"></circle>
        <filter x="-50%" y="-50%" width="200%" height="200%" filterUnits="objectBoundingBox" id="filter-12">
            <feOffset dx="0" dy="2" in="SourceAlpha" result="shadowOffsetOuter1"></feOffset>
            <feGaussianBlur stdDeviation="1" in="shadowOffsetOuter1" result="shadowBlurOuter1"></feGaussianBlur>
            <feComposite in="shadowBlurOuter1" in2="SourceAlpha" operator="out" result="shadowBlurOuter1"></feComposite>
            <feColorMatrix values="0 0 0 0 0   0 0 0 0 0   0 0 0 0 0  0 0 0 0.24 0" type="matrix" in="shadowBlurOuter1" result="shadowMatrixOuter1"></feColorMatrix>
            <feOffset dx="0" dy="0" in="SourceAlpha" result="shadowOffsetOuter2"></feOffset>
            <feGaussianBlur stdDeviation="1" in="shadowOffsetOuter2" result="shadowBlurOuter2"></feGaussianBlur>
            <feComposite in="shadowBlurOuter2" in2="SourceAlpha" operator="out" result="shadowBlurOuter2"></feComposite>
            <feColorMatrix values="0 0 0 0 0   0 0 0 0 0   0 0 0 0 0  0 0 0 0.12 0" type="matrix" in="shadowBlurOuter2" result="shadowMatrixOuter2"></feColorMatrix>
            <feMerge>
                <feMergeNode in="shadowMatrixOuter1"></feMergeNode>
                <feMergeNode in="shadowMatrixOuter2"></feMergeNode>
            </feMerge>
        </filter>
        <mask id="mask-13" maskContentUnits="userSpaceOnUse" maskUnits="objectBoundingBox" x="0" y="0" width="25" height="25" fill="white">
            <use xlink:href="#path-11"></use>
        </mask>
        <mask id="mask-14" maskContentUnits="userSpaceOnUse" maskUnits="objectBoundingBox" x="0" y="0" width="25" height="25" fill="white">
            <use xlink:href="#path-11"></use>
        </mask>
    </defs>
    <g id="Page-1" stroke="none" stroke-width="1" fill="none" fill-rule="evenodd">
        <g id="Parabéns-Nova-Linha" transform="translate(-294.000000, -428.000000)">
            <g id="Group-6" transform="translate(294.000000, 428.000000)">
                <g id="Group-5">
                    <g id="Combined-Shape">
                        <use fill="black" fill-opacity="1" filter="url(#filter-4)" xlink:href="#path-3"></use>
                        <use stroke="url(#linearGradient-1)" mask="url(#mask-5)" stroke-width="2" fill="#FAFAFA" fill-rule="evenodd" xlink:href="#path-3"></use>
                        <use stroke="url(#linearGradient-2)" mask="url(#mask-6)" stroke-width="2" xlink:href="#path-3"></use>
                    </g>
                    <g id="Oval-6" transform="translate(407.500000, 94.500000) scale(1, -1) translate(-407.500000, -94.500000) ">
                        <use fill="black" fill-opacity="1" filter="url(#filter-8)" xlink:href="#path-7"></use>
                        <use stroke="url(#linearGradient-1)" mask="url(#mask-9)" stroke-width="2" fill="#FAFAFA" fill-rule="evenodd" xlink:href="#path-7"></use>
                        <use stroke="url(#linearGradient-2)" mask="url(#mask-10)" stroke-width="2" xlink:href="#path-7"></use>
                    </g>
                    <g id="Oval-6" transform="translate(282.500000, 94.500000) scale(1, -1) translate(-282.500000, -94.500000) ">
                        <use fill="black" fill-opacity="1" filter="url(#filter-12)" xlink:href="#path-11"></use>
                        <use stroke="url(#linearGradient-1)" mask="url(#mask-13)" stroke-width="2" fill="#FAFAFA" fill-rule="evenodd" xlink:href="#path-11"></use>
                        <use stroke="url(#linearGradient-2)" mask="url(#mask-14)" stroke-width="2" xlink:href="#path-11"></use>
                    </g>
                    <rect id="Rectangle-147" fill="#0071B3" x="45" y="93" width="100" height="4"></rect>
                    <path d="M157.5,107 C164.403559,107 170,101.403559 170,94.5 C170,87.5964406 164.403559,82 157.5,82 C150.596441,82 145,87.5964406 145,94.5 C145,101.403559 150.596441,107 157.5,107 Z" id="Oval-10" stroke="#0071B3" stroke-width="3"></path>
                    <g id="Group" transform="translate(20.000000, 82.000000)">
                        <circle id="Oval-6" fill="#0071B3" transform="translate(12.500000, 12.500000) scale(1, -1) translate(-12.500000, -12.500000) " cx="12.5" cy="12.5" r="5.5"></circle>
                        <path d="M12.5,25 C19.4035594,25 25,19.4035594 25,12.5 C25,5.59644063 19.4035594,0 12.5,0 C5.59644063,0 0,5.59644063 0,12.5 C0,19.4035594 5.59644063,25 12.5,25 Z" id="Oval-10" stroke="#0071B3" stroke-width="3"></path>
                    </g>
                    <path d="M13.804,41.248 C14.1986686,41.248 14.5426652,41.1986672 14.836,41.1 C15.1293348,41.0013328 15.3733324,40.8600009 15.568,40.676 C15.7626676,40.4919991 15.9079995,40.2680013 16.004,40.004 C16.1000005,39.7399987 16.148,39.445335 16.148,39.12 C16.148,38.8106651 16.1000005,38.5306679 16.004,38.28 C15.9079995,38.0293321 15.764001,37.8160009 15.572,37.64 C15.379999,37.4639991 15.1373348,37.3293338 14.844,37.236 C14.5506652,37.1426662 14.204002,37.096 13.804,37.096 L12.196,37.096 L12.196,41.248 L13.804,41.248 Z M13.804,35.432 C14.5773372,35.432 15.2466638,35.5226658 15.812,35.704 C16.3773362,35.8853342 16.8439982,36.138665 17.212,36.464 C17.5800018,36.789335 17.8533324,37.1786644 18.032,37.632 C18.2106676,38.0853356 18.3,38.5813306 18.3,39.12 C18.3,39.6800028 18.2066676,40.193331 18.02,40.66 C17.8333324,41.126669 17.5533352,41.5279983 17.18,41.864 C16.8066648,42.2000017 16.3386695,42.4613324 15.776,42.648 C15.2133305,42.8346676 14.5560038,42.928 13.804,42.928 L12.196,42.928 L12.196,47 L10.044,47 L10.044,35.432 L13.804,35.432 Z M24.548,41.952 C24.548,41.6959987 24.5120004,41.4546678 24.44,41.228 C24.3679996,41.0013322 24.2600007,40.8026675 24.116,40.632 C23.9719993,40.4613325 23.7893344,40.3266672 23.568,40.228 C23.3466656,40.1293328 23.0893348,40.08 22.796,40.08 C22.2253305,40.08 21.7760016,40.242665 21.448,40.568 C21.1199984,40.893335 20.9106671,41.3546637 20.82,41.952 L24.548,41.952 Z M20.78,43.144 C20.8120002,43.5653354 20.8866661,43.9293318 21.004,44.236 C21.1213339,44.5426682 21.275999,44.795999 21.468,44.996 C21.660001,45.196001 21.8879987,45.3453328 22.152,45.444 C22.4160013,45.5426672 22.7079984,45.592 23.028,45.592 C23.3480016,45.592 23.6239988,45.554667 23.856,45.48 C24.0880012,45.405333 24.2906658,45.3226671 24.464,45.232 C24.6373342,45.1413329 24.7893327,45.058667 24.92,44.984 C25.0506673,44.909333 25.1773327,44.872 25.3,44.872 C25.4653342,44.872 25.5879996,44.9333327 25.668,45.056 L26.236,45.776 C26.0173322,46.0320013 25.7720014,46.2466658 25.5,46.42 C25.2279986,46.5933342 24.9440015,46.7319995 24.648,46.836 C24.3519985,46.9400005 24.0506682,47.0133331 23.744,47.056 C23.4373318,47.0986669 23.1400014,47.12 22.852,47.12 C22.2813305,47.12 21.7506691,47.0253343 21.26,46.836 C20.7693309,46.6466657 20.3426685,46.3666685 19.98,45.996 C19.6173315,45.6253315 19.332001,45.1666694 19.124,44.62 C18.915999,44.0733306 18.812,43.4400036 18.812,42.72 C18.812,42.1599972 18.9026658,41.6333358 19.084,41.14 C19.2653342,40.6466642 19.5253316,40.2173352 19.864,39.852 C20.2026684,39.4866648 20.6159976,39.1973344 21.104,38.984 C21.5920024,38.7706656 22.1426636,38.664 22.756,38.664 C23.2733359,38.664 23.7506645,38.7466658 24.188,38.912 C24.6253355,39.0773342 25.0013318,39.3186651 25.316,39.636 C25.6306682,39.9533349 25.8773324,40.3426644 26.056,40.804 C26.2346676,41.2653356 26.324,41.791997 26.324,42.384 C26.324,42.6826682 26.2920003,42.8839995 26.228,42.988 C26.1639997,43.0920005 26.0413342,43.144 25.86,43.144 L20.78,43.144 Z M32.956,40.888 C32.7319989,40.6159986 32.4880013,40.4240006 32.224,40.312 C31.9599987,40.1999994 31.6760015,40.144 31.372,40.144 C31.0733318,40.144 30.8040012,40.1999994 30.564,40.312 C30.3239988,40.4240006 30.1186675,40.5933322 29.948,40.82 C29.7773325,41.0466678 29.6466671,41.3346649 29.556,41.684 C29.4653329,42.0333351 29.42,42.445331 29.42,42.92 C29.42,43.4000024 29.4586663,43.806665 29.536,44.14 C29.6133337,44.473335 29.7239993,44.7453323 29.868,44.956 C30.0120007,45.1666677 30.187999,45.3186662 30.396,45.412 C30.604001,45.5053338 30.8359987,45.552 31.092,45.552 C31.5026687,45.552 31.8519986,45.4666675 32.14,45.296 C32.4280014,45.1253325 32.6999987,44.8826682 32.956,44.568 L32.956,40.888 Z M34.932,35.112 L34.932,47 L33.724,47 C33.4626654,47 33.2973337,46.8800012 33.228,46.64 L33.06,45.848 C32.7293317,46.2266686 32.3493355,46.5333322 31.92,46.768 C31.4906645,47.0026678 30.9906695,47.12 30.42,47.12 C29.9719978,47.12 29.5613352,47.0266676 29.188,46.84 C28.8146648,46.6533324 28.4933347,46.3826684 28.224,46.028 C27.9546653,45.6733316 27.7466674,45.2346693 27.6,44.712 C27.4533326,44.1893307 27.38,43.5920034 27.38,42.92 C27.38,42.311997 27.4626658,41.7466693 27.628,41.224 C27.7933342,40.7013307 28.0306651,40.2480019 28.34,39.864 C28.6493349,39.4799981 29.0199978,39.1800011 29.452,38.964 C29.8840022,38.7479989 30.3693306,38.64 30.908,38.64 C31.366669,38.64 31.758665,38.7119993 32.084,38.856 C32.409335,39.0000007 32.6999987,39.1946654 32.956,39.44 L32.956,35.112 L34.932,35.112 Z M38.932,38.792 L38.932,47 L36.948,47 L36.948,38.792 L38.932,38.792 Z M39.204,36.4 C39.204,36.5706675 39.1693337,36.7306659 39.1,36.88 C39.0306663,37.0293341 38.9386672,37.1599994 38.824,37.272 C38.7093328,37.3840006 38.5746674,37.473333 38.42,37.54 C38.2653326,37.606667 38.1000009,37.64 37.924,37.64 C37.7533325,37.64 37.5920008,37.606667 37.44,37.54 C37.2879992,37.473333 37.1560006,37.3840006 37.044,37.272 C36.9319994,37.1599994 36.842667,37.0293341 36.776,36.88 C36.709333,36.7306659 36.676,36.5706675 36.676,36.4 C36.676,36.2239991 36.709333,36.0586674 36.776,35.904 C36.842667,35.7493326 36.9319994,35.6160006 37.044,35.504 C37.1560006,35.3919994 37.2879992,35.302667 37.44,35.236 C37.5920008,35.169333 37.7533325,35.136 37.924,35.136 C38.1000009,35.136 38.2653326,35.169333 38.42,35.236 C38.5746674,35.302667 38.7093328,35.3919994 38.824,35.504 C38.9386672,35.6160006 39.0306663,35.7493326 39.1,35.904 C39.1693337,36.0586674 39.204,36.2239991 39.204,36.4 L39.204,36.4 Z M46.1,40.888 C45.8759989,40.6159986 45.6320013,40.4240006 45.368,40.312 C45.1039987,40.1999994 44.8200015,40.144 44.516,40.144 C44.2173318,40.144 43.9480012,40.1999994 43.708,40.312 C43.4679988,40.4240006 43.2626675,40.5933322 43.092,40.82 C42.9213325,41.0466678 42.7906671,41.3346649 42.7,41.684 C42.6093329,42.0333351 42.564,42.445331 42.564,42.92 C42.564,43.4000024 42.6026663,43.806665 42.68,44.14 C42.7573337,44.473335 42.8679993,44.7453323 43.012,44.956 C43.1560007,45.1666677 43.331999,45.3186662 43.54,45.412 C43.748001,45.5053338 43.9799987,45.552 44.236,45.552 C44.6466687,45.552 44.9959986,45.4666675 45.284,45.296 C45.5720014,45.1253325 45.8439987,44.8826682 46.1,44.568 L46.1,40.888 Z M48.076,35.112 L48.076,47 L46.868,47 C46.6066654,47 46.4413337,46.8800012 46.372,46.64 L46.204,45.848 C45.8733317,46.2266686 45.4933355,46.5333322 45.064,46.768 C44.6346645,47.0026678 44.1346695,47.12 43.564,47.12 C43.1159978,47.12 42.7053352,47.0266676 42.332,46.84 C41.9586648,46.6533324 41.6373347,46.3826684 41.368,46.028 C41.0986653,45.6733316 40.8906674,45.2346693 40.744,44.712 C40.5973326,44.1893307 40.524,43.5920034 40.524,42.92 C40.524,42.311997 40.6066658,41.7466693 40.772,41.224 C40.9373342,40.7013307 41.1746651,40.2480019 41.484,39.864 C41.7933349,39.4799981 42.1639978,39.1800011 42.596,38.964 C43.0280022,38.7479989 43.5133306,38.64 44.052,38.64 C44.510669,38.64 44.902665,38.7119993 45.228,38.856 C45.553335,39.0000007 45.8439987,39.1946654 46.1,39.44 L46.1,35.112 L48.076,35.112 Z M53.66,38.664 C54.268003,38.664 54.8213308,38.7626657 55.32,38.96 C55.8186692,39.1573343 56.2453316,39.4373315 56.6,39.8 C56.9546684,40.1626685 57.227999,40.6053307 57.42,41.128 C57.612001,41.6506693 57.708,42.2346634 57.708,42.88 C57.708,43.5306699 57.612001,44.1173307 57.42,44.64 C57.227999,45.1626693 56.9546684,45.6079982 56.6,45.976 C56.2453316,46.3440018 55.8186692,46.6266657 55.32,46.824 C54.8213308,47.0213343 54.268003,47.12 53.66,47.12 C53.0466636,47.12 52.4893358,47.0213343 51.988,46.824 C51.4866642,46.6266657 51.0586684,46.3440018 50.704,45.976 C50.3493316,45.6079982 50.0746676,45.1626693 49.88,44.64 C49.6853324,44.1173307 49.588,43.5306699 49.588,42.88 C49.588,42.2346634 49.6853324,41.6506693 49.88,41.128 C50.0746676,40.6053307 50.3493316,40.1626685 50.704,39.8 C51.0586684,39.4373315 51.4866642,39.1573343 51.988,38.96 C52.4893358,38.7626657 53.0466636,38.664 53.66,38.664 L53.66,38.664 Z M53.66,45.6 C54.3426701,45.6 54.8479984,45.370669 55.176,44.912 C55.5040016,44.453331 55.668,43.7813378 55.668,42.896 C55.668,42.0106622 55.5040016,41.3360023 55.176,40.872 C54.8479984,40.4079977 54.3426701,40.176 53.66,40.176 C52.9666632,40.176 52.453335,40.409331 52.12,40.876 C51.786665,41.342669 51.62,42.0159956 51.62,42.896 C51.62,43.7760044 51.786665,44.4466644 52.12,44.908 C52.453335,45.3693356 52.9666632,45.6 53.66,45.6 L53.66,45.6 Z M4.184,58.936 C4.58933536,58.936 4.94266516,58.8853338 5.244,58.784 C5.54533484,58.6826662 5.79333236,58.5426676 5.988,58.364 C6.18266764,58.1853324 6.32799952,57.9733346 6.424,57.728 C6.52000048,57.4826654 6.568,57.2133348 6.568,56.92 C6.568,56.3333304 6.3746686,55.8826682 5.988,55.568 C5.6013314,55.2533318 5.01067064,55.096 4.216,55.096 L2.84,55.096 L2.84,58.936 L4.184,58.936 Z M9.72,65 L7.776,65 C7.40799816,65 7.14133416,64.8560014 6.976,64.568 L4.544,60.864 C4.45333288,60.7253326 4.35333388,60.626667 4.244,60.568 C4.13466612,60.509333 3.9733344,60.48 3.76,60.48 L2.84,60.48 L2.84,65 L0.688,65 L0.688,53.432 L4.216,53.432 C5.00000392,53.432 5.67333052,53.5133325 6.236,53.676 C6.79866948,53.8386675 7.2599982,54.0666652 7.62,54.36 C7.9800018,54.6533348 8.24533248,55.003998 8.416,55.412 C8.58666752,55.820002 8.672,56.2693309 8.672,56.76 C8.672,57.1493353 8.61466724,57.5173316 8.5,57.864 C8.38533276,58.2106684 8.22000108,58.5253319 8.004,58.808 C7.78799892,59.0906681 7.52133492,59.3386656 7.204,59.552 C6.88666508,59.7653344 6.52533536,59.9333327 6.12,60.056 C6.25866736,60.1360004 6.38666608,60.2306661 6.504,60.34 C6.62133392,60.4493339 6.72799952,60.5786659 6.824,60.728 L9.72,65 Z M15.416,59.952 C15.416,59.6959987 15.3800004,59.4546678 15.308,59.228 C15.2359996,59.0013322 15.1280007,58.8026675 14.984,58.632 C14.8399993,58.4613325 14.6573344,58.3266672 14.436,58.228 C14.2146656,58.1293328 13.9573348,58.08 13.664,58.08 C13.0933305,58.08 12.6440016,58.242665 12.316,58.568 C11.9879984,58.893335 11.7786671,59.3546637 11.688,59.952 L15.416,59.952 Z M11.648,61.144 C11.6800002,61.5653354 11.7546661,61.9293318 11.872,62.236 C11.9893339,62.5426682 12.143999,62.795999 12.336,62.996 C12.528001,63.196001 12.7559987,63.3453328 13.02,63.444 C13.2840013,63.5426672 13.5759984,63.592 13.896,63.592 C14.2160016,63.592 14.4919988,63.554667 14.724,63.48 C14.9560012,63.405333 15.1586658,63.3226671 15.332,63.232 C15.5053342,63.1413329 15.6573327,63.058667 15.788,62.984 C15.9186673,62.909333 16.0453327,62.872 16.168,62.872 C16.3333342,62.872 16.4559996,62.9333327 16.536,63.056 L17.104,63.776 C16.8853322,64.0320013 16.6400014,64.2466658 16.368,64.42 C16.0959986,64.5933342 15.8120015,64.7319995 15.516,64.836 C15.2199985,64.9400005 14.9186682,65.0133331 14.612,65.056 C14.3053318,65.0986669 14.0080014,65.12 13.72,65.12 C13.1493305,65.12 12.6186691,65.0253343 12.128,64.836 C11.6373309,64.6466657 11.2106685,64.3666685 10.848,63.996 C10.4853315,63.6253315 10.200001,63.1666694 9.992,62.62 C9.78399896,62.0733306 9.68,61.4400036 9.68,60.72 C9.68,60.1599972 9.77066576,59.6333358 9.952,59.14 C10.1333342,58.6466642 10.3933316,58.2173352 10.732,57.852 C11.0706684,57.4866648 11.4839976,57.1973344 11.972,56.984 C12.4600024,56.7706656 13.0106636,56.664 13.624,56.664 C14.1413359,56.664 14.6186645,56.7466658 15.056,56.912 C15.4933355,57.0773342 15.8693318,57.3186651 16.184,57.636 C16.4986682,57.9533349 16.7453324,58.3426644 16.924,58.804 C17.1026676,59.2653356 17.192,59.791997 17.192,60.384 C17.192,60.6826682 17.1600003,60.8839995 17.096,60.988 C17.0319997,61.0920005 16.9093342,61.144 16.728,61.144 L11.648,61.144 Z M23.008,61.496 C22.4373305,61.5226668 21.9573353,61.5719996 21.568,61.644 C21.1786647,61.7160004 20.8666678,61.8079994 20.632,61.92 C20.3973322,62.0320006 20.2293338,62.1626659 20.128,62.312 C20.0266662,62.4613341 19.976,62.6239991 19.976,62.8 C19.976,63.1466684 20.0786656,63.3946659 20.284,63.544 C20.4893344,63.6933341 20.7573317,63.768 21.088,63.768 C21.4933354,63.768 21.8439985,63.6946674 22.14,63.548 C22.4360015,63.4013326 22.7253319,63.1786682 23.008,62.88 L23.008,61.496 Z M18.48,57.936 C19.4240047,57.0719957 20.5599934,56.64 21.888,56.64 C22.3680024,56.64 22.7973314,56.7186659 23.176,56.876 C23.5546686,57.0333341 23.8746654,57.2519986 24.136,57.532 C24.3973346,57.8120014 24.5959993,58.1466647 24.732,58.536 C24.8680007,58.9253353 24.936,59.3519977 24.936,59.816 L24.936,65 L24.04,65 C23.8533324,65 23.7093338,64.9720003 23.608,64.916 C23.5066662,64.8599997 23.426667,64.7466675 23.368,64.576 L23.192,63.984 C22.983999,64.1706676 22.7813343,64.334666 22.584,64.476 C22.3866657,64.617334 22.1813344,64.7359995 21.968,64.832 C21.7546656,64.9280005 21.5266679,65.0013331 21.284,65.052 C21.0413321,65.1026669 20.7733348,65.128 20.48,65.128 C20.1333316,65.128 19.8133348,65.0813338 19.52,64.988 C19.2266652,64.8946662 18.9733344,64.7546676 18.76,64.568 C18.5466656,64.3813324 18.3813339,64.1493347 18.264,63.872 C18.1466661,63.5946653 18.088,63.2720018 18.088,62.904 C18.088,62.695999 18.1226663,62.4893344 18.192,62.284 C18.2613337,62.0786656 18.3746659,61.8826676 18.532,61.696 C18.6893341,61.5093324 18.8933321,61.3333342 19.144,61.168 C19.3946679,61.0026658 19.7026648,60.8586673 20.068,60.736 C20.4333352,60.6133327 20.8586642,60.5133337 21.344,60.436 C21.8293358,60.3586663 22.3839969,60.3120001 23.008,60.296 L23.008,59.816 C23.008,59.2666639 22.8906678,58.8600013 22.656,58.596 C22.4213322,58.3319987 22.0826689,58.2 21.64,58.2 C21.3199984,58.2 21.0546677,58.237333 20.844,58.312 C20.6333323,58.386667 20.4480008,58.4706662 20.288,58.564 C20.1279992,58.6573338 19.9826673,58.741333 19.852,58.816 C19.7213327,58.890667 19.5760008,58.928 19.416,58.928 C19.2773326,58.928 19.1600005,58.8920004 19.064,58.82 C18.9679995,58.7479996 18.890667,58.6640005 18.832,58.568 L18.48,57.936 Z M28.792,53.112 L28.792,65 L26.816,65 L26.816,53.112 L28.792,53.112 Z M32.816,56.792 L32.816,65 L30.832,65 L30.832,56.792 L32.816,56.792 Z M33.088,54.4 C33.088,54.5706675 33.0533337,54.7306659 32.984,54.88 C32.9146663,55.0293341 32.8226672,55.1599994 32.708,55.272 C32.5933328,55.3840006 32.4586674,55.473333 32.304,55.54 C32.1493326,55.606667 31.9840009,55.64 31.808,55.64 C31.6373325,55.64 31.4760008,55.606667 31.324,55.54 C31.1719992,55.473333 31.0400006,55.3840006 30.928,55.272 C30.8159994,55.1599994 30.726667,55.0293341 30.66,54.88 C30.593333,54.7306659 30.56,54.5706675 30.56,54.4 C30.56,54.2239991 30.593333,54.0586674 30.66,53.904 C30.726667,53.7493326 30.8159994,53.6160006 30.928,53.504 C31.0400006,53.3919994 31.1719992,53.302667 31.324,53.236 C31.4760008,53.169333 31.6373325,53.136 31.808,53.136 C31.9840009,53.136 32.1493326,53.169333 32.304,53.236 C32.4586674,53.302667 32.5933328,53.3919994 32.708,53.504 C32.8226672,53.6160006 32.9146663,53.7493326 32.984,53.904 C33.0533337,54.0586674 33.088,54.2239991 33.088,54.4 L33.088,54.4 Z M40.728,57.608 C40.728,57.7466674 40.7040002,57.882666 40.656,58.016 C40.6079998,58.149334 40.5440004,58.2586662 40.464,58.344 L36.568,63.48 L40.608,63.48 L40.608,65 L34.272,65 L34.272,64.176 C34.272,64.0853329 34.2933331,63.977334 34.336,63.852 C34.3786669,63.726666 34.4426662,63.6080006 34.528,63.496 L38.464,58.304 L34.504,58.304 L34.504,56.792 L40.728,56.792 L40.728,57.608 Z M46.52,61.496 C45.9493305,61.5226668 45.4693353,61.5719996 45.08,61.644 C44.6906647,61.7160004 44.3786678,61.8079994 44.144,61.92 C43.9093322,62.0320006 43.7413338,62.1626659 43.64,62.312 C43.5386662,62.4613341 43.488,62.6239991 43.488,62.8 C43.488,63.1466684 43.5906656,63.3946659 43.796,63.544 C44.0013344,63.6933341 44.2693317,63.768 44.6,63.768 C45.0053354,63.768 45.3559985,63.6946674 45.652,63.548 C45.9480015,63.4013326 46.2373319,63.1786682 46.52,62.88 L46.52,61.496 Z M41.992,57.936 C42.9360047,57.0719957 44.0719934,56.64 45.4,56.64 C45.8800024,56.64 46.3093314,56.7186659 46.688,56.876 C47.0666686,57.0333341 47.3866654,57.2519986 47.648,57.532 C47.9093346,57.8120014 48.1079993,58.1466647 48.244,58.536 C48.3800007,58.9253353 48.448,59.3519977 48.448,59.816 L48.448,65 L47.552,65 C47.3653324,65 47.2213338,64.9720003 47.12,64.916 C47.0186662,64.8599997 46.938667,64.7466675 46.88,64.576 L46.704,63.984 C46.495999,64.1706676 46.2933343,64.334666 46.096,64.476 C45.8986657,64.617334 45.6933344,64.7359995 45.48,64.832 C45.2666656,64.9280005 45.0386679,65.0013331 44.796,65.052 C44.5533321,65.1026669 44.2853348,65.128 43.992,65.128 C43.6453316,65.128 43.3253348,65.0813338 43.032,64.988 C42.7386652,64.8946662 42.4853344,64.7546676 42.272,64.568 C42.0586656,64.3813324 41.8933339,64.1493347 41.776,63.872 C41.6586661,63.5946653 41.6,63.2720018 41.6,62.904 C41.6,62.695999 41.6346663,62.4893344 41.704,62.284 C41.7733337,62.0786656 41.8866659,61.8826676 42.044,61.696 C42.2013341,61.5093324 42.4053321,61.3333342 42.656,61.168 C42.9066679,61.0026658 43.2146648,60.8586673 43.58,60.736 C43.9453352,60.6133327 44.3706642,60.5133337 44.856,60.436 C45.3413358,60.3586663 45.8959969,60.3120001 46.52,60.296 L46.52,59.816 C46.52,59.2666639 46.4026678,58.8600013 46.168,58.596 C45.9333322,58.3319987 45.5946689,58.2 45.152,58.2 C44.8319984,58.2 44.5666677,58.237333 44.356,58.312 C44.1453323,58.386667 43.9600008,58.4706662 43.8,58.564 C43.6399992,58.6573338 43.4946673,58.741333 43.364,58.816 C43.2333327,58.890667 43.0880008,58.928 42.928,58.928 C42.7893326,58.928 42.6720005,58.8920004 42.576,58.82 C42.4799995,58.7479996 42.402667,58.6640005 42.344,58.568 L41.992,57.936 Z M55.456,58.888 C55.2319989,58.6159986 54.9880013,58.4240006 54.724,58.312 C54.4599987,58.1999994 54.1760015,58.144 53.872,58.144 C53.5733318,58.144 53.3040012,58.1999994 53.064,58.312 C52.8239988,58.4240006 52.6186675,58.5933322 52.448,58.82 C52.2773325,59.0466678 52.1466671,59.3346649 52.056,59.684 C51.9653329,60.0333351 51.92,60.445331 51.92,60.92 C51.92,61.4000024 51.9586663,61.806665 52.036,62.14 C52.1133337,62.473335 52.2239993,62.7453323 52.368,62.956 C52.5120007,63.1666677 52.687999,63.3186662 52.896,63.412 C53.104001,63.5053338 53.3359987,63.552 53.592,63.552 C54.0026687,63.552 54.3519986,63.4666675 54.64,63.296 C54.9280014,63.1253325 55.1999987,62.8826682 55.456,62.568 L55.456,58.888 Z M57.432,53.112 L57.432,65 L56.224,65 C55.9626654,65 55.7973337,64.8800012 55.728,64.64 L55.56,63.848 C55.2293317,64.2266686 54.8493355,64.5333322 54.42,64.768 C53.9906645,65.0026678 53.4906695,65.12 52.92,65.12 C52.4719978,65.12 52.0613352,65.0266676 51.688,64.84 C51.3146648,64.6533324 50.9933347,64.3826684 50.724,64.028 C50.4546653,63.6733316 50.2466674,63.2346693 50.1,62.712 C49.9533326,62.1893307 49.88,61.5920034 49.88,60.92 C49.88,60.311997 49.9626658,59.7466693 50.128,59.224 C50.2933342,58.7013307 50.5306651,58.2480019 50.84,57.864 C51.1493349,57.4799981 51.5199978,57.1800011 51.952,56.964 C52.3840022,56.7479989 52.8693306,56.64 53.408,56.64 C53.866669,56.64 54.258665,56.7119993 54.584,56.856 C54.909335,57.0000007 55.1999987,57.1946654 55.456,57.44 L55.456,53.112 L57.432,53.112 Z M63.016,56.664 C63.624003,56.664 64.1773308,56.7626657 64.676,56.96 C65.1746692,57.1573343 65.6013316,57.4373315 65.956,57.8 C66.3106684,58.1626685 66.583999,58.6053307 66.776,59.128 C66.968001,59.6506693 67.064,60.2346634 67.064,60.88 C67.064,61.5306699 66.968001,62.1173307 66.776,62.64 C66.583999,63.1626693 66.3106684,63.6079982 65.956,63.976 C65.6013316,64.3440018 65.1746692,64.6266657 64.676,64.824 C64.1773308,65.0213343 63.624003,65.12 63.016,65.12 C62.4026636,65.12 61.8453358,65.0213343 61.344,64.824 C60.8426642,64.6266657 60.4146684,64.3440018 60.06,63.976 C59.7053316,63.6079982 59.4306676,63.1626693 59.236,62.64 C59.0413324,62.1173307 58.944,61.5306699 58.944,60.88 C58.944,60.2346634 59.0413324,59.6506693 59.236,59.128 C59.4306676,58.6053307 59.7053316,58.1626685 60.06,57.8 C60.4146684,57.4373315 60.8426642,57.1573343 61.344,56.96 C61.8453358,56.7626657 62.4026636,56.664 63.016,56.664 L63.016,56.664 Z M63.016,63.6 C63.6986701,63.6 64.2039984,63.370669 64.532,62.912 C64.8600016,62.453331 65.024,61.7813378 65.024,60.896 C65.024,60.0106622 64.8600016,59.3360023 64.532,58.872 C64.2039984,58.4079977 63.6986701,58.176 63.016,58.176 C62.3226632,58.176 61.809335,58.409331 61.476,58.876 C61.142665,59.342669 60.976,60.0159956 60.976,60.896 C60.976,61.7760044 61.142665,62.4466644 61.476,62.908 C61.809335,63.3693356 62.3226632,63.6 63.016,63.6 L63.016,63.6 Z" id="Pedido" fill="#0071B3"></path>
                    <path d="M137.972,42.632 L136.564,38.784 C136.494666,38.6133325 136.422667,38.4106678 136.348,38.176 C136.273333,37.9413322 136.198667,37.6880014 136.124,37.416 C136.054666,37.6880014 135.982667,37.9426655 135.908,38.18 C135.833333,38.4173345 135.761334,38.6239991 135.692,38.8 L134.292,42.632 L137.972,42.632 Z M141.772,47 L140.108,47 C139.921332,47 139.769334,46.9533338 139.652,46.86 C139.534666,46.7666662 139.446667,46.6506674 139.388,46.512 L138.524,44.152 L133.732,44.152 L132.868,46.512 C132.825333,46.6346673 132.742667,46.7466662 132.62,46.848 C132.497333,46.9493338 132.345334,47 132.164,47 L130.484,47 L135.036,35.432 L137.228,35.432 L141.772,47 Z M144.492,39.8 C144.657334,39.6346658 144.831999,39.481334 145.016,39.34 C145.200001,39.198666 145.394666,39.0786672 145.6,38.98 C145.805334,38.8813328 146.025332,38.8040003 146.26,38.748 C146.494668,38.6919997 146.750665,38.664 147.028,38.664 C147.476002,38.664 147.873332,38.7399992 148.22,38.892 C148.566668,39.0440008 148.855999,39.257332 149.088,39.532 C149.320001,39.806668 149.495999,40.1346648 149.616,40.516 C149.736001,40.8973352 149.796,41.317331 149.796,41.776 L149.796,47 L147.82,47 L147.82,41.776 C147.82,41.2746642 147.705334,40.886668 147.476,40.612 C147.246666,40.337332 146.897336,40.2 146.428,40.2 C146.086665,40.2 145.766668,40.2773326 145.468,40.432 C145.169332,40.5866674 144.886668,40.797332 144.62,41.064 L144.62,47 L142.644,47 L142.644,38.792 L143.852,38.792 C144.108001,38.792 144.276,38.9119988 144.356,39.152 L144.492,39.8 Z M156.004,43.496 C155.43333,43.5226668 154.953335,43.5719996 154.564,43.644 C154.174665,43.7160004 153.862668,43.8079994 153.628,43.92 C153.393332,44.0320006 153.225334,44.1626659 153.124,44.312 C153.022666,44.4613341 152.972,44.6239991 152.972,44.8 C152.972,45.1466684 153.074666,45.3946659 153.28,45.544 C153.485334,45.6933341 153.753332,45.768 154.084,45.768 C154.489335,45.768 154.839999,45.6946674 155.136,45.548 C155.432001,45.4013326 155.721332,45.1786682 156.004,44.88 L156.004,43.496 Z M151.476,39.936 C152.420005,39.0719957 153.555993,38.64 154.884,38.64 C155.364002,38.64 155.793331,38.7186659 156.172,38.876 C156.550669,39.0333341 156.870665,39.2519986 157.132,39.532 C157.393335,39.8120014 157.591999,40.1466647 157.728,40.536 C157.864001,40.9253353 157.932,41.3519977 157.932,41.816 L157.932,47 L157.036,47 C156.849332,47 156.705334,46.9720003 156.604,46.916 C156.502666,46.8599997 156.422667,46.7466675 156.364,46.576 L156.188,45.984 C155.979999,46.1706676 155.777334,46.334666 155.58,46.476 C155.382666,46.617334 155.177334,46.7359995 154.964,46.832 C154.750666,46.9280005 154.522668,47.0013331 154.28,47.052 C154.037332,47.1026669 153.769335,47.128 153.476,47.128 C153.129332,47.128 152.809335,47.0813338 152.516,46.988 C152.222665,46.8946662 151.969334,46.7546676 151.756,46.568 C151.542666,46.3813324 151.377334,46.1493347 151.26,45.872 C151.142666,45.5946653 151.084,45.2720018 151.084,44.904 C151.084,44.695999 151.118666,44.4893344 151.188,44.284 C151.257334,44.0786656 151.370666,43.8826676 151.528,43.696 C151.685334,43.5093324 151.889332,43.3333342 152.14,43.168 C152.390668,43.0026658 152.698665,42.8586673 153.064,42.736 C153.429335,42.6133327 153.854664,42.5133337 154.34,42.436 C154.825336,42.3586663 155.379997,42.3120001 156.004,42.296 L156.004,41.816 C156.004,41.2666639 155.886668,40.8600013 155.652,40.596 C155.417332,40.3319987 155.078669,40.2 154.636,40.2 C154.315998,40.2 154.050668,40.237333 153.84,40.312 C153.629332,40.386667 153.444001,40.4706662 153.284,40.564 C153.123999,40.6573338 152.978667,40.741333 152.848,40.816 C152.717333,40.890667 152.572001,40.928 152.412,40.928 C152.273333,40.928 152.156,40.8920004 152.06,40.82 C151.964,40.7479996 151.886667,40.6640005 151.828,40.568 L151.476,39.936 Z M157.468,35.304 L155.492,37.392 C155.390666,37.4986672 155.293334,37.5719998 155.2,37.612 C155.106666,37.6520002 154.985334,37.672 154.836,37.672 L153.652,37.672 L154.788,35.728 C154.868,35.5893326 154.961333,35.4840004 155.068,35.412 C155.174667,35.3399996 155.334666,35.304 155.548,35.304 L157.468,35.304 Z M161.788,35.112 L161.788,47 L159.812,47 L159.812,35.112 L161.788,35.112 Z M165.812,38.792 L165.812,47 L163.828,47 L163.828,38.792 L165.812,38.792 Z M166.084,36.4 C166.084,36.5706675 166.049334,36.7306659 165.98,36.88 C165.910666,37.0293341 165.818667,37.1599994 165.704,37.272 C165.589333,37.3840006 165.454667,37.473333 165.3,37.54 C165.145333,37.606667 164.980001,37.64 164.804,37.64 C164.633332,37.64 164.472001,37.606667 164.32,37.54 C164.167999,37.473333 164.036001,37.3840006 163.924,37.272 C163.811999,37.1599994 163.722667,37.0293341 163.656,36.88 C163.589333,36.7306659 163.556,36.5706675 163.556,36.4 C163.556,36.2239991 163.589333,36.0586674 163.656,35.904 C163.722667,35.7493326 163.811999,35.6160006 163.924,35.504 C164.036001,35.3919994 164.167999,35.302667 164.32,35.236 C164.472001,35.169333 164.633332,35.136 164.804,35.136 C164.980001,35.136 165.145333,35.169333 165.3,35.236 C165.454667,35.302667 165.589333,35.3919994 165.704,35.504 C165.818667,35.6160006 165.910666,35.7493326 165.98,35.904 C166.049334,36.0586674 166.084,36.2239991 166.084,36.4 L166.084,36.4 Z M172.836,40.392 C172.782666,40.4773338 172.726667,40.5373332 172.668,40.572 C172.609333,40.6066668 172.534667,40.624 172.444,40.624 C172.348,40.624 172.245334,40.5973336 172.136,40.544 C172.026666,40.4906664 171.900001,40.430667 171.756,40.364 C171.611999,40.297333 171.448001,40.2373336 171.264,40.184 C171.079999,40.1306664 170.862668,40.104 170.612,40.104 C170.222665,40.104 169.917334,40.1866658 169.696,40.352 C169.474666,40.5173342 169.364,40.733332 169.364,41 C169.364,41.1760009 169.421333,41.3239994 169.536,41.444 C169.650667,41.5640006 169.802666,41.6693329 169.992,41.76 C170.181334,41.8506671 170.395999,41.9319996 170.636,42.004 C170.876001,42.0760004 171.119999,42.1546662 171.368,42.24 C171.616001,42.3253338 171.859999,42.4226661 172.1,42.532 C172.340001,42.6413339 172.554666,42.7799992 172.744,42.948 C172.933334,43.1160008 173.085333,43.3173322 173.2,43.552 C173.314667,43.7866678 173.372,44.0693317 173.372,44.4 C173.372,44.7946686 173.301334,45.158665 173.16,45.492 C173.018666,45.825335 172.809335,46.1133321 172.532,46.356 C172.254665,46.5986679 171.912002,46.7879993 171.504,46.924 C171.095998,47.0600007 170.625336,47.128 170.092,47.128 C169.809332,47.128 169.533335,47.1026669 169.264,47.052 C168.994665,47.0013331 168.736001,46.9306671 168.488,46.84 C168.239999,46.7493329 168.010668,46.6426673 167.8,46.52 C167.589332,46.3973327 167.404001,46.2640007 167.244,46.12 L167.7,45.368 C167.758667,45.2773329 167.828,45.2080002 167.908,45.16 C167.988,45.1119998 168.089333,45.088 168.212,45.088 C168.334667,45.088 168.450666,45.1226663 168.56,45.192 C168.669334,45.2613337 168.795999,45.3359996 168.94,45.416 C169.084001,45.4960004 169.253332,45.5706663 169.448,45.64 C169.642668,45.7093337 169.889332,45.744 170.188,45.744 C170.422668,45.744 170.623999,45.7160003 170.792,45.66 C170.960001,45.6039997 171.098666,45.5306671 171.208,45.44 C171.317334,45.3493329 171.397333,45.2440006 171.448,45.124 C171.498667,45.0039994 171.524,44.8800006 171.524,44.752 C171.524,44.559999 171.466667,44.4026673 171.352,44.28 C171.237333,44.1573327 171.085334,44.0506671 170.896,43.96 C170.706666,43.8693329 170.490668,43.7880004 170.248,43.716 C170.005332,43.6439996 169.757335,43.5653338 169.504,43.48 C169.250665,43.3946662 169.002668,43.2946672 168.76,43.18 C168.517332,43.0653328 168.301334,42.9200009 168.112,42.744 C167.922666,42.5679991 167.770667,42.3520013 167.656,42.096 C167.541333,41.8399987 167.484,41.5306685 167.484,41.168 C167.484,40.8319983 167.550666,40.5120015 167.684,40.208 C167.817334,39.9039985 168.013332,39.6386678 168.272,39.412 C168.530668,39.1853322 168.853331,39.0040007 169.24,38.868 C169.626669,38.7319993 170.073331,38.664 170.58,38.664 C171.145336,38.664 171.659998,38.7573324 172.124,38.944 C172.588002,39.1306676 172.974665,39.3759985 173.284,39.68 L172.836,40.392 Z M180.148,41.952 C180.148,41.6959987 180.112,41.4546678 180.04,41.228 C179.968,41.0013322 179.860001,40.8026675 179.716,40.632 C179.571999,40.4613325 179.389334,40.3266672 179.168,40.228 C178.946666,40.1293328 178.689335,40.08 178.396,40.08 C177.82533,40.08 177.376002,40.242665 177.048,40.568 C176.719998,40.893335 176.510667,41.3546637 176.42,41.952 L180.148,41.952 Z M176.38,43.144 C176.412,43.5653354 176.486666,43.9293318 176.604,44.236 C176.721334,44.5426682 176.875999,44.795999 177.068,44.996 C177.260001,45.196001 177.487999,45.3453328 177.752,45.444 C178.016001,45.5426672 178.307998,45.592 178.628,45.592 C178.948002,45.592 179.223999,45.554667 179.456,45.48 C179.688001,45.405333 179.890666,45.3226671 180.064,45.232 C180.237334,45.1413329 180.389333,45.058667 180.52,44.984 C180.650667,44.909333 180.777333,44.872 180.9,44.872 C181.065334,44.872 181.188,44.9333327 181.268,45.056 L181.836,45.776 C181.617332,46.0320013 181.372001,46.2466658 181.1,46.42 C180.827999,46.5933342 180.544001,46.7319995 180.248,46.836 C179.951999,46.9400005 179.650668,47.0133331 179.344,47.056 C179.037332,47.0986669 178.740001,47.12 178.452,47.12 C177.88133,47.12 177.350669,47.0253343 176.86,46.836 C176.369331,46.6466657 175.942668,46.3666685 175.58,45.996 C175.217332,45.6253315 174.932001,45.1666694 174.724,44.62 C174.515999,44.0733306 174.412,43.4400036 174.412,42.72 C174.412,42.1599972 174.502666,41.6333358 174.684,41.14 C174.865334,40.6466642 175.125332,40.2173352 175.464,39.852 C175.802668,39.4866648 176.215998,39.1973344 176.704,38.984 C177.192002,38.7706656 177.742664,38.664 178.356,38.664 C178.873336,38.664 179.350664,38.7466658 179.788,38.912 C180.225336,39.0773342 180.601332,39.3186651 180.916,39.636 C181.230668,39.9533349 181.477332,40.3426644 181.656,40.804 C181.834668,41.2653356 181.924,41.791997 181.924,42.384 C181.924,42.6826682 181.892,42.8839995 181.828,42.988 C181.764,43.0920005 181.641334,43.144 181.46,43.144 L176.38,43.144 Z M126.764,58.888 C126.539999,58.6159986 126.296001,58.4240006 126.032,58.312 C125.767999,58.1999994 125.484002,58.144 125.18,58.144 C124.881332,58.144 124.612001,58.1999994 124.372,58.312 C124.131999,58.4240006 123.926668,58.5933322 123.756,58.82 C123.585332,59.0466678 123.454667,59.3346649 123.364,59.684 C123.273333,60.0333351 123.228,60.445331 123.228,60.92 C123.228,61.4000024 123.266666,61.806665 123.344,62.14 C123.421334,62.473335 123.531999,62.7453323 123.676,62.956 C123.820001,63.1666677 123.995999,63.3186662 124.204,63.412 C124.412001,63.5053338 124.643999,63.552 124.9,63.552 C125.310669,63.552 125.659999,63.4666675 125.948,63.296 C126.236001,63.1253325 126.507999,62.8826682 126.764,62.568 L126.764,58.888 Z M128.74,53.112 L128.74,65 L127.532,65 C127.270665,65 127.105334,64.8800012 127.036,64.64 L126.868,63.848 C126.537332,64.2266686 126.157335,64.5333322 125.728,64.768 C125.298665,65.0026678 124.79867,65.12 124.228,65.12 C123.779998,65.12 123.369335,65.0266676 122.996,64.84 C122.622665,64.6533324 122.301335,64.3826684 122.032,64.028 C121.762665,63.6733316 121.554667,63.2346693 121.408,62.712 C121.261333,62.1893307 121.188,61.5920034 121.188,60.92 C121.188,60.311997 121.270666,59.7466693 121.436,59.224 C121.601334,58.7013307 121.838665,58.2480019 122.148,57.864 C122.457335,57.4799981 122.827998,57.1800011 123.26,56.964 C123.692002,56.7479989 124.177331,56.64 124.716,56.64 C125.174669,56.64 125.566665,56.7119993 125.892,56.856 C126.217335,57.0000007 126.507999,57.1946654 126.764,57.44 L126.764,53.112 L128.74,53.112 Z M135.98,59.952 C135.98,59.6959987 135.944,59.4546678 135.872,59.228 C135.8,59.0013322 135.692001,58.8026675 135.548,58.632 C135.403999,58.4613325 135.221334,58.3266672 135,58.228 C134.778666,58.1293328 134.521335,58.08 134.228,58.08 C133.65733,58.08 133.208002,58.242665 132.88,58.568 C132.551998,58.893335 132.342667,59.3546637 132.252,59.952 L135.98,59.952 Z M132.212,61.144 C132.244,61.5653354 132.318666,61.9293318 132.436,62.236 C132.553334,62.5426682 132.707999,62.795999 132.9,62.996 C133.092001,63.196001 133.319999,63.3453328 133.584,63.444 C133.848001,63.5426672 134.139998,63.592 134.46,63.592 C134.780002,63.592 135.055999,63.554667 135.288,63.48 C135.520001,63.405333 135.722666,63.3226671 135.896,63.232 C136.069334,63.1413329 136.221333,63.058667 136.352,62.984 C136.482667,62.909333 136.609333,62.872 136.732,62.872 C136.897334,62.872 137.02,62.9333327 137.1,63.056 L137.668,63.776 C137.449332,64.0320013 137.204001,64.2466658 136.932,64.42 C136.659999,64.5933342 136.376001,64.7319995 136.08,64.836 C135.783999,64.9400005 135.482668,65.0133331 135.176,65.056 C134.869332,65.0986669 134.572001,65.12 134.284,65.12 C133.71333,65.12 133.182669,65.0253343 132.692,64.836 C132.201331,64.6466657 131.774668,64.3666685 131.412,63.996 C131.049332,63.6253315 130.764001,63.1666694 130.556,62.62 C130.347999,62.0733306 130.244,61.4400036 130.244,60.72 C130.244,60.1599972 130.334666,59.6333358 130.516,59.14 C130.697334,58.6466642 130.957332,58.2173352 131.296,57.852 C131.634668,57.4866648 132.047998,57.1973344 132.536,56.984 C133.024002,56.7706656 133.574664,56.664 134.188,56.664 C134.705336,56.664 135.182664,56.7466658 135.62,56.912 C136.057336,57.0773342 136.433332,57.3186651 136.748,57.636 C137.062668,57.9533349 137.309332,58.3426644 137.488,58.804 C137.666668,59.2653356 137.756,59.791997 137.756,60.384 C137.756,60.6826682 137.724,60.8839995 137.66,60.988 C137.596,61.0920005 137.473334,61.144 137.292,61.144 L132.212,61.144 Z M149.004,58.528 C148.945333,58.602667 148.888,58.6613331 148.832,58.704 C148.776,58.7466669 148.694667,58.768 148.588,58.768 C148.486666,58.768 148.388,58.7373336 148.292,58.676 C148.196,58.6146664 148.081334,58.5453337 147.948,58.468 C147.814666,58.3906663 147.656001,58.3213336 147.472,58.26 C147.287999,58.1986664 147.060001,58.168 146.788,58.168 C146.441332,58.168 146.137335,58.230666 145.876,58.356 C145.614665,58.481334 145.397334,58.6613322 145.224,58.896 C145.050666,59.1306678 144.921334,59.414665 144.836,59.748 C144.750666,60.081335 144.708,60.4586646 144.708,60.88 C144.708,61.3173355 144.754666,61.706665 144.848,62.048 C144.941334,62.389335 145.075999,62.6759988 145.252,62.908 C145.428001,63.1400012 145.641332,63.3159994 145.892,63.436 C146.142668,63.5560006 146.425332,63.616 146.74,63.616 C147.054668,63.616 147.309332,63.5773337 147.504,63.5 C147.698668,63.4226663 147.862666,63.3373338 147.996,63.244 C148.129334,63.1506662 148.245333,63.0653337 148.344,62.988 C148.442667,62.9106663 148.553333,62.872 148.676,62.872 C148.836001,62.872 148.956,62.9333327 149.036,63.056 L149.604,63.776 C149.385332,64.0320013 149.148001,64.2466658 148.892,64.42 C148.635999,64.5933342 148.370668,64.7319995 148.096,64.836 C147.821332,64.9400005 147.538668,65.0133331 147.248,65.056 C146.957332,65.0986669 146.668001,65.12 146.38,65.12 C145.873331,65.12 145.396002,65.0253343 144.948,64.836 C144.499998,64.6466657 144.108002,64.3706685 143.772,64.008 C143.435998,63.6453315 143.170668,63.201336 142.976,62.676 C142.781332,62.150664 142.684,61.5520034 142.684,60.88 C142.684,60.2773303 142.770666,59.7186692 142.944,59.204 C143.117334,58.6893308 143.371998,58.2440019 143.708,57.868 C144.044002,57.4919981 144.459998,57.1973344 144.956,56.984 C145.452002,56.7706656 146.022663,56.664 146.668,56.664 C147.281336,56.664 147.818664,56.7626657 148.28,56.96 C148.741336,57.1573343 149.155998,57.4399982 149.524,57.808 L149.004,58.528 Z M152.7,58.216 C152.956001,57.7253309 153.259998,57.3400014 153.612,57.06 C153.964002,56.7799986 154.379998,56.64 154.86,56.64 C155.238669,56.64 155.542666,56.7226658 155.772,56.888 L155.644,58.368 C155.617333,58.4640005 155.578667,58.5319998 155.528,58.572 C155.477333,58.6120002 155.409334,58.632 155.324,58.632 C155.244,58.632 155.125334,58.6186668 154.968,58.592 C154.810666,58.5653332 154.657334,58.552 154.508,58.552 C154.289332,58.552 154.094668,58.5839997 153.924,58.648 C153.753332,58.7120003 153.600001,58.8039994 153.464,58.924 C153.327999,59.0440006 153.208001,59.1893325 153.104,59.36 C152.999999,59.5306675 152.902667,59.7253322 152.812,59.944 L152.812,65 L150.836,65 L150.836,56.792 L151.996,56.792 C152.198668,56.792 152.34,56.8279996 152.42,56.9 C152.5,56.9720004 152.553333,57.1013324 152.58,57.288 L152.7,58.216 Z M161.86,59.952 C161.86,59.6959987 161.824,59.4546678 161.752,59.228 C161.68,59.0013322 161.572001,58.8026675 161.428,58.632 C161.283999,58.4613325 161.101334,58.3266672 160.88,58.228 C160.658666,58.1293328 160.401335,58.08 160.108,58.08 C159.53733,58.08 159.088002,58.242665 158.76,58.568 C158.431998,58.893335 158.222667,59.3546637 158.132,59.952 L161.86,59.952 Z M158.092,61.144 C158.124,61.5653354 158.198666,61.9293318 158.316,62.236 C158.433334,62.5426682 158.587999,62.795999 158.78,62.996 C158.972001,63.196001 159.199999,63.3453328 159.464,63.444 C159.728001,63.5426672 160.019998,63.592 160.34,63.592 C160.660002,63.592 160.935999,63.554667 161.168,63.48 C161.400001,63.405333 161.602666,63.3226671 161.776,63.232 C161.949334,63.1413329 162.101333,63.058667 162.232,62.984 C162.362667,62.909333 162.489333,62.872 162.612,62.872 C162.777334,62.872 162.9,62.9333327 162.98,63.056 L163.548,63.776 C163.329332,64.0320013 163.084001,64.2466658 162.812,64.42 C162.539999,64.5933342 162.256001,64.7319995 161.96,64.836 C161.663999,64.9400005 161.362668,65.0133331 161.056,65.056 C160.749332,65.0986669 160.452001,65.12 160.164,65.12 C159.59333,65.12 159.062669,65.0253343 158.572,64.836 C158.081331,64.6466657 157.654668,64.3666685 157.292,63.996 C156.929332,63.6253315 156.644001,63.1666694 156.436,62.62 C156.227999,62.0733306 156.124,61.4400036 156.124,60.72 C156.124,60.1599972 156.214666,59.6333358 156.396,59.14 C156.577334,58.6466642 156.837332,58.2173352 157.176,57.852 C157.514668,57.4866648 157.927998,57.1973344 158.416,56.984 C158.904002,56.7706656 159.454664,56.664 160.068,56.664 C160.585336,56.664 161.062664,56.7466658 161.5,56.912 C161.937336,57.0773342 162.313332,57.3186651 162.628,57.636 C162.942668,57.9533349 163.189332,58.3426644 163.368,58.804 C163.546668,59.2653356 163.636,59.791997 163.636,60.384 C163.636,60.6826682 163.604,60.8839995 163.54,60.988 C163.476,61.0920005 163.353334,61.144 163.172,61.144 L158.092,61.144 Z M162.884,53.304 L160.908,55.392 C160.806666,55.4986672 160.709334,55.5719998 160.616,55.612 C160.522666,55.6520002 160.401334,55.672 160.252,55.672 L159.068,55.672 L160.204,53.728 C160.284,53.5893326 160.377333,53.4840004 160.484,53.412 C160.590667,53.3399996 160.750666,53.304 160.964,53.304 L162.884,53.304 Z M170.268,58.888 C170.043999,58.6159986 169.800001,58.4240006 169.536,58.312 C169.271999,58.1999994 168.988002,58.144 168.684,58.144 C168.385332,58.144 168.116001,58.1999994 167.876,58.312 C167.635999,58.4240006 167.430668,58.5933322 167.26,58.82 C167.089332,59.0466678 166.958667,59.3346649 166.868,59.684 C166.777333,60.0333351 166.732,60.445331 166.732,60.92 C166.732,61.4000024 166.770666,61.806665 166.848,62.14 C166.925334,62.473335 167.035999,62.7453323 167.18,62.956 C167.324001,63.1666677 167.499999,63.3186662 167.708,63.412 C167.916001,63.5053338 168.147999,63.552 168.404,63.552 C168.814669,63.552 169.163999,63.4666675 169.452,63.296 C169.740001,63.1253325 170.011999,62.8826682 170.268,62.568 L170.268,58.888 Z M172.244,53.112 L172.244,65 L171.036,65 C170.774665,65 170.609334,64.8800012 170.54,64.64 L170.372,63.848 C170.041332,64.2266686 169.661335,64.5333322 169.232,64.768 C168.802665,65.0026678 168.30267,65.12 167.732,65.12 C167.283998,65.12 166.873335,65.0266676 166.5,64.84 C166.126665,64.6533324 165.805335,64.3826684 165.536,64.028 C165.266665,63.6733316 165.058667,63.2346693 164.912,62.712 C164.765333,62.1893307 164.692,61.5920034 164.692,60.92 C164.692,60.311997 164.774666,59.7466693 164.94,59.224 C165.105334,58.7013307 165.342665,58.2480019 165.652,57.864 C165.961335,57.4799981 166.331998,57.1800011 166.764,56.964 C167.196002,56.7479989 167.681331,56.64 168.22,56.64 C168.678669,56.64 169.070665,56.7119993 169.396,56.856 C169.721335,57.0000007 170.011999,57.1946654 170.268,57.44 L170.268,53.112 L172.244,53.112 Z M176.244,56.792 L176.244,65 L174.26,65 L174.26,56.792 L176.244,56.792 Z M176.516,54.4 C176.516,54.5706675 176.481334,54.7306659 176.412,54.88 C176.342666,55.0293341 176.250667,55.1599994 176.136,55.272 C176.021333,55.3840006 175.886667,55.473333 175.732,55.54 C175.577333,55.606667 175.412001,55.64 175.236,55.64 C175.065332,55.64 174.904001,55.606667 174.752,55.54 C174.599999,55.473333 174.468001,55.3840006 174.356,55.272 C174.243999,55.1599994 174.154667,55.0293341 174.088,54.88 C174.021333,54.7306659 173.988,54.5706675 173.988,54.4 C173.988,54.2239991 174.021333,54.0586674 174.088,53.904 C174.154667,53.7493326 174.243999,53.6160006 174.356,53.504 C174.468001,53.3919994 174.599999,53.302667 174.752,53.236 C174.904001,53.169333 175.065332,53.136 175.236,53.136 C175.412001,53.136 175.577333,53.169333 175.732,53.236 C175.886667,53.302667 176.021333,53.3919994 176.136,53.504 C176.250667,53.6160006 176.342666,53.7493326 176.412,53.904 C176.481334,54.0586674 176.516,54.2239991 176.516,54.4 L176.516,54.4 Z M180.996,65.128 C180.28133,65.128 179.733335,64.9266687 179.352,64.524 C178.970665,64.1213313 178.78,63.5653369 178.78,62.856 L178.78,58.272 L177.94,58.272 C177.833333,58.272 177.742667,58.2373337 177.668,58.168 C177.593333,58.0986663 177.556,57.9946674 177.556,57.856 L177.556,57.072 L178.876,56.856 L179.292,54.616 C179.318667,54.5093328 179.369333,54.426667 179.444,54.368 C179.518667,54.309333 179.614666,54.28 179.732,54.28 L180.756,54.28 L180.756,56.864 L182.948,56.864 L182.948,58.272 L180.756,58.272 L180.756,62.72 C180.756,62.9760013 180.818666,63.1759993 180.944,63.32 C181.069334,63.4640007 181.241332,63.536 181.46,63.536 C181.582667,63.536 181.685333,63.5213335 181.768,63.492 C181.850667,63.4626665 181.922666,63.4320002 181.984,63.4 C182.045334,63.3679998 182.1,63.3373335 182.148,63.308 C182.196,63.2786665 182.244,63.264 182.292,63.264 C182.350667,63.264 182.398666,63.2786665 182.436,63.308 C182.473334,63.3373335 182.513333,63.381333 182.556,63.44 L183.148,64.4 C182.859999,64.6400012 182.529335,64.8213327 182.156,64.944 C181.782665,65.0666673 181.396002,65.128 180.996,65.128 L180.996,65.128 Z M187.78,56.664 C188.388003,56.664 188.941331,56.7626657 189.44,56.96 C189.938669,57.1573343 190.365332,57.4373315 190.72,57.8 C191.074668,58.1626685 191.347999,58.6053307 191.54,59.128 C191.732001,59.6506693 191.828,60.2346634 191.828,60.88 C191.828,61.5306699 191.732001,62.1173307 191.54,62.64 C191.347999,63.1626693 191.074668,63.6079982 190.72,63.976 C190.365332,64.3440018 189.938669,64.6266657 189.44,64.824 C188.941331,65.0213343 188.388003,65.12 187.78,65.12 C187.166664,65.12 186.609336,65.0213343 186.108,64.824 C185.606664,64.6266657 185.178668,64.3440018 184.824,63.976 C184.469332,63.6079982 184.194668,63.1626693 184,62.64 C183.805332,62.1173307 183.708,61.5306699 183.708,60.88 C183.708,60.2346634 183.805332,59.6506693 184,59.128 C184.194668,58.6053307 184.469332,58.1626685 184.824,57.8 C185.178668,57.4373315 185.606664,57.1573343 186.108,56.96 C186.609336,56.7626657 187.166664,56.664 187.78,56.664 L187.78,56.664 Z M187.78,63.6 C188.46267,63.6 188.967998,63.370669 189.296,62.912 C189.624002,62.453331 189.788,61.7813378 189.788,60.896 C189.788,60.0106622 189.624002,59.3360023 189.296,58.872 C188.967998,58.4079977 188.46267,58.176 187.78,58.176 C187.086663,58.176 186.573335,58.409331 186.24,58.876 C185.906665,59.342669 185.74,60.0159956 185.74,60.896 C185.74,61.7760044 185.906665,62.4466644 186.24,62.908 C186.573335,63.3693356 187.086663,63.6 187.78,63.6 L187.78,63.6 Z" id="Análise" fill="#4A4A4A"></path>
                    <path d="M265.164,37.144 L265.164,40.352 L269.212,40.352 L269.212,42.008 L265.164,42.008 L265.164,45.28 L270.3,45.28 L270.3,47 L263.004,47 L263.004,35.432 L270.3,35.432 L270.3,37.144 L265.164,37.144 Z M273.564,39.8 C273.729334,39.6346658 273.903999,39.481334 274.088,39.34 C274.272001,39.198666 274.466666,39.0786672 274.672,38.98 C274.877334,38.8813328 275.097332,38.8040003 275.332,38.748 C275.566668,38.6919997 275.822665,38.664 276.1,38.664 C276.548002,38.664 276.945332,38.7399992 277.292,38.892 C277.638668,39.0440008 277.927999,39.257332 278.16,39.532 C278.392001,39.806668 278.567999,40.1346648 278.688,40.516 C278.808001,40.8973352 278.868,41.317331 278.868,41.776 L278.868,47 L276.892,47 L276.892,41.776 C276.892,41.2746642 276.777334,40.886668 276.548,40.612 C276.318666,40.337332 275.969336,40.2 275.5,40.2 C275.158665,40.2 274.838668,40.2773326 274.54,40.432 C274.241332,40.5866674 273.958668,40.797332 273.692,41.064 L273.692,47 L271.716,47 L271.716,38.792 L272.924,38.792 C273.180001,38.792 273.348,38.9119988 273.428,39.152 L273.564,39.8 Z M287.956,38.792 L284.7,47 L282.908,47 L279.652,38.792 L281.284,38.792 C281.433334,38.792 281.557333,38.8266663 281.656,38.896 C281.754667,38.9653337 281.82,39.0533328 281.852,39.16 L283.436,43.544 C283.521334,43.8000013 283.596,44.0506654 283.66,44.296 C283.724,44.5413346 283.78,44.7866654 283.828,45.032 C283.881334,44.7866654 283.94,44.5413346 284.004,44.296 C284.068,44.0506654 284.145333,43.8000013 284.236,43.544 L285.852,39.16 C285.889334,39.0533328 285.956,38.9653337 286.052,38.896 C286.148,38.8266663 286.262666,38.792 286.396,38.792 L287.956,38.792 Z M291.052,38.792 L291.052,47 L289.068,47 L289.068,38.792 L291.052,38.792 Z M291.324,36.4 C291.324,36.5706675 291.289334,36.7306659 291.22,36.88 C291.150666,37.0293341 291.058667,37.1599994 290.944,37.272 C290.829333,37.3840006 290.694667,37.473333 290.54,37.54 C290.385333,37.606667 290.220001,37.64 290.044,37.64 C289.873332,37.64 289.712001,37.606667 289.56,37.54 C289.407999,37.473333 289.276001,37.3840006 289.164,37.272 C289.051999,37.1599994 288.962667,37.0293341 288.896,36.88 C288.829333,36.7306659 288.796,36.5706675 288.796,36.4 C288.796,36.2239991 288.829333,36.0586674 288.896,35.904 C288.962667,35.7493326 289.051999,35.6160006 289.164,35.504 C289.276001,35.3919994 289.407999,35.302667 289.56,35.236 C289.712001,35.169333 289.873332,35.136 290.044,35.136 C290.220001,35.136 290.385333,35.169333 290.54,35.236 C290.694667,35.302667 290.829333,35.3919994 290.944,35.504 C291.058667,35.6160006 291.150666,35.7493326 291.22,35.904 C291.289334,36.0586674 291.324,36.2239991 291.324,36.4 L291.324,36.4 Z M296.7,38.664 C297.308003,38.664 297.861331,38.7626657 298.36,38.96 C298.858669,39.1573343 299.285332,39.4373315 299.64,39.8 C299.994668,40.1626685 300.267999,40.6053307 300.46,41.128 C300.652001,41.6506693 300.748,42.2346634 300.748,42.88 C300.748,43.5306699 300.652001,44.1173307 300.46,44.64 C300.267999,45.1626693 299.994668,45.6079982 299.64,45.976 C299.285332,46.3440018 298.858669,46.6266657 298.36,46.824 C297.861331,47.0213343 297.308003,47.12 296.7,47.12 C296.086664,47.12 295.529336,47.0213343 295.028,46.824 C294.526664,46.6266657 294.098668,46.3440018 293.744,45.976 C293.389332,45.6079982 293.114668,45.1626693 292.92,44.64 C292.725332,44.1173307 292.628,43.5306699 292.628,42.88 C292.628,42.2346634 292.725332,41.6506693 292.92,41.128 C293.114668,40.6053307 293.389332,40.1626685 293.744,39.8 C294.098668,39.4373315 294.526664,39.1573343 295.028,38.96 C295.529336,38.7626657 296.086664,38.664 296.7,38.664 L296.7,38.664 Z M296.7,45.6 C297.38267,45.6 297.887998,45.370669 298.216,44.912 C298.544002,44.453331 298.708,43.7813378 298.708,42.896 C298.708,42.0106622 298.544002,41.3360023 298.216,40.872 C297.887998,40.4079977 297.38267,40.176 296.7,40.176 C296.006663,40.176 295.493335,40.409331 295.16,40.876 C294.826665,41.342669 294.66,42.0159956 294.66,42.896 C294.66,43.7760044 294.826665,44.4466644 295.16,44.908 C295.493335,45.3693356 296.006663,45.6 296.7,45.6 L296.7,45.6 Z M260.168,58.888 C259.943999,58.6159986 259.700001,58.4240006 259.436,58.312 C259.171999,58.1999994 258.888002,58.144 258.584,58.144 C258.285332,58.144 258.016001,58.1999994 257.776,58.312 C257.535999,58.4240006 257.330668,58.5933322 257.16,58.82 C256.989332,59.0466678 256.858667,59.3346649 256.768,59.684 C256.677333,60.0333351 256.632,60.445331 256.632,60.92 C256.632,61.4000024 256.670666,61.806665 256.748,62.14 C256.825334,62.473335 256.935999,62.7453323 257.08,62.956 C257.224001,63.1666677 257.399999,63.3186662 257.608,63.412 C257.816001,63.5053338 258.047999,63.552 258.304,63.552 C258.714669,63.552 259.063999,63.4666675 259.352,63.296 C259.640001,63.1253325 259.911999,62.8826682 260.168,62.568 L260.168,58.888 Z M262.144,53.112 L262.144,65 L260.936,65 C260.674665,65 260.509334,64.8800012 260.44,64.64 L260.272,63.848 C259.941332,64.2266686 259.561335,64.5333322 259.132,64.768 C258.702665,65.0026678 258.20267,65.12 257.632,65.12 C257.183998,65.12 256.773335,65.0266676 256.4,64.84 C256.026665,64.6533324 255.705335,64.3826684 255.436,64.028 C255.166665,63.6733316 254.958667,63.2346693 254.812,62.712 C254.665333,62.1893307 254.592,61.5920034 254.592,60.92 C254.592,60.311997 254.674666,59.7466693 254.84,59.224 C255.005334,58.7013307 255.242665,58.2480019 255.552,57.864 C255.861335,57.4799981 256.231998,57.1800011 256.664,56.964 C257.096002,56.7479989 257.581331,56.64 258.12,56.64 C258.578669,56.64 258.970665,56.7119993 259.296,56.856 C259.621335,57.0000007 259.911999,57.1946654 260.168,57.44 L260.168,53.112 L262.144,53.112 Z M267.728,56.664 C268.336003,56.664 268.889331,56.7626657 269.388,56.96 C269.886669,57.1573343 270.313332,57.4373315 270.668,57.8 C271.022668,58.1626685 271.295999,58.6053307 271.488,59.128 C271.680001,59.6506693 271.776,60.2346634 271.776,60.88 C271.776,61.5306699 271.680001,62.1173307 271.488,62.64 C271.295999,63.1626693 271.022668,63.6079982 270.668,63.976 C270.313332,64.3440018 269.886669,64.6266657 269.388,64.824 C268.889331,65.0213343 268.336003,65.12 267.728,65.12 C267.114664,65.12 266.557336,65.0213343 266.056,64.824 C265.554664,64.6266657 265.126668,64.3440018 264.772,63.976 C264.417332,63.6079982 264.142668,63.1626693 263.948,62.64 C263.753332,62.1173307 263.656,61.5306699 263.656,60.88 C263.656,60.2346634 263.753332,59.6506693 263.948,59.128 C264.142668,58.6053307 264.417332,58.1626685 264.772,57.8 C265.126668,57.4373315 265.554664,57.1573343 266.056,56.96 C266.557336,56.7626657 267.114664,56.664 267.728,56.664 L267.728,56.664 Z M267.728,63.6 C268.41067,63.6 268.915998,63.370669 269.244,62.912 C269.572002,62.453331 269.736,61.7813378 269.736,60.896 C269.736,60.0106622 269.572002,59.3360023 269.244,58.872 C268.915998,58.4079977 268.41067,58.176 267.728,58.176 C267.034663,58.176 266.521335,58.409331 266.188,58.876 C265.854665,59.342669 265.688,60.0159956 265.688,60.896 C265.688,61.7760044 265.854665,62.4466644 266.188,62.908 C266.521335,63.3693356 267.034663,63.6 267.728,63.6 L267.728,63.6 Z M285.432,62.272 C285.549334,62.272 285.653333,62.3173329 285.744,62.408 L286.592,63.328 C286.122664,63.9093362 285.545337,64.3546651 284.86,64.664 C284.174663,64.9733349 283.352005,65.128 282.392,65.128 C281.533329,65.128 280.761337,64.9813348 280.076,64.688 C279.390663,64.3946652 278.805336,63.9866693 278.32,63.464 C277.834664,62.9413307 277.462668,62.317337 277.204,61.592 C276.945332,60.866663 276.816,60.074671 276.816,59.216 C276.816,58.3466623 276.954665,57.5506703 277.232,56.828 C277.509335,56.1053297 277.899997,55.4826693 278.404,54.96 C278.908003,54.4373307 279.50933,54.0306681 280.208,53.74 C280.90667,53.4493319 281.679996,53.304 282.528,53.304 C283.370671,53.304 284.118663,53.4426653 284.772,53.72 C285.425337,53.9973347 285.981331,54.3599978 286.44,54.808 L285.72,55.808 C285.677333,55.8720003 285.622667,55.9279998 285.556,55.976 C285.489333,56.0240002 285.397334,56.048 285.28,56.048 C285.2,56.048 285.117334,56.0253336 285.032,55.98 C284.946666,55.9346664 284.853334,55.878667 284.752,55.812 C284.650666,55.745333 284.533334,55.6720004 284.4,55.592 C284.266666,55.5119996 284.112001,55.438667 283.936,55.372 C283.759999,55.305333 283.556001,55.2493336 283.324,55.204 C283.091999,55.1586664 282.824002,55.136 282.52,55.136 C282.002664,55.136 281.529335,55.2279991 281.1,55.412 C280.670665,55.5960009 280.301335,55.8626649 279.992,56.212 C279.682665,56.5613351 279.442668,56.9879975 279.272,57.492 C279.101332,57.9960025 279.016,58.5706634 279.016,59.216 C279.016,59.8666699 279.107999,60.4453308 279.292,60.952 C279.476001,61.4586692 279.725332,61.8853316 280.04,62.232 C280.354668,62.5786684 280.725331,62.8439991 281.152,63.028 C281.578669,63.2120009 282.037331,63.304 282.528,63.304 C282.821335,63.304 283.086665,63.2880002 283.324,63.256 C283.561335,63.2239998 283.779999,63.1733337 283.98,63.104 C284.180001,63.0346663 284.369332,62.9453339 284.548,62.836 C284.726668,62.7266661 284.903999,62.5920008 285.08,62.432 C285.133334,62.3839998 285.189333,62.3453335 285.248,62.316 C285.306667,62.2866665 285.368,62.272 285.432,62.272 L285.432,62.272 Z M289.736,57.672 C290.056002,57.3733318 290.407998,57.1306676 290.792,56.944 C291.176002,56.7573324 291.626664,56.664 292.144,56.664 C292.592002,56.664 292.989332,56.7399992 293.336,56.892 C293.682668,57.0440008 293.971999,57.257332 294.204,57.532 C294.436001,57.806668 294.611999,58.1346648 294.732,58.516 C294.852001,58.8973352 294.912,59.317331 294.912,59.776 L294.912,65 L292.936,65 L292.936,59.776 C292.936,59.2746642 292.821334,58.886668 292.592,58.612 C292.362666,58.337332 292.013336,58.2 291.544,58.2 C291.202665,58.2 290.882668,58.2773326 290.584,58.432 C290.285332,58.5866674 290.002668,58.797332 289.736,59.064 L289.736,65 L287.76,65 L287.76,53.112 L289.736,53.112 L289.736,57.672 Z M298.832,56.792 L298.832,65 L296.848,65 L296.848,56.792 L298.832,56.792 Z M299.104,54.4 C299.104,54.5706675 299.069334,54.7306659 299,54.88 C298.930666,55.0293341 298.838667,55.1599994 298.724,55.272 C298.609333,55.3840006 298.474667,55.473333 298.32,55.54 C298.165333,55.606667 298.000001,55.64 297.824,55.64 C297.653332,55.64 297.492001,55.606667 297.34,55.54 C297.187999,55.473333 297.056001,55.3840006 296.944,55.272 C296.831999,55.1599994 296.742667,55.0293341 296.676,54.88 C296.609333,54.7306659 296.576,54.5706675 296.576,54.4 C296.576,54.2239991 296.609333,54.0586674 296.676,53.904 C296.742667,53.7493326 296.831999,53.6160006 296.944,53.504 C297.056001,53.3919994 297.187999,53.302667 297.34,53.236 C297.492001,53.169333 297.653332,53.136 297.824,53.136 C298.000001,53.136 298.165333,53.169333 298.32,53.236 C298.474667,53.302667 298.609333,53.3919994 298.724,53.504 C298.838667,53.6160006 298.930666,53.7493326 299,53.904 C299.069334,54.0586674 299.104,54.2239991 299.104,54.4 L299.104,54.4 Z M302.824,62.872 C303.048001,63.1440014 303.291999,63.3359994 303.556,63.448 C303.820001,63.5600006 304.106665,63.616 304.416,63.616 C304.714668,63.616 304.983999,63.5600006 305.224,63.448 C305.464001,63.3359994 305.667999,63.1653345 305.836,62.936 C306.004001,62.7066655 306.133333,62.4173351 306.224,62.068 C306.314667,61.7186649 306.36,61.306669 306.36,60.832 C306.36,60.3519976 306.321334,59.945335 306.244,59.612 C306.166666,59.278665 306.056001,59.008001 305.912,58.8 C305.767999,58.591999 305.593334,58.4400005 305.388,58.344 C305.182666,58.2479995 304.949335,58.2 304.688,58.2 C304.277331,58.2 303.928001,58.2866658 303.64,58.46 C303.351999,58.6333342 303.080001,58.8773318 302.824,59.192 L302.824,62.872 Z M302.72,57.912 C303.056002,57.5333314 303.437331,57.2266678 303.864,56.992 C304.290669,56.7573322 304.791997,56.64 305.368,56.64 C305.816002,56.64 306.225331,56.7333324 306.596,56.92 C306.966669,57.1066676 307.286665,57.3773316 307.556,57.732 C307.825335,58.0866684 308.033333,58.5239974 308.18,59.044 C308.326667,59.5640026 308.4,60.1599966 308.4,60.832 C308.4,61.4453364 308.317334,62.0133307 308.152,62.536 C307.986666,63.0586693 307.750668,63.5119981 307.444,63.896 C307.137332,64.2800019 306.766669,64.5799989 306.332,64.796 C305.897331,65.0120011 305.410669,65.12 304.872,65.12 C304.413331,65.12 304.021335,65.049334 303.696,64.908 C303.370665,64.766666 303.080001,64.5706679 302.824,64.32 L302.824,67.68 L300.848,67.68 L300.848,56.792 L302.056,56.792 C302.312001,56.792 302.48,56.9119988 302.56,57.152 L302.72,57.912 Z" id="Envio" fill="#4A4A4A"></path>
                    <path d="M49.875278,0.861276197 C49.4266205,0.412618676 48.6995846,0.412618676 48.2509271,0.861276197 L32.4646663,16.6475371 L25.7504507,9.93373059 C25.3017932,9.48507306 24.5746551,9.48507306 24.1260998,9.93373059 L20.3364931,13.723235 C19.8878356,14.1718925 19.8878356,14.8990306 20.3364931,15.3475859 L31.6525419,26.6632256 C31.876615,26.8877078 32.1706406,27 32.4646663,27 C32.7586919,27 33.0527175,26.8877078 33.2767906,26.6632256 L53.6648847,6.2751315 C53.8801626,6.05985362 54.00125,5.76746432 54.00125,5.46300718 C54.00125,5.15855005 53.8801626,4.86616075 53.6648847,4.65088287 L49.875278,0.861276197 Z" id="Fill-1" fill="#0071B3"></path>
                    <path d="M382.74,42.632 L381.332,38.784 C381.262666,38.6133325 381.190667,38.4106678 381.116,38.176 C381.041333,37.9413322 380.966667,37.6880014 380.892,37.416 C380.822666,37.6880014 380.750667,37.9426655 380.676,38.18 C380.601333,38.4173345 380.529334,38.6239991 380.46,38.8 L379.06,42.632 L382.74,42.632 Z M386.54,47 L384.876,47 C384.689332,47 384.537334,46.9533338 384.42,46.86 C384.302666,46.7666662 384.214667,46.6506674 384.156,46.512 L383.292,44.152 L378.5,44.152 L377.636,46.512 C377.593333,46.6346673 377.510667,46.7466662 377.388,46.848 C377.265333,46.9493338 377.113334,47 376.932,47 L375.252,47 L379.804,35.432 L381.996,35.432 L386.54,47 Z M395.212,47 L393.236,47 L393.236,40.272 L389.428,40.272 L389.428,44.72 C389.428,44.9760013 389.490666,45.1759993 389.616,45.32 C389.741334,45.4640007 389.913332,45.536 390.132,45.536 C390.254667,45.536 390.357333,45.5213335 390.44,45.492 C390.522667,45.4626665 390.594666,45.4320002 390.656,45.4 C390.717334,45.3679998 390.772,45.3373335 390.82,45.308 C390.868,45.2786665 390.916,45.264 390.964,45.264 C391.022667,45.264 391.070666,45.2786665 391.108,45.308 C391.145334,45.3373335 391.185333,45.381333 391.228,45.44 L391.82,46.4 C391.531999,46.6400012 391.201335,46.8213327 390.828,46.944 C390.454665,47.0666673 390.068002,47.128 389.668,47.128 C388.95333,47.128 388.405335,46.9266687 388.024,46.524 C387.642665,46.1213313 387.452,45.5653369 387.452,44.856 L387.452,40.272 L386.612,40.272 C386.505333,40.272 386.414667,40.2373337 386.34,40.168 C386.265333,40.0986663 386.228,39.9946674 386.228,39.856 L386.228,39.072 L387.548,38.848 L387.964,36.616 C387.990667,36.5093328 388.041333,36.426667 388.116,36.368 C388.190667,36.309333 388.286666,36.28 388.404,36.28 L389.428,36.28 L389.428,38.864 L395.212,38.864 L395.212,47 Z M395.556,36.368 C395.556,36.5386675 395.521334,36.6999992 395.452,36.852 C395.382666,37.0040008 395.290667,37.1359994 395.176,37.248 C395.061333,37.3600006 394.925334,37.449333 394.768,37.516 C394.610666,37.582667 394.444001,37.616 394.268,37.616 C394.097332,37.616 393.937334,37.582667 393.788,37.516 C393.638666,37.449333 393.508001,37.3600006 393.396,37.248 C393.283999,37.1359994 393.194667,37.0040008 393.128,36.852 C393.061333,36.6999992 393.028,36.5386675 393.028,36.368 C393.028,36.1919991 393.061333,36.0280008 393.128,35.876 C393.194667,35.7239992 393.283999,35.5906672 393.396,35.476 C393.508001,35.3613328 393.638666,35.270667 393.788,35.204 C393.937334,35.137333 394.097332,35.104 394.268,35.104 C394.444001,35.104 394.610666,35.137333 394.768,35.204 C394.925334,35.270667 395.061333,35.3613328 395.176,35.476 C395.290667,35.5906672 395.382666,35.7239992 395.452,35.876 C395.521334,36.0280008 395.556,36.1919991 395.556,36.368 L395.556,36.368 Z M404.628,38.792 L401.372,47 L399.58,47 L396.324,38.792 L397.956,38.792 C398.105334,38.792 398.229333,38.8266663 398.328,38.896 C398.426667,38.9653337 398.492,39.0533328 398.524,39.16 L400.108,43.544 C400.193334,43.8000013 400.268,44.0506654 400.332,44.296 C400.396,44.5413346 400.452,44.7866654 400.5,45.032 C400.553334,44.7866654 400.612,44.5413346 400.676,44.296 C400.74,44.0506654 400.817333,43.8000013 400.908,43.544 L402.524,39.16 C402.561334,39.0533328 402.628,38.9653337 402.724,38.896 C402.82,38.8266663 402.934666,38.792 403.068,38.792 L404.628,38.792 Z M409.812,43.496 C409.24133,43.5226668 408.761335,43.5719996 408.372,43.644 C407.982665,43.7160004 407.670668,43.8079994 407.436,43.92 C407.201332,44.0320006 407.033334,44.1626659 406.932,44.312 C406.830666,44.4613341 406.78,44.6239991 406.78,44.8 C406.78,45.1466684 406.882666,45.3946659 407.088,45.544 C407.293334,45.6933341 407.561332,45.768 407.892,45.768 C408.297335,45.768 408.647999,45.6946674 408.944,45.548 C409.240001,45.4013326 409.529332,45.1786682 409.812,44.88 L409.812,43.496 Z M405.284,39.936 C406.228005,39.0719957 407.363993,38.64 408.692,38.64 C409.172002,38.64 409.601331,38.7186659 409.98,38.876 C410.358669,39.0333341 410.678665,39.2519986 410.94,39.532 C411.201335,39.8120014 411.399999,40.1466647 411.536,40.536 C411.672001,40.9253353 411.74,41.3519977 411.74,41.816 L411.74,47 L410.844,47 C410.657332,47 410.513334,46.9720003 410.412,46.916 C410.310666,46.8599997 410.230667,46.7466675 410.172,46.576 L409.996,45.984 C409.787999,46.1706676 409.585334,46.334666 409.388,46.476 C409.190666,46.617334 408.985334,46.7359995 408.772,46.832 C408.558666,46.9280005 408.330668,47.0013331 408.088,47.052 C407.845332,47.1026669 407.577335,47.128 407.284,47.128 C406.937332,47.128 406.617335,47.0813338 406.324,46.988 C406.030665,46.8946662 405.777334,46.7546676 405.564,46.568 C405.350666,46.3813324 405.185334,46.1493347 405.068,45.872 C404.950666,45.5946653 404.892,45.2720018 404.892,44.904 C404.892,44.695999 404.926666,44.4893344 404.996,44.284 C405.065334,44.0786656 405.178666,43.8826676 405.336,43.696 C405.493334,43.5093324 405.697332,43.3333342 405.948,43.168 C406.198668,43.0026658 406.506665,42.8586673 406.872,42.736 C407.237335,42.6133327 407.662664,42.5133337 408.148,42.436 C408.633336,42.3586663 409.187997,42.3120001 409.812,42.296 L409.812,41.816 C409.812,41.2666639 409.694668,40.8600013 409.46,40.596 C409.225332,40.3319987 408.886669,40.2 408.444,40.2 C408.123998,40.2 407.858668,40.237333 407.648,40.312 C407.437332,40.386667 407.252001,40.4706662 407.092,40.564 C406.931999,40.6573338 406.786667,40.741333 406.656,40.816 C406.525333,40.890667 406.380001,40.928 406.22,40.928 C406.081333,40.928 405.964,40.8920004 405.868,40.82 C405.772,40.7479996 405.694667,40.6640005 405.636,40.568 L405.284,39.936 Z M420.076,45.776 C419.713332,46.2026688 419.304002,46.515999 418.848,46.716 C418.391998,46.916001 417.921336,47.0399998 417.436,47.088 L417.332,47.488 C417.833336,47.6053339 418.183999,47.763999 418.384,47.964 C418.584001,48.164001 418.684,48.4026653 418.684,48.68 C418.684,48.8613342 418.637334,49.0239993 418.544,49.168 C418.450666,49.3120007 418.317334,49.4346662 418.144,49.536 C417.970666,49.6373338 417.765335,49.7146664 417.528,49.768 C417.290665,49.8213336 417.028001,49.848 416.74,49.848 C416.521332,49.848 416.316001,49.8333335 416.124,49.804 C415.931999,49.7746665 415.745334,49.730667 415.564,49.672 L415.74,49.056 C415.772,48.9333327 415.849333,48.872 415.972,48.872 C416.046667,48.872 416.129333,48.8919998 416.22,48.932 C416.310667,48.9720002 416.441332,48.992 416.612,48.992 C416.788001,48.992 416.92,48.958667 417.008,48.892 C417.096,48.825333 417.14,48.7440005 417.14,48.648 C417.14,48.4933326 417.044001,48.382667 416.852,48.316 C416.659999,48.249333 416.364002,48.186667 415.964,48.128 L416.316,47.08 C415.867998,47.0159997 415.452002,46.8760011 415.068,46.66 C414.683998,46.4439989 414.350668,46.1586684 414.068,45.804 C413.785332,45.4493316 413.562667,45.0266691 413.4,44.536 C413.237333,44.0453309 413.156,43.4933364 413.156,42.88 C413.156,42.2773303 413.242666,41.7186692 413.416,41.204 C413.589334,40.6893308 413.843998,40.2440019 414.18,39.868 C414.516002,39.4919981 414.931998,39.1973344 415.428,38.984 C415.924002,38.7706656 416.494663,38.664 417.14,38.664 C417.753336,38.664 418.290664,38.7626657 418.752,38.96 C419.213336,39.1573343 419.627998,39.4399982 419.996,39.808 L419.476,40.528 C419.417333,40.602667 419.36,40.6613331 419.304,40.704 C419.248,40.7466669 419.166667,40.768 419.06,40.768 C418.958666,40.768 418.86,40.7373336 418.764,40.676 C418.668,40.6146664 418.553334,40.5453337 418.42,40.468 C418.286666,40.3906663 418.128001,40.3213336 417.944,40.26 C417.759999,40.1986664 417.532001,40.168 417.26,40.168 C416.913332,40.168 416.609335,40.230666 416.348,40.356 C416.086665,40.481334 415.869334,40.6613322 415.696,40.896 C415.522666,41.1306678 415.393334,41.414665 415.308,41.748 C415.222666,42.081335 415.18,42.4586646 415.18,42.88 C415.18,43.3173355 415.226666,43.706665 415.32,44.048 C415.413334,44.389335 415.547999,44.6759988 415.724,44.908 C415.900001,45.1400012 416.113332,45.3159994 416.364,45.436 C416.614668,45.5560006 416.897332,45.616 417.212,45.616 C417.526668,45.616 417.781332,45.5773337 417.976,45.5 C418.170668,45.4226663 418.334666,45.3373338 418.468,45.244 C418.601334,45.1506662 418.717333,45.0653337 418.816,44.988 C418.914667,44.9106663 419.025333,44.872 419.148,44.872 C419.308001,44.872 419.428,44.9333327 419.508,45.056 L420.076,45.776 Z M425.66,43.496 C425.08933,43.5226668 424.609335,43.5719996 424.22,43.644 C423.830665,43.7160004 423.518668,43.8079994 423.284,43.92 C423.049332,44.0320006 422.881334,44.1626659 422.78,44.312 C422.678666,44.4613341 422.628,44.6239991 422.628,44.8 C422.628,45.1466684 422.730666,45.3946659 422.936,45.544 C423.141334,45.6933341 423.409332,45.768 423.74,45.768 C424.145335,45.768 424.495999,45.6946674 424.792,45.548 C425.088001,45.4013326 425.377332,45.1786682 425.66,44.88 L425.66,43.496 Z M421.132,39.936 C422.076005,39.0719957 423.211993,38.64 424.54,38.64 C425.020002,38.64 425.449331,38.7186659 425.828,38.876 C426.206669,39.0333341 426.526665,39.2519986 426.788,39.532 C427.049335,39.8120014 427.247999,40.1466647 427.384,40.536 C427.520001,40.9253353 427.588,41.3519977 427.588,41.816 L427.588,47 L426.692,47 C426.505332,47 426.361334,46.9720003 426.26,46.916 C426.158666,46.8599997 426.078667,46.7466675 426.02,46.576 L425.844,45.984 C425.635999,46.1706676 425.433334,46.334666 425.236,46.476 C425.038666,46.617334 424.833334,46.7359995 424.62,46.832 C424.406666,46.9280005 424.178668,47.0013331 423.936,47.052 C423.693332,47.1026669 423.425335,47.128 423.132,47.128 C422.785332,47.128 422.465335,47.0813338 422.172,46.988 C421.878665,46.8946662 421.625334,46.7546676 421.412,46.568 C421.198666,46.3813324 421.033334,46.1493347 420.916,45.872 C420.798666,45.5946653 420.74,45.2720018 420.74,44.904 C420.74,44.695999 420.774666,44.4893344 420.844,44.284 C420.913334,44.0786656 421.026666,43.8826676 421.184,43.696 C421.341334,43.5093324 421.545332,43.3333342 421.796,43.168 C422.046668,43.0026658 422.354665,42.8586673 422.72,42.736 C423.085335,42.6133327 423.510664,42.5133337 423.996,42.436 C424.481336,42.3586663 425.035997,42.3120001 425.66,42.296 L425.66,41.816 C425.66,41.2666639 425.542668,40.8600013 425.308,40.596 C425.073332,40.3319987 424.734669,40.2 424.292,40.2 C423.971998,40.2 423.706668,40.237333 423.496,40.312 C423.285332,40.386667 423.100001,40.4706662 422.94,40.564 C422.779999,40.6573338 422.634667,40.741333 422.504,40.816 C422.373333,40.890667 422.228001,40.928 422.068,40.928 C421.929333,40.928 421.812,40.8920004 421.716,40.82 C421.62,40.7479996 421.542667,40.6640005 421.484,40.568 L421.132,39.936 Z M425.212,36.128 C425.372001,36.128 425.497333,36.0840004 425.588,35.996 C425.678667,35.9079996 425.724,35.7493345 425.724,35.52 L426.924,35.52 C426.924,35.8186682 426.882667,36.0893321 426.8,36.332 C426.717333,36.5746679 426.604001,36.7826658 426.46,36.956 C426.315999,37.1293342 426.144001,37.2626662 425.944,37.356 C425.743999,37.4493338 425.524001,37.496 425.284,37.496 C425.091999,37.496 424.913334,37.4613337 424.748,37.392 C424.582666,37.3226663 424.428001,37.2480004 424.284,37.168 C424.139999,37.0879996 424.005334,37.0133337 423.88,36.944 C423.754666,36.8746663 423.638667,36.84 423.532,36.84 C423.377333,36.84 423.256,36.8866662 423.168,36.98 C423.08,37.0733338 423.036,37.2319989 423.036,37.456 L421.812,37.456 C421.812,37.1573318 421.853333,36.8866679 421.936,36.644 C422.018667,36.4013321 422.134666,36.1933342 422.284,36.02 C422.433334,35.8466658 422.607999,35.7120005 422.808,35.616 C423.008001,35.5199995 423.225332,35.472 423.46,35.472 C423.652001,35.472 423.831999,35.5066663 424,35.576 C424.168001,35.6453337 424.323999,35.7199996 424.468,35.8 C424.612001,35.8800004 424.745333,35.9546663 424.868,36.024 C424.990667,36.0933337 425.105333,36.128 425.212,36.128 L425.212,36.128 Z M433.076,38.664 C433.684003,38.664 434.237331,38.7626657 434.736,38.96 C435.234669,39.1573343 435.661332,39.4373315 436.016,39.8 C436.370668,40.1626685 436.643999,40.6053307 436.836,41.128 C437.028001,41.6506693 437.124,42.2346634 437.124,42.88 C437.124,43.5306699 437.028001,44.1173307 436.836,44.64 C436.643999,45.1626693 436.370668,45.6079982 436.016,45.976 C435.661332,46.3440018 435.234669,46.6266657 434.736,46.824 C434.237331,47.0213343 433.684003,47.12 433.076,47.12 C432.462664,47.12 431.905336,47.0213343 431.404,46.824 C430.902664,46.6266657 430.474668,46.3440018 430.12,45.976 C429.765332,45.6079982 429.490668,45.1626693 429.296,44.64 C429.101332,44.1173307 429.004,43.5306699 429.004,42.88 C429.004,42.2346634 429.101332,41.6506693 429.296,41.128 C429.490668,40.6053307 429.765332,40.1626685 430.12,39.8 C430.474668,39.4373315 430.902664,39.1573343 431.404,38.96 C431.905336,38.7626657 432.462664,38.664 433.076,38.664 L433.076,38.664 Z M433.076,45.6 C433.75867,45.6 434.263998,45.370669 434.592,44.912 C434.920002,44.453331 435.084,43.7813378 435.084,42.896 C435.084,42.0106622 434.920002,41.3360023 434.592,40.872 C434.263998,40.4079977 433.75867,40.176 433.076,40.176 C432.382663,40.176 431.869335,40.409331 431.536,40.876 C431.202665,41.342669 431.036,42.0159956 431.036,42.896 C431.036,43.7760044 431.202665,44.4466644 431.536,44.908 C431.869335,45.3693356 432.382663,45.6 433.076,45.6 L433.076,45.6 Z M382.812,58.888 C382.587999,58.6159986 382.344001,58.4240006 382.08,58.312 C381.815999,58.1999994 381.532002,58.144 381.228,58.144 C380.929332,58.144 380.660001,58.1999994 380.42,58.312 C380.179999,58.4240006 379.974668,58.5933322 379.804,58.82 C379.633332,59.0466678 379.502667,59.3346649 379.412,59.684 C379.321333,60.0333351 379.276,60.445331 379.276,60.92 C379.276,61.4000024 379.314666,61.806665 379.392,62.14 C379.469334,62.473335 379.579999,62.7453323 379.724,62.956 C379.868001,63.1666677 380.043999,63.3186662 380.252,63.412 C380.460001,63.5053338 380.691999,63.552 380.948,63.552 C381.358669,63.552 381.707999,63.4666675 381.996,63.296 C382.284001,63.1253325 382.555999,62.8826682 382.812,62.568 L382.812,58.888 Z M384.788,53.112 L384.788,65 L383.58,65 C383.318665,65 383.153334,64.8800012 383.084,64.64 L382.916,63.848 C382.585332,64.2266686 382.205335,64.5333322 381.776,64.768 C381.346665,65.0026678 380.84667,65.12 380.276,65.12 C379.827998,65.12 379.417335,65.0266676 379.044,64.84 C378.670665,64.6533324 378.349335,64.3826684 378.08,64.028 C377.810665,63.6733316 377.602667,63.2346693 377.456,62.712 C377.309333,62.1893307 377.236,61.5920034 377.236,60.92 C377.236,60.311997 377.318666,59.7466693 377.484,59.224 C377.649334,58.7013307 377.886665,58.2480019 378.196,57.864 C378.505335,57.4799981 378.875998,57.1800011 379.308,56.964 C379.740002,56.7479989 380.225331,56.64 380.764,56.64 C381.222669,56.64 381.614665,56.7119993 381.94,56.856 C382.265335,57.0000007 382.555999,57.1946654 382.812,57.44 L382.812,53.112 L384.788,53.112 Z M391.076,61.496 C390.50533,61.5226668 390.025335,61.5719996 389.636,61.644 C389.246665,61.7160004 388.934668,61.8079994 388.7,61.92 C388.465332,62.0320006 388.297334,62.1626659 388.196,62.312 C388.094666,62.4613341 388.044,62.6239991 388.044,62.8 C388.044,63.1466684 388.146666,63.3946659 388.352,63.544 C388.557334,63.6933341 388.825332,63.768 389.156,63.768 C389.561335,63.768 389.911999,63.6946674 390.208,63.548 C390.504001,63.4013326 390.793332,63.1786682 391.076,62.88 L391.076,61.496 Z M386.548,57.936 C387.492005,57.0719957 388.627993,56.64 389.956,56.64 C390.436002,56.64 390.865331,56.7186659 391.244,56.876 C391.622669,57.0333341 391.942665,57.2519986 392.204,57.532 C392.465335,57.8120014 392.663999,58.1466647 392.8,58.536 C392.936001,58.9253353 393.004,59.3519977 393.004,59.816 L393.004,65 L392.108,65 C391.921332,65 391.777334,64.9720003 391.676,64.916 C391.574666,64.8599997 391.494667,64.7466675 391.436,64.576 L391.26,63.984 C391.051999,64.1706676 390.849334,64.334666 390.652,64.476 C390.454666,64.617334 390.249334,64.7359995 390.036,64.832 C389.822666,64.9280005 389.594668,65.0013331 389.352,65.052 C389.109332,65.1026669 388.841335,65.128 388.548,65.128 C388.201332,65.128 387.881335,65.0813338 387.588,64.988 C387.294665,64.8946662 387.041334,64.7546676 386.828,64.568 C386.614666,64.3813324 386.449334,64.1493347 386.332,63.872 C386.214666,63.5946653 386.156,63.2720018 386.156,62.904 C386.156,62.695999 386.190666,62.4893344 386.26,62.284 C386.329334,62.0786656 386.442666,61.8826676 386.6,61.696 C386.757334,61.5093324 386.961332,61.3333342 387.212,61.168 C387.462668,61.0026658 387.770665,60.8586673 388.136,60.736 C388.501335,60.6133327 388.926664,60.5133337 389.412,60.436 C389.897336,60.3586663 390.451997,60.3120001 391.076,60.296 L391.076,59.816 C391.076,59.2666639 390.958668,58.8600013 390.724,58.596 C390.489332,58.3319987 390.150669,58.2 389.708,58.2 C389.387998,58.2 389.122668,58.237333 388.912,58.312 C388.701332,58.386667 388.516001,58.4706662 388.356,58.564 C388.195999,58.6573338 388.050667,58.741333 387.92,58.816 C387.789333,58.890667 387.644001,58.928 387.484,58.928 C387.345333,58.928 387.228,58.8920004 387.132,58.82 C387.036,58.7479996 386.958667,58.6640005 386.9,58.568 L386.548,57.936 Z M405.836,63.224 L405.836,65 L399.06,65 L399.06,53.432 L401.212,53.432 L401.212,63.224 L405.836,63.224 Z M409.108,56.792 L409.108,65 L407.124,65 L407.124,56.792 L409.108,56.792 Z M409.38,54.4 C409.38,54.5706675 409.345334,54.7306659 409.276,54.88 C409.206666,55.0293341 409.114667,55.1599994 409,55.272 C408.885333,55.3840006 408.750667,55.473333 408.596,55.54 C408.441333,55.606667 408.276001,55.64 408.1,55.64 C407.929332,55.64 407.768001,55.606667 407.616,55.54 C407.463999,55.473333 407.332001,55.3840006 407.22,55.272 C407.107999,55.1599994 407.018667,55.0293341 406.952,54.88 C406.885333,54.7306659 406.852,54.5706675 406.852,54.4 C406.852,54.2239991 406.885333,54.0586674 406.952,53.904 C407.018667,53.7493326 407.107999,53.6160006 407.22,53.504 C407.332001,53.3919994 407.463999,53.302667 407.616,53.236 C407.768001,53.169333 407.929332,53.136 408.1,53.136 C408.276001,53.136 408.441333,53.169333 408.596,53.236 C408.750667,53.302667 408.885333,53.3919994 409,53.504 C409.114667,53.6160006 409.206666,53.7493326 409.276,53.904 C409.345334,54.0586674 409.38,54.2239991 409.38,54.4 L409.38,54.4 Z M412.972,57.8 C413.137334,57.6346658 413.311999,57.481334 413.496,57.34 C413.680001,57.198666 413.874666,57.0786672 414.08,56.98 C414.285334,56.8813328 414.505332,56.8040003 414.74,56.748 C414.974668,56.6919997 415.230665,56.664 415.508,56.664 C415.956002,56.664 416.353332,56.7399992 416.7,56.892 C417.046668,57.0440008 417.335999,57.257332 417.568,57.532 C417.800001,57.806668 417.975999,58.1346648 418.096,58.516 C418.216001,58.8973352 418.276,59.317331 418.276,59.776 L418.276,65 L416.3,65 L416.3,59.776 C416.3,59.2746642 416.185334,58.886668 415.956,58.612 C415.726666,58.337332 415.377336,58.2 414.908,58.2 C414.566665,58.2 414.246668,58.2773326 413.948,58.432 C413.649332,58.5866674 413.366668,58.797332 413.1,59.064 L413.1,65 L411.124,65 L411.124,56.792 L412.332,56.792 C412.588001,56.792 412.756,56.9119988 412.836,57.152 L412.972,57.8 Z M422.124,57.672 C422.444002,57.3733318 422.795998,57.1306676 423.18,56.944 C423.564002,56.7573324 424.014664,56.664 424.532,56.664 C424.980002,56.664 425.377332,56.7399992 425.724,56.892 C426.070668,57.0440008 426.359999,57.257332 426.592,57.532 C426.824001,57.806668 426.999999,58.1346648 427.12,58.516 C427.240001,58.8973352 427.3,59.317331 427.3,59.776 L427.3,65 L425.324,65 L425.324,59.776 C425.324,59.2746642 425.209334,58.886668 424.98,58.612 C424.750666,58.337332 424.401336,58.2 423.932,58.2 C423.590665,58.2 423.270668,58.2773326 422.972,58.432 C422.673332,58.5866674 422.390668,58.797332 422.124,59.064 L422.124,65 L420.148,65 L420.148,53.112 L422.124,53.112 L422.124,57.672 Z M433.508,61.496 C432.93733,61.5226668 432.457335,61.5719996 432.068,61.644 C431.678665,61.7160004 431.366668,61.8079994 431.132,61.92 C430.897332,62.0320006 430.729334,62.1626659 430.628,62.312 C430.526666,62.4613341 430.476,62.6239991 430.476,62.8 C430.476,63.1466684 430.578666,63.3946659 430.784,63.544 C430.989334,63.6933341 431.257332,63.768 431.588,63.768 C431.993335,63.768 432.343999,63.6946674 432.64,63.548 C432.936001,63.4013326 433.225332,63.1786682 433.508,62.88 L433.508,61.496 Z M428.98,57.936 C429.924005,57.0719957 431.059993,56.64 432.388,56.64 C432.868002,56.64 433.297331,56.7186659 433.676,56.876 C434.054669,57.0333341 434.374665,57.2519986 434.636,57.532 C434.897335,57.8120014 435.095999,58.1466647 435.232,58.536 C435.368001,58.9253353 435.436,59.3519977 435.436,59.816 L435.436,65 L434.54,65 C434.353332,65 434.209334,64.9720003 434.108,64.916 C434.006666,64.8599997 433.926667,64.7466675 433.868,64.576 L433.692,63.984 C433.483999,64.1706676 433.281334,64.334666 433.084,64.476 C432.886666,64.617334 432.681334,64.7359995 432.468,64.832 C432.254666,64.9280005 432.026668,65.0013331 431.784,65.052 C431.541332,65.1026669 431.273335,65.128 430.98,65.128 C430.633332,65.128 430.313335,65.0813338 430.02,64.988 C429.726665,64.8946662 429.473334,64.7546676 429.26,64.568 C429.046666,64.3813324 428.881334,64.1493347 428.764,63.872 C428.646666,63.5946653 428.588,63.2720018 428.588,62.904 C428.588,62.695999 428.622666,62.4893344 428.692,62.284 C428.761334,62.0786656 428.874666,61.8826676 429.032,61.696 C429.189334,61.5093324 429.393332,61.3333342 429.644,61.168 C429.894668,61.0026658 430.202665,60.8586673 430.568,60.736 C430.933335,60.6133327 431.358664,60.5133337 431.844,60.436 C432.329336,60.3586663 432.883997,60.3120001 433.508,60.296 L433.508,59.816 C433.508,59.2666639 433.390668,58.8600013 433.156,58.596 C432.921332,58.3319987 432.582669,58.2 432.14,58.2 C431.819998,58.2 431.554668,58.237333 431.344,58.312 C431.133332,58.386667 430.948001,58.4706662 430.788,58.564 C430.627999,58.6573338 430.482667,58.741333 430.352,58.816 C430.221333,58.890667 430.076001,58.928 429.916,58.928 C429.777333,58.928 429.66,58.8920004 429.564,58.82 C429.468,58.7479996 429.390667,58.6640005 429.332,58.568 L428.98,57.936 Z" id="Ativação" fill="#4A4A4A"></path>
                </g>
            </g>
        </g>
    </g>
</svg>